<svg width="1843" height="1036" viewBox="0 0 1843 1036" fill="none" xmlns="http://www.w3.org/2000/svg">
<rect width="1842.46" height="1035.85" fill="#FAFCF1"/>
<path d="M173.038 347.519L369.03 708.369" stroke="black" stroke-width="4.2453"/>
<path d="M132 327L221.151 489.029" stroke="black" stroke-width="1.4151"/>
<path d="M283.983 520.161L407.097 742.332" stroke="black" stroke-width="1.4151"/>
<path d="M1509.04 721.482L1705.03 360.632" stroke="black" stroke-width="4.2453"/>
<path d="M1480 742L1638 454" stroke="black" stroke-width="1.4151"/>
<path d="M1664 496L1758 327" stroke="black" stroke-width="1.4151"/>
<g filter="url(#filter0_d)">
<path d="M439.541 490.81C441.529 491.374 443.425 492.124 445.112 492.947C449.87 495.442 452.732 487.672 447.509 485.415C444.676 484.207 441.287 483.424 437.879 483.038C437.041 480.831 435.969 478.626 435.3 476.907C433.984 473.539 431.902 468.173 429.96 462.758C431.513 461.834 433.042 460.839 434.572 459.845C440.064 456.316 434.881 451.004 430.829 453.958C429.834 454.691 428.675 455.402 427.61 456.159C426.433 452.743 425.495 449.79 424.962 447.79C423.944 443.929 416.896 445.654 418.317 450.234C418.991 452.42 420.285 455.951 421.699 459.832C418.475 461.566 415.2 462.927 411.941 463.426C406.26 464.368 407.872 471.768 412.827 470.529C416.921 469.51 420.52 467.958 424.093 466.104C426.199 471.54 428.187 476.861 429.38 479.647C429.906 480.948 430.406 481.946 430.79 483.061C426.225 483.619 421.996 485.153 418.807 488.123C412.66 493.827 415.537 501.727 422.803 503.125C431.891 504.83 438.788 497.23 439.541 490.81ZM407.567 509.384C408.734 507.111 407.155 505.471 407.041 503.327C406.936 502.115 406.826 500.437 406.783 498.502C406.741 496.567 406.79 494.444 407.048 492.25C407.758 486.157 401.643 485.611 401.191 489.509C401.172 489.906 401.116 491.329 401.051 491.819C400.834 493.454 400.692 493.269 400.12 492.062C398.881 489.369 397.562 483.272 396.428 477.034C395.294 470.796 394.39 464.322 393.798 461.016C392.983 456.384 385.182 457.51 386.708 463.302C387.92 467.953 389.075 476.29 391.073 485.039C393.072 493.787 395.959 502.853 400.615 509.127C403.097 512.483 406.33 511.682 407.567 509.384ZM432.417 489.598C432.717 494.095 427.574 497.504 423.579 496.774C421.57 496.374 421.172 493.86 422.581 492.516C424.799 490.349 428.405 489.497 432.347 489.622L432.417 489.598Z" fill="#2A6C61" fill-opacity="0.5"/>
</g>
<path d="M404.463 508.926L404.455 508.942C403.571 510.583 401.921 511.778 399.948 511.883C397.931 511.991 395.966 510.948 394.454 508.903C389.561 502.309 386.61 492.928 384.602 484.141C383.593 479.724 382.799 475.417 382.109 471.66L382.073 471.462C381.393 467.761 380.825 464.666 380.251 462.459C379.765 460.612 379.98 458.928 380.816 457.59C381.635 456.278 382.933 455.489 384.265 455.184C386.852 454.592 390.239 455.8 390.874 459.399C390.875 459.4 390.875 459.401 390.875 459.402L389.092 459.715L404.463 508.926ZM404.463 508.926L404.471 508.91M404.463 508.926L404.471 508.91M404.471 508.91C405.342 507.214 405.15 505.721 404.825 504.529C404.746 504.242 404.618 503.843 404.512 503.511C404.451 503.321 404.398 503.153 404.365 503.042C404.236 502.609 404.16 502.26 404.143 501.929L404.141 501.899M404.471 508.91L404.141 501.899M404.141 501.899L404.138 501.869M404.141 501.899L404.138 501.869M404.138 501.869C404.036 500.691 403.929 499.053 403.887 497.162C403.846 495.284 403.894 493.249 404.14 491.161L404.14 491.159M404.138 501.869L404.14 491.159M404.14 491.159C404.569 487.479 402.913 484.796 400.328 484.086C399.118 483.754 397.799 483.914 396.712 484.612C396.302 484.876 395.942 485.205 395.643 485.589L404.14 491.159ZM443.522 482.452L443.513 482.449C440.788 481.287 437.634 480.511 434.463 480.074C434.138 479.276 433.799 478.495 433.478 477.763C433.429 477.649 433.38 477.537 433.331 477.426C432.926 476.503 432.564 475.677 432.28 474.949L432.28 474.948C431.078 471.871 429.242 467.14 427.459 462.234C428.602 461.525 429.729 460.792 430.837 460.071L430.844 460.067C430.846 460.066 430.847 460.065 430.849 460.064C432.493 459.006 433.57 457.661 433.93 456.135C434.293 454.591 433.856 453.129 432.989 452.041C431.284 449.901 427.885 449.132 425.056 451.195L425.05 451.2C424.682 451.471 424.283 451.743 423.856 452.029C423.045 449.594 422.404 447.521 422.006 446.025C421.593 444.463 420.529 443.42 419.255 442.915C418.035 442.432 416.676 442.453 415.491 442.814C414.303 443.176 413.131 443.929 412.381 445.101C411.601 446.321 411.378 447.844 411.881 449.467C412.482 451.415 413.555 454.382 414.748 457.656C412.091 458.979 409.49 459.949 406.961 460.335L406.95 460.337L406.938 460.339C405.108 460.643 403.688 461.507 402.801 462.762C401.93 463.994 401.675 465.464 401.905 466.802C402.135 468.134 402.86 469.416 404.051 470.254C405.276 471.116 406.854 471.411 408.558 470.985C412.134 470.095 415.332 468.819 418.417 467.318C418.779 468.259 419.136 469.191 419.485 470.099C420.886 473.755 422.145 477.037 423.003 479.042C423.205 479.542 423.385 479.959 423.548 480.334C419.584 481.124 415.847 482.723 412.868 485.496C409.36 488.753 408.252 492.848 409.335 496.458C410.408 500.033 413.531 502.789 417.755 503.602L417.762 503.603C422.918 504.571 427.452 502.884 430.758 500.098C433.406 497.867 435.335 494.876 436.203 491.844C437.395 492.266 438.535 492.749 439.591 493.263C441.218 494.108 442.885 494.157 444.309 493.47C445.681 492.808 446.606 491.572 447.06 490.251C447.975 487.586 447.133 484.013 443.522 482.452ZM419.141 492.51C420.532 491.151 422.793 490.345 425.612 490.161C425.271 490.994 424.651 491.765 423.81 492.402C422.394 493.474 420.622 493.946 419.216 493.695C419.08 493.667 419.018 493.617 418.983 493.58C418.939 493.534 418.891 493.455 418.865 493.333C418.811 493.067 418.894 492.746 419.124 492.526L419.133 492.518L419.141 492.51Z" stroke="#2A6C61" stroke-width="3.62079"/>
<g filter="url(#filter1_d)">
<path d="M505.431 495.019C505.433 492.172 503.896 489.329 502.989 487.981C500.32 484.03 494.49 486.293 496.105 489.391C496.552 490.216 496.927 491.021 497.282 491.896C497.686 492.863 498.048 493.971 497.994 495.186C497.917 500.088 505.417 499.708 505.431 495.019ZM489.738 508.422C494.666 507.121 499.614 505.75 504.755 505.282C511.316 504.699 515.965 505.624 518.01 508.312C519.936 510.886 519.121 513.875 516.546 515.801C511.672 519.502 503.533 518.153 500.228 514.012C498.48 511.875 496.178 512.112 494.725 513.371C493.272 514.631 492.669 516.913 494.239 518.613C500.473 525.319 513.423 527.565 521.457 521.266C527.1 516.793 528.932 509.876 524.063 504.269C519.634 499.254 512.364 498.087 504.568 498.686C499.215 499.09 493.779 500.547 488.335 501.771C488.221 501.121 488.107 500.471 487.972 499.893C487.516 497.294 487.505 494.752 487.281 492.146C486.793 487.075 480.232 487.658 480.049 492.143C480.023 493.521 480.138 494.94 480.374 496.472C480.61 498.005 480.845 499.537 481.123 500.928C481.287 501.669 481.38 502.389 481.522 503.201C478.274 503.772 475.16 504.151 472.01 504.135C465.781 504.124 466.789 511.581 471.641 511.566C475.419 511.539 479.204 510.974 483.003 510.106C483.743 513.559 484.54 517.336 485.267 521.093C486.741 528.534 487.862 535.871 487.657 540.427C487.507 543.768 489.615 545.473 491.642 545.385C493.669 545.297 495.686 543.436 495.574 539.941C495.454 535.442 494 527.929 492.356 520.283C491.481 516.251 490.556 512.128 489.738 508.422Z" fill="#2A6C61" fill-opacity="0.5"/>
</g>
<path d="M504.173 491.227L504.173 491.223C504.176 487.828 502.391 484.612 501.423 483.174L501.421 483.171C499.598 480.473 496.626 479.855 494.37 480.507C493.259 480.827 492.169 481.5 491.515 482.561C490.809 483.707 490.743 485.109 491.432 486.431L491.438 486.443L491.445 486.455C491.857 487.218 492.205 487.962 492.536 488.779L492.539 488.788L492.543 488.798C492.914 489.685 493.153 490.495 493.117 491.308L493.116 491.335L493.115 491.361C493.098 492.436 493.347 493.394 493.81 494.195C491.799 494.601 489.798 495.067 487.826 495.527C487.446 495.615 487.068 495.703 486.691 495.791C486.687 495.772 486.683 495.754 486.679 495.735C486.393 494.087 486.3 492.532 486.2 490.857C486.149 490.009 486.097 489.131 486.017 488.194L486.016 488.185L486.015 488.175C485.854 486.501 485.165 485.133 484.081 484.204C483.013 483.289 481.681 482.902 480.406 482.956C477.856 483.063 475.306 484.979 475.172 488.273L475.171 488.293L475.171 488.312C475.142 489.815 475.269 491.34 475.516 492.951L475.52 492.974C475.753 494.49 475.994 496.055 476.279 497.485L476.283 497.503L476.287 497.521C476.316 497.656 476.343 497.785 476.367 497.914C473.826 498.304 471.39 498.54 468.951 498.528L468.945 498.528C467.022 498.525 465.419 499.105 464.301 500.209C463.19 501.307 462.734 502.754 462.793 504.133C462.909 506.844 465.063 509.59 468.578 509.579L468.586 509.579C471.926 509.555 475.247 509.13 478.543 508.462C479.17 511.409 479.82 514.533 480.421 517.64L480.422 517.647C481.901 525.11 482.974 532.242 482.78 536.549C482.59 540.791 485.409 543.538 488.652 543.397C491.879 543.257 494.449 540.35 494.315 536.09C494.196 531.677 492.869 524.631 491.355 517.497C494.726 520.387 499.247 522.251 503.885 522.817C509.268 523.473 515.028 522.405 519.506 518.894L519.513 518.888C522.603 516.439 524.763 513.231 525.414 509.726C526.073 506.171 525.142 502.487 522.362 499.285L522.357 499.279L522.352 499.273C517.873 494.203 510.989 492.766 503.914 492.951C504.079 492.431 504.171 491.856 504.173 491.227ZM489.544 509.227C489.451 508.806 489.358 508.386 489.265 507.97C489.112 507.281 488.961 506.6 488.813 505.931C493.19 504.774 497.452 503.688 501.849 503.288C505.026 503.006 507.626 503.102 509.617 503.541C511.609 503.981 512.824 504.726 513.497 505.605C514.159 506.495 514.295 507.352 514.128 508.118C513.954 508.922 513.403 509.799 512.394 510.554L512.394 510.554L512.383 510.562C510.412 512.059 507.669 512.602 504.961 512.255C502.235 511.905 499.859 510.694 498.575 509.086L498.568 509.077L498.561 509.069C497.402 507.652 495.933 506.893 494.391 506.813C492.888 506.735 491.503 507.312 490.471 508.207C490.132 508.501 489.819 508.845 489.544 509.227Z" stroke="#2A6C61" stroke-width="3.62079"/>
<g filter="url(#filter2_d)">
<path d="M546.435 471.768C544.358 463.342 539.493 455.363 533.969 444.931C532.143 441.507 532.701 439.361 536.408 436.838C541.752 433.199 550.628 428.356 555.09 424.625C559.293 421.07 553.75 414.688 549.578 418.474C544.117 423.516 537.521 427.817 531.618 432.025C524.852 436.819 523.875 441.963 527.597 448.449C531.481 455.266 535.849 465.854 538.482 474.91C539.92 479.987 547.758 477.048 546.435 471.768Z" fill="#2A6C61" fill-opacity="0.5"/>
</g>
<path d="M551.649 421.16C548.864 423.489 544.359 426.251 540.067 428.883C537.483 430.468 534.975 432.005 532.966 433.373C529.259 435.896 528.702 438.042 530.528 441.466M551.649 421.16L542.993 468.303M551.649 421.16C555.852 417.605 550.309 411.223 546.137 415.009L551.649 421.16ZM530.528 441.466C531.525 443.349 532.5 445.151 533.442 446.891C537.717 454.792 541.291 461.397 542.993 468.303M530.528 441.466L530.528 441.466L530.528 441.466ZM542.993 468.303L544.751 467.869C544.751 467.868 544.751 467.867 544.75 467.866C544.75 467.865 544.75 467.864 544.749 467.862L542.993 468.303ZM522.584 445.882C526.385 452.555 530.701 463.004 533.301 471.946L522.584 445.882Z" stroke="#2A6C61" stroke-width="3.62079"/>
<g filter="url(#filter3_d)">
<path d="M620.44 539.478C620.44 532.662 619.935 525.846 619.178 518.778C609.081 532.662 596.711 546.798 584.847 556.896C582.575 558.915 579.798 559.672 577.274 559.672C570.963 559.672 565.157 554.624 565.157 549.07C565.157 546.293 566.672 543.264 570.206 540.74C587.119 528.371 604.032 508.176 614.129 490.758C612.362 483.69 610.09 476.622 607.566 469.806C585.857 490.758 581.565 491.263 577.779 491.263C571.468 491.263 565.915 486.214 565.915 480.661C565.915 477.632 567.429 474.603 571.468 472.078C580.303 466.525 589.896 458.447 598.731 449.359C594.187 441.029 589.138 433.456 583.837 427.65C581.313 424.873 580.303 421.844 580.303 419.067C580.303 413.009 585.352 407.708 591.663 407.708C596.206 407.708 602.77 410.232 615.139 430.679C619.683 424.873 623.722 419.067 626.751 413.766C628.77 410.232 632.052 408.718 635.334 408.718C641.392 408.718 647.45 413.766 647.45 419.825C647.45 422.854 646.188 428.155 625.236 451.631C636.343 478.642 642.907 511.963 642.907 542.002C642.907 601.829 620.44 617.984 594.439 617.984C580.942 617.984 560.494 613.896 544.403 600.971C528.733 589.793 519.639 593.734 508.689 598.481C506.771 599.312 504.797 600.167 502.721 600.971C502.105 601.209 501.323 601.514 500.407 601.871C492.909 604.791 476.371 611.232 467.526 613.837C461.398 615.641 447.06 618.349 440.454 618.349C425.113 618.349 416.088 613.837 407.065 604.812C396.079 596.947 387.689 578.366 390.821 561.495C393.113 549.151 398.943 538.934 404.358 534.422C405.809 533.213 407.065 532.069 408.231 531.007C411.417 528.105 413.93 525.817 417.894 524.496C423.308 522.691 426.016 522.691 430.528 527.203C435.04 531.715 434.637 536.412 434.598 536.765C434.061 541.603 432.111 543.211 428.147 545.366C425.958 546.556 424.144 547.716 421.158 550.204C417.933 552.892 416.245 557.208 415.245 559.881C413.852 563.604 412.767 574.533 416.857 580.31C417.054 580.587 417.238 580.848 417.412 581.096C419.939 584.683 420.459 585.42 426.917 590.374C432.51 594.663 444.064 594.886 451.283 593.983C462.908 592.53 475.135 587.338 486.998 582.3C500.026 576.768 512.613 571.423 523.476 571.423C536.202 571.423 542.426 573.226 554.329 581.906C567.544 591.543 582.304 595.786 594.187 594.76C604.128 593.902 610.343 589.964 614.382 579.11C618.421 567.498 620.44 554.119 620.44 539.478Z" fill="#9F7D26"/>
</g>
<g filter="url(#filter4_d)">
<path d="M789.573 451.557C789.573 457.111 786.039 462.664 778.718 462.664L752.596 462.412V468.377C752.596 475.445 744.387 478.979 738.328 478.979C732.775 478.979 725.071 475.697 725.071 469.134V462.159H706.4V468.377C706.4 475.445 698.191 478.979 692.133 478.979C686.579 478.979 678.875 475.697 678.875 469.134L677.8 462.412L658.307 462.664H658.054C650.734 462.664 646.947 457.111 646.947 451.557C646.947 446.004 650.481 440.45 658.054 440.45H658.307L678.875 440.703L689.581 409.909C690.586 407.017 694.677 407.021 695.677 409.915L706.4 440.955H725.071L735.794 409.914C736.794 407.021 740.884 407.017 741.89 409.909L752.596 440.703L778.718 440.45C786.039 440.45 789.573 446.004 789.573 451.557Z" fill="#9F7D26"/>
<path fill-rule="evenodd" clip-rule="evenodd" d="M778.971 559.393C778.971 569.995 778.718 580.849 778.213 590.947C777.456 604.83 766.601 615.937 749.688 616.695C738.581 617.2 728.231 617.452 717.881 617.452C706.017 617.452 694.657 617.2 683.298 616.695C664.87 615.937 655.782 605.84 655.278 591.199C654.773 580.092 654.52 567.723 654.52 555.606C654.52 543.237 654.773 530.868 655.278 520.013C655.782 507.896 663.355 495.527 683.55 494.77C694.152 494.265 704.754 494.265 715.609 494.265C726.716 494.265 737.824 494.265 749.688 494.77C767.358 495.275 777.708 506.887 778.213 519.761C778.718 532.382 778.971 545.761 778.971 559.393ZM711.707 531.31C713.551 537.556 711.57 543.645 707.282 544.911C702.995 546.176 698.024 542.139 696.181 535.894C694.337 529.648 696.318 523.559 700.606 522.294C704.893 521.028 709.864 525.065 711.707 531.31ZM686.711 564.427C691.084 562.305 692.191 555.561 689.184 549.362C686.177 543.163 680.195 539.857 675.822 541.978C671.449 544.1 670.342 550.844 673.349 557.043C676.356 563.242 682.339 566.548 686.711 564.427ZM728.408 554.981C725.823 547.078 709.409 548.212 708.114 554.981C706.819 561.75 704.521 567.337 696.617 573.301C688.712 579.265 694.008 590.086 705.231 590.086L730.994 590.086C742.217 590.086 748.887 579.265 740.982 573.301C733.077 567.337 730.994 562.883 728.408 554.981ZM732.415 544.238C736.746 545.647 741.836 541.934 743.783 535.946C745.731 529.958 743.799 523.962 739.468 522.553C735.138 521.145 730.048 524.857 728.1 530.845C726.153 536.833 728.085 542.829 732.415 544.238ZM757.898 560.31C753.767 564.197 748.186 564.975 745.431 562.048C742.677 559.12 743.793 553.596 747.924 549.709C752.055 545.822 757.637 545.044 760.391 547.972C763.145 550.899 762.029 556.423 757.898 560.31Z" fill="#9F7D26"/>
</g>
<g filter="url(#filter5_d)">
<path d="M882.954 574.902C889.93 576.416 891.88 566.926 884.698 565.209C877.517 563.493 866.847 563.594 857.716 565.815C850.227 567.632 853.51 576.618 859.153 575.205C867.77 573.084 875.568 573.387 882.954 574.902ZM888.494 620.943C895.265 619.226 894.752 608.524 886.442 610.24C878.44 611.856 866.129 613.471 860.589 608.524C855.254 603.778 849.099 610.947 853.305 615.491C860.692 623.366 877.517 623.669 888.494 620.943ZM834.223 625.789C836.788 623.568 835.557 620.438 836.172 617.712C836.788 614.784 838.429 610.139 842.225 603.577C844.585 599.538 838.224 594.691 835.044 599.639C834.633 600.346 833.505 602.365 833.299 602.87C832.889 603.778 832.479 604.081 832.171 602.769C829.709 593.379 835.864 569.652 837.506 561.473C838.634 555.617 828.683 553.396 827.554 560.867C825.708 572.883 817.603 602.769 825.81 622.659C827.862 627.607 831.658 628.011 834.223 625.789Z" fill="#2A6C61"/>
</g>
<g filter="url(#filter6_d)">
<path d="M1006.2 531.58C1012.52 535.586 1019.23 524.861 1010.46 519.563C1004.27 515.816 995.239 514.266 986.727 515.041C978.472 515.816 978.988 526.541 986.082 526.153C993.563 525.766 1000.14 527.704 1006.2 531.58ZM948.033 518.659C941.713 532.226 934.103 543.209 926.88 553.934C921.205 562.333 933.587 567.372 938.359 559.619C946.614 546.181 955.385 530.676 961.447 516.075C966.735 514.524 972.023 512.457 975.248 510.131C983.502 504.187 975.376 496.176 969.572 500.311C968.412 501.086 966.993 501.732 965.445 502.507C966.348 499.406 967.122 496.564 967.251 494.626C967.509 487.26 956.158 485.839 954.998 493.463C954.353 498.114 953.708 502.249 952.418 506.513C945.711 508.193 939.004 508.322 934.748 506.901C925.59 503.929 923.14 515.816 931.007 518.013C935.909 519.434 941.455 519.951 948.033 518.659ZM988.661 579.259C991.628 581.327 994.079 583.653 996.013 585.978C1002.2 593.473 1012.65 584.299 1005.3 576.158C1002.08 572.67 996.4 568.664 989.564 565.821C989.435 562.979 989.177 560.265 989.048 557.81C988.919 554.063 988.919 550.833 988.919 547.861C988.919 545.147 989.306 543.726 989.693 541.788C990.983 534.035 979.633 532.355 978.085 539.462C977.569 541.917 977.311 545.535 977.44 548.119C977.569 551.35 977.827 554.58 977.827 557.81C977.827 559.49 977.827 560.911 977.827 562.333C969.83 560.911 961.06 561.17 953.063 564.788C939.778 570.731 941.197 584.686 953.192 590.759C968.799 598.641 984.921 589.596 988.661 579.259ZM977.182 573.186C977.053 573.574 977.182 574.091 977.053 574.479C975.634 581.456 965.187 585.203 957.448 581.327C953.579 579.389 953.837 575.641 957.319 573.832C963.639 570.731 970.604 570.99 977.182 573.186Z" fill="#2A6C61"/>
</g>
<g filter="url(#filter7_d)">
<path d="M1081.83 595.349C1111.83 572.955 1116.43 538.91 1107.11 512.762C1101.87 498.134 1085.28 492.827 1075.96 504.995C1074.68 506.678 1073.4 508.361 1075.06 504.866C1076.47 501.759 1078 497.228 1078.38 492.827C1079.02 485.06 1066.64 483.507 1065.62 491.662C1064.6 499.558 1062.17 508.102 1060.77 514.704C1059.23 521.953 1057.06 534.38 1057.83 544.606C1058.59 553.926 1072.38 554.056 1071.74 541.499C1071.11 530.237 1071.36 524.93 1075.06 517.034C1078.77 509.008 1090.89 504.218 1095.11 517.163C1103.92 544.218 1092.68 572.178 1072.89 585.252C1062.17 592.372 1071.49 603.116 1081.83 595.349Z" fill="#2A6C61"/>
</g>
<g filter="url(#filter8_d)">
<path d="M1244.33 536.649C1252.41 539.336 1255.86 528.075 1247.28 525.003C1234.72 520.524 1223.07 522.06 1216.53 524.363C1208.08 527.307 1212.05 537.801 1218.71 535.369C1225.5 532.81 1237.16 534.217 1244.33 536.649ZM1244.33 588.479C1252.79 586.815 1252.02 574.529 1242.67 575.297C1227.68 576.577 1219.86 577.217 1213.33 570.562C1206.67 563.78 1198.72 573.89 1204.23 580.032C1209.87 586.303 1225.76 592.19 1244.33 588.479ZM1196.55 521.42C1201.29 520.012 1205.9 518.092 1209.49 516.301C1219.09 511.566 1211.15 500.944 1204.49 505.295C1202.95 506.191 1201.41 507.087 1199.62 507.982C1200 504.399 1200 500.944 1199.49 497.744C1198.21 490.706 1186.17 491.09 1186.68 498.384C1187.06 504.015 1187.58 507.471 1186.81 512.206C1180.79 513.357 1174.51 513.357 1169.13 511.438C1159.52 507.982 1158.24 519.628 1164.77 522.444C1170.15 524.747 1176.69 525.003 1183.48 524.235C1175.66 549.062 1166.56 568.515 1161.06 579.776C1155.67 590.654 1169.26 594.366 1173.1 585.791C1179.38 571.586 1188.47 549.446 1196.55 521.42Z" fill="#2A6C61"/>
</g>
<g filter="url(#filter9_d)">
<path d="M1387.69 548.406C1386.41 537.496 1377.58 525.432 1368.5 518.63C1360.82 512.854 1353.91 522.352 1360.06 526.587C1366.97 531.336 1372.21 541.218 1374.26 551.486C1376.05 560.342 1388.72 557.775 1387.69 548.406ZM1331.78 569.583C1333.19 567.272 1335.49 563.294 1336.77 559.7C1339.2 553.026 1328.58 547.636 1325.13 555.08C1324.23 557.133 1322.44 560.47 1320.9 562.652C1318.09 566.502 1316.43 566.117 1313.1 562.909C1305.94 555.978 1303.5 543.272 1302.99 529.796C1302.74 523.892 1303.25 523.635 1302.99 518.63C1302.61 509.004 1290.2 510.672 1289.94 518.758C1289.81 523.379 1290.07 525.689 1290.58 533.004C1291.61 549.176 1295.83 564.064 1305.04 574.075C1312.2 581.775 1323.59 582.931 1331.78 569.583Z" fill="#2A6C61"/>
</g>
<g filter="url(#filter10_d)">
<path d="M1434.68 562.836C1434.68 571.434 1440.44 575.871 1446.21 575.871C1458.29 575.871 1458.29 564.223 1458.29 557.567C1458.29 530.666 1462.69 454.401 1462.69 421.677C1462.69 410.861 1454.45 405.592 1446.21 405.592C1438.25 405.592 1430.28 410.584 1430.28 420.845C1430.28 421.122 1430.28 421.399 1430.28 421.677C1431.93 465.217 1434.68 529.834 1434.68 556.735C1434.68 558.954 1434.68 560.895 1434.68 562.559V562.836ZM1465.44 614.697C1465.44 602.217 1457.2 595.561 1446.48 595.561C1439.07 595.561 1427.53 602.494 1427.53 614.697C1427.53 624.126 1436.05 633 1446.48 633C1453.9 633 1465.44 628.008 1465.44 614.697Z" fill="#2A6C61"/>
</g>
<path d="M890.665 452.255C890.623 453.146 890.325 453.806 889.772 454.232C889.262 454.698 888.688 454.93 888.05 454.93C887.455 454.93 886.902 454.717 886.391 454.29C885.881 453.903 885.562 453.282 885.434 452.429C885.434 450.645 885.413 448.881 885.371 447.136C885.371 445.352 885.371 443.569 885.371 441.785C885.371 440.505 885.371 439.226 885.371 437.946C885.413 436.667 885.328 435.387 885.115 434.107C884.775 433.526 884.393 433.177 883.967 433.06C883.584 432.905 883.117 432.828 882.564 432.828C881.118 432.828 879.693 433.157 878.29 433.816C876.886 434.437 875.781 435.309 874.973 436.434C874.505 437.093 874.122 437.655 873.824 438.121C873.569 438.547 873.399 439.187 873.314 440.04C873.314 442.018 873.314 443.995 873.314 445.973C873.314 447.95 873.335 449.928 873.378 451.906C873.335 452.798 873.038 453.476 872.485 453.941C871.974 454.368 871.4 454.581 870.762 454.581C870.167 454.581 869.614 454.387 869.104 454C868.593 453.573 868.274 452.933 868.147 452.08C868.147 450.219 868.147 448.416 868.147 446.671C868.147 444.926 868.126 443.2 868.083 441.494C868.083 439.788 868.083 438.062 868.083 436.318C868.083 434.534 868.083 432.711 868.083 430.85C868.296 430.075 868.636 429.493 869.104 429.105C869.571 428.717 870.103 428.523 870.698 428.523C871.251 428.523 871.762 428.698 872.229 429.047C872.74 429.396 873.101 429.939 873.314 430.676V431.141C874.547 430.171 875.929 429.415 877.46 428.872C879.034 428.291 880.608 428 882.181 428C883.755 428 885.222 428.33 886.583 428.989C887.986 429.648 889.113 430.714 889.964 432.188C890.261 432.692 890.453 433.332 890.538 434.107C890.665 434.844 890.729 435.639 890.729 436.492C890.772 437.306 890.772 438.159 890.729 439.051C890.687 439.904 890.665 440.719 890.665 441.494V448.358V452.255Z" fill="#8F8F8F"/>
<path d="M963.323 452.293C963.323 452.331 963.302 452.349 963.26 452.349C963.513 452.874 963.576 453.36 963.45 453.809C963.323 454.259 963.071 454.614 962.691 454.876C962.354 455.176 961.891 455.363 961.301 455.438C960.754 455.513 960.143 455.401 959.469 455.101C959.09 454.764 958.732 454.408 958.395 454.034C958.058 453.622 957.763 453.21 957.51 452.799C956.668 453.435 955.762 454.034 954.793 454.596C953.824 455.12 952.856 455.401 951.887 455.438C950.202 455.513 948.538 455.532 946.895 455.494C945.252 455.457 943.694 454.97 942.219 454.034C940.998 453.248 940.05 452.312 939.376 451.226C938.744 450.141 938.323 448.999 938.112 447.801C937.944 446.566 937.965 445.311 938.176 444.039C938.386 442.766 938.744 441.549 939.25 440.389C939.46 439.864 939.734 439.359 940.071 438.872C940.408 438.386 940.745 437.88 941.082 437.356C941.545 436.608 942.072 435.915 942.662 435.279C943.251 434.605 943.925 434.024 944.684 433.538C945.231 433.201 945.758 432.864 946.263 432.527C946.811 432.19 947.358 431.872 947.906 431.572C948.285 431.348 948.854 431.123 949.612 430.898C950.412 430.636 951.255 430.431 952.139 430.281C953.066 430.094 953.972 430 954.856 430C955.783 430 956.562 430.112 957.194 430.337C957.784 430.262 958.353 430.393 958.9 430.73C959.49 431.067 959.932 431.61 960.227 432.358C960.227 434.904 960.206 437.469 960.164 440.052C960.122 442.635 960.311 445.199 960.733 447.745C960.775 448.082 960.922 448.494 961.175 448.98C961.47 449.429 961.765 449.879 962.06 450.328C962.397 450.777 962.691 451.189 962.944 451.563C963.197 451.938 963.323 452.181 963.323 452.293ZM955.299 448.419C955.383 448.381 955.446 448.344 955.488 448.306C955.53 448.269 955.594 448.231 955.678 448.194C955.13 445.948 954.856 443.627 954.856 441.231C954.899 438.798 954.941 436.57 954.983 434.549C954.604 434.549 954.182 434.586 953.719 434.661C953.256 434.736 952.792 434.848 952.329 434.998C951.908 435.11 951.508 435.222 951.129 435.335C950.792 435.447 950.539 435.541 950.37 435.615C949.107 436.14 948.032 436.832 947.148 437.693C946.263 438.517 945.526 439.453 944.936 440.501C944.389 441.512 943.968 442.597 943.673 443.758C943.378 444.881 943.23 446.023 943.23 447.183C943.315 447.483 943.42 447.782 943.546 448.082C943.673 448.381 943.778 448.681 943.862 448.98C944.073 449.167 944.283 449.373 944.494 449.598C944.747 449.823 945 450.028 945.252 450.216C945.631 450.365 946.01 450.496 946.39 450.609C946.769 450.721 947.148 450.833 947.527 450.946C948.243 450.946 948.938 450.964 949.612 451.002C950.286 451.039 950.96 450.964 951.634 450.777C952.266 450.403 952.877 450.028 953.466 449.654C954.098 449.28 954.709 448.868 955.299 448.419Z" fill="#8F8F8F"/>
<path d="M1012.86 434.092C1012.22 433.788 1011.75 433.428 1011.45 433.01C1011.15 432.593 1011 432.175 1011 431.758C1011 431.188 1011.24 430.695 1011.71 430.277C1012.18 429.822 1012.82 429.594 1013.63 429.594C1014.23 429.594 1014.98 429.784 1015.88 430.164C1016.78 430.543 1017.49 430.961 1018 431.416C1019.33 430.429 1020.7 429.613 1022.11 428.968C1023.53 428.323 1024.96 428 1026.42 428C1026.85 428 1027.47 428.095 1028.28 428.285C1029.1 428.474 1029.89 428.759 1030.66 429.139C1031.47 429.518 1032.18 430.012 1032.78 430.619C1033.38 431.226 1033.68 431.929 1033.68 432.726C1033.68 433.371 1033.44 433.902 1032.97 434.32C1032.5 434.699 1031.92 434.889 1031.24 434.889C1030.77 434.889 1030.34 434.775 1029.95 434.548C1029.61 434.282 1029.25 434.016 1028.86 433.75C1028.52 433.447 1028.13 433.181 1027.7 432.953C1027.32 432.726 1026.87 432.612 1026.35 432.612C1025.75 432.612 1025.09 432.783 1024.36 433.124C1023.68 433.428 1022.97 433.807 1022.24 434.263C1021.56 434.718 1020.89 435.212 1020.25 435.743C1019.61 436.275 1019.05 436.749 1018.58 437.167V452.311C1018.54 453.184 1018.24 453.829 1017.68 454.247C1017.17 454.702 1016.59 454.93 1015.95 454.93C1015.35 454.93 1014.79 454.721 1014.28 454.304C1013.76 453.924 1013.44 453.317 1013.31 452.482V436.939C1013.31 436.863 1013.29 436.787 1013.25 436.711C1013.25 436.597 1013.25 436.502 1013.25 436.426C1013.25 436.35 1013.25 436.275 1013.25 436.199C1013.29 436.085 1013.31 435.99 1013.31 435.914V434.263C1013.14 434.187 1012.99 434.13 1012.86 434.092Z" fill="#8F8F8F"/>
<path d="M1086.38 452.215C1086.34 453.094 1086.07 453.744 1085.56 454.164C1085.09 454.623 1084.57 454.852 1083.98 454.852C1083.44 454.852 1082.93 454.642 1082.46 454.221C1081.99 453.839 1081.7 453.228 1081.58 452.387C1081.55 448.796 1081.51 445.128 1081.47 441.383C1081.47 437.639 1081.45 433.971 1081.41 430.379C1081.6 429.615 1081.92 429.042 1082.34 428.66C1082.77 428.278 1083.26 428.087 1083.81 428.087C1084.31 428.087 1084.78 428.259 1085.21 428.603C1085.68 428.947 1086.01 429.482 1086.2 430.208C1086.24 433.799 1086.26 437.467 1086.26 441.212C1086.3 444.956 1086.34 448.624 1086.38 452.215ZM1081 421.038C1081 420.197 1081.27 419.49 1081.82 418.917C1082.36 418.306 1083.03 418 1083.81 418C1084.58 418 1085.25 418.306 1085.79 418.917C1086.38 419.49 1086.67 420.197 1086.67 421.038C1086.67 421.84 1086.38 422.547 1085.79 423.158C1085.25 423.731 1084.58 424.018 1083.81 424.018C1083.03 424.018 1082.36 423.731 1081.82 423.158C1081.27 422.547 1081 421.84 1081 421.038Z" fill="#8F8F8F"/>
<path d="M1136.88 435.047C1135.9 434.933 1135.16 434.646 1134.67 434.188C1134.22 433.729 1134 433.233 1134 432.698C1134 432.163 1134.25 431.647 1134.74 431.15C1135.27 430.615 1136.06 430.348 1137.09 430.348H1140.84V421.292C1141.06 420.528 1141.42 419.955 1141.91 419.573C1142.41 419.191 1142.96 419 1143.59 419C1144.17 419 1144.71 419.172 1145.2 419.516C1145.74 419.86 1146.12 420.395 1146.34 421.121V430.348H1152.78C1153.63 430.539 1154.25 430.864 1154.66 431.322C1155.06 431.742 1155.26 432.201 1155.26 432.698C1155.26 433.233 1155.04 433.71 1154.59 434.13C1154.14 434.551 1153.47 434.856 1152.58 435.047H1146.34C1146.3 437.99 1146.3 441.027 1146.34 444.16C1146.39 447.255 1146.41 450.273 1146.41 453.215C1146.41 454.094 1146.09 454.763 1145.47 455.221C1144.89 455.642 1144.28 455.852 1143.66 455.852C1143.03 455.852 1142.45 455.642 1141.91 455.221C1141.38 454.839 1141.04 454.228 1140.91 453.387C1140.91 450.407 1140.89 447.351 1140.84 444.217C1140.84 441.084 1140.84 438.028 1140.84 435.047H1136.88Z" fill="#8F8F8F"/>
<path d="M1228.73 453.293C1228.73 453.331 1228.71 453.349 1228.66 453.349C1228.93 453.874 1229 454.36 1228.86 454.809C1228.73 455.259 1228.46 455.614 1228.06 455.876C1227.71 456.176 1227.22 456.363 1226.6 456.438C1226.02 456.513 1225.37 456.401 1224.66 456.101C1224.26 455.764 1223.88 455.408 1223.53 455.034C1223.17 454.622 1222.86 454.21 1222.59 453.799C1221.7 454.435 1220.75 455.034 1219.73 455.596C1218.7 456.12 1217.68 456.401 1216.66 456.438C1214.88 456.513 1213.12 456.532 1211.39 456.494C1209.66 456.457 1208.01 455.97 1206.45 455.034C1205.16 454.248 1204.16 453.312 1203.45 452.226C1202.79 451.141 1202.34 449.999 1202.12 448.801C1201.94 447.566 1201.96 446.311 1202.19 445.039C1202.41 443.766 1202.79 442.549 1203.32 441.389C1203.54 440.864 1203.83 440.359 1204.19 439.872C1204.54 439.386 1204.9 438.88 1205.25 438.356C1205.74 437.608 1206.3 436.915 1206.92 436.279C1207.54 435.605 1208.25 435.024 1209.05 434.538C1209.63 434.201 1210.19 433.864 1210.72 433.527C1211.3 433.19 1211.88 432.872 1212.46 432.572C1212.86 432.348 1213.46 432.123 1214.26 431.898C1215.1 431.636 1215.99 431.431 1216.92 431.281C1217.9 431.094 1218.86 431 1219.79 431C1220.77 431 1221.59 431.112 1222.26 431.337C1222.88 431.262 1223.48 431.393 1224.06 431.73C1224.68 432.067 1225.15 432.61 1225.46 433.358C1225.46 435.904 1225.44 438.469 1225.4 441.052C1225.35 443.635 1225.55 446.199 1226 448.745C1226.04 449.082 1226.2 449.494 1226.46 449.98C1226.77 450.429 1227.08 450.879 1227.4 451.328C1227.75 451.777 1228.06 452.189 1228.33 452.563C1228.6 452.938 1228.73 453.181 1228.73 453.293ZM1220.26 449.419C1220.35 449.381 1220.42 449.344 1220.46 449.306C1220.5 449.269 1220.57 449.231 1220.66 449.194C1220.08 446.948 1219.79 444.627 1219.79 442.231C1219.84 439.798 1219.88 437.57 1219.93 435.549C1219.53 435.549 1219.08 435.586 1218.59 435.661C1218.1 435.736 1217.61 435.848 1217.13 435.998C1216.68 436.11 1216.26 436.222 1215.86 436.335C1215.5 436.447 1215.24 436.541 1215.06 436.615C1213.72 437.14 1212.59 437.832 1211.66 438.693C1210.72 439.517 1209.94 440.453 1209.32 441.501C1208.74 442.512 1208.3 443.597 1207.99 444.758C1207.68 445.881 1207.52 447.023 1207.52 448.183C1207.61 448.483 1207.72 448.782 1207.85 449.082C1207.99 449.381 1208.1 449.681 1208.19 449.98C1208.41 450.167 1208.63 450.373 1208.85 450.598C1209.12 450.823 1209.39 451.028 1209.66 451.216C1210.06 451.365 1210.46 451.496 1210.86 451.609C1211.26 451.721 1211.66 451.833 1212.06 451.946C1212.81 451.946 1213.55 451.964 1214.26 452.002C1214.97 452.039 1215.68 451.964 1216.39 451.777C1217.06 451.403 1217.7 451.028 1218.33 450.654C1218.99 450.28 1219.64 449.868 1220.26 449.419Z" fill="#8F8F8F"/>
<path d="M1278.79 445.67C1277.84 445.533 1277.12 445.191 1276.65 444.645C1276.22 444.098 1276 443.506 1276 442.869C1276 442.231 1276.24 441.617 1276.71 441.025C1277.23 440.387 1277.99 440.068 1278.98 440.068C1279.5 440.068 1280.58 440.068 1282.22 440.068C1283.9 440.068 1285.7 440.068 1287.6 440.068C1289.54 440.023 1291.33 440 1292.98 440C1294.66 440 1295.76 440 1296.28 440C1297.1 440.228 1297.71 440.615 1298.09 441.161C1298.48 441.662 1298.68 442.209 1298.68 442.801C1298.68 443.438 1298.46 444.007 1298.03 444.508C1297.6 445.009 1296.95 445.374 1296.09 445.601C1293.19 445.601 1290.3 445.624 1287.4 445.67C1284.55 445.67 1281.68 445.67 1278.79 445.67Z" fill="#8F8F8F"/>
<path d="M1351.38 452.215C1351.34 453.094 1351.07 453.744 1350.56 454.164C1350.09 454.623 1349.57 454.852 1348.98 454.852C1348.44 454.852 1347.93 454.642 1347.46 454.221C1346.99 453.839 1346.7 453.228 1346.58 452.387C1346.55 448.796 1346.51 445.128 1346.47 441.383C1346.47 437.639 1346.45 433.971 1346.41 430.379C1346.6 429.615 1346.92 429.042 1347.34 428.66C1347.77 428.278 1348.26 428.087 1348.81 428.087C1349.31 428.087 1349.78 428.259 1350.21 428.603C1350.68 428.947 1351.01 429.482 1351.2 430.208C1351.24 433.799 1351.26 437.467 1351.26 441.212C1351.3 444.956 1351.34 448.624 1351.38 452.215ZM1346 421.038C1346 420.197 1346.27 419.49 1346.82 418.917C1347.36 418.306 1348.03 418 1348.81 418C1349.58 418 1350.25 418.306 1350.79 418.917C1351.38 419.49 1351.67 420.197 1351.67 421.038C1351.67 421.84 1351.38 422.547 1350.79 423.158C1350.25 423.731 1349.58 424.018 1348.81 424.018C1348.03 424.018 1347.36 423.731 1346.82 423.158C1346.27 422.547 1346 421.84 1346 421.038Z" fill="#8F8F8F"/>
<defs>
<filter id="filter0_d" x="376.092" y="437.676" width="85.3956" height="86.2336" filterUnits="userSpaceOnUse" color-interpolation-filters="sRGB">
<feFlood flood-opacity="0" result="BackgroundImageFix"/>
<feColorMatrix in="SourceAlpha" type="matrix" values="0 0 0 0 0 0 0 0 0 0 0 0 0 0 0 0 0 0 127 0"/>
<feOffset dx="1.80483" dy="3.60966"/>
<feGaussianBlur stdDeviation="3.60966"/>
<feColorMatrix type="matrix" values="0 0 0 0 0 0 0 0 0 0 0 0 0 0 0 0 0 0 0.25 0"/>
<feBlend mode="normal" in2="BackgroundImageFix" result="effect1_dropShadow"/>
<feBlend mode="normal" in="SourceGraphic" in2="effect1_dropShadow" result="shape"/>
</filter>
<filter id="filter1_d" x="453.689" y="475.2" width="87.3804" height="88.1872" filterUnits="userSpaceOnUse" color-interpolation-filters="sRGB">
<feFlood flood-opacity="0" result="BackgroundImageFix"/>
<feColorMatrix in="SourceAlpha" type="matrix" values="0 0 0 0 0 0 0 0 0 0 0 0 0 0 0 0 0 0 127 0"/>
<feOffset dx="1.80483" dy="3.60966"/>
<feGaussianBlur stdDeviation="3.60966"/>
<feColorMatrix type="matrix" values="0 0 0 0 0 0 0 0 0 0 0 0 0 0 0 0 0 0 0.25 0"/>
<feBlend mode="normal" in2="BackgroundImageFix" result="effect1_dropShadow"/>
<feBlend mode="normal" in="SourceGraphic" in2="effect1_dropShadow" result="shape"/>
</filter>
<filter id="filter2_d" x="513.847" y="409.521" width="52.4816" height="79.6855" filterUnits="userSpaceOnUse" color-interpolation-filters="sRGB">
<feFlood flood-opacity="0" result="BackgroundImageFix"/>
<feColorMatrix in="SourceAlpha" type="matrix" values="0 0 0 0 0 0 0 0 0 0 0 0 0 0 0 0 0 0 127 0"/>
<feOffset dx="1.80483" dy="3.60966"/>
<feGaussianBlur stdDeviation="3.60966"/>
<feColorMatrix type="matrix" values="0 0 0 0 0 0 0 0 0 0 0 0 0 0 0 0 0 0 0.25 0"/>
<feBlend mode="normal" in2="BackgroundImageFix" result="effect1_dropShadow"/>
<feBlend mode="normal" in="SourceGraphic" in2="effect1_dropShadow" result="shape"/>
</filter>
<filter id="filter3_d" x="390.158" y="407.708" width="273.536" height="232.299" filterUnits="userSpaceOnUse" color-interpolation-filters="sRGB">
<feFlood flood-opacity="0" result="BackgroundImageFix"/>
<feColorMatrix in="SourceAlpha" type="matrix" values="0 0 0 0 0 0 0 0 0 0 0 0 0 0 0 0 0 0 127 0"/>
<feOffset dx="9.02415" dy="14.4386"/>
<feGaussianBlur stdDeviation="3.60966"/>
<feColorMatrix type="matrix" values="0 0 0 0 0 0 0 0 0 0 0 0 0 0 0 0 0 0 0.25 0"/>
<feBlend mode="normal" in2="BackgroundImageFix" result="effect1_dropShadow"/>
<feBlend mode="normal" in="SourceGraphic" in2="effect1_dropShadow" result="shape"/>
</filter>
<filter id="filter4_d" x="646.947" y="407.742" width="158.869" height="231.368" filterUnits="userSpaceOnUse" color-interpolation-filters="sRGB">
<feFlood flood-opacity="0" result="BackgroundImageFix"/>
<feColorMatrix in="SourceAlpha" type="matrix" values="0 0 0 0 0 0 0 0 0 0 0 0 0 0 0 0 0 0 127 0"/>
<feOffset dx="9.02415" dy="14.4386"/>
<feGaussianBlur stdDeviation="3.60966"/>
<feColorMatrix type="matrix" values="0 0 0 0 0 0 0 0 0 0 0 0 0 0 0 0 0 0 0.25 0"/>
<feBlend mode="normal" in2="BackgroundImageFix" result="effect1_dropShadow"/>
<feBlend mode="normal" in="SourceGraphic" in2="effect1_dropShadow" result="shape"/>
</filter>
<filter id="filter5_d" x="816.788" y="554.312" width="85.401" height="85.401" filterUnits="userSpaceOnUse" color-interpolation-filters="sRGB">
<feFlood flood-opacity="0" result="BackgroundImageFix"/>
<feColorMatrix in="SourceAlpha" type="matrix" values="0 0 0 0 0 0 0 0 0 0 0 0 0 0 0 0 0 0 127 0"/>
<feOffset dx="1.80483" dy="5.41449"/>
<feGaussianBlur stdDeviation="3.60966"/>
<feColorMatrix type="matrix" values="0 0 0 0 0 0 0 0 0 0 0 0 0 0 0 0 0 0 0.25 0"/>
<feBlend mode="normal" in2="BackgroundImageFix" result="effect1_dropShadow"/>
<feBlend mode="normal" in="SourceGraphic" in2="effect1_dropShadow" result="shape"/>
</filter>
<filter id="filter6_d" x="920.006" y="486.577" width="103.679" height="119.807" filterUnits="userSpaceOnUse" color-interpolation-filters="sRGB">
<feFlood flood-opacity="0" result="BackgroundImageFix"/>
<feColorMatrix in="SourceAlpha" type="matrix" values="0 0 0 0 0 0 0 0 0 0 0 0 0 0 0 0 0 0 127 0"/>
<feOffset dx="1.80483" dy="5.41449"/>
<feGaussianBlur stdDeviation="3.60966"/>
<feColorMatrix type="matrix" values="0 0 0 0 0 0 0 0 0 0 0 0 0 0 0 0 0 0 0.25 0"/>
<feBlend mode="normal" in2="BackgroundImageFix" result="effect1_dropShadow"/>
<feBlend mode="normal" in="SourceGraphic" in2="effect1_dropShadow" result="shape"/>
</filter>
<filter id="filter7_d" x="1052.26" y="484.426" width="68.198" height="126.258" filterUnits="userSpaceOnUse" color-interpolation-filters="sRGB">
<feFlood flood-opacity="0" result="BackgroundImageFix"/>
<feColorMatrix in="SourceAlpha" type="matrix" values="0 0 0 0 0 0 0 0 0 0 0 0 0 0 0 0 0 0 127 0"/>
<feOffset dx="1.80483" dy="5.41449"/>
<feGaussianBlur stdDeviation="3.60966"/>
<feColorMatrix type="matrix" values="0 0 0 0 0 0 0 0 0 0 0 0 0 0 0 0 0 0 0.25 0"/>
<feBlend mode="normal" in2="BackgroundImageFix" result="effect1_dropShadow"/>
<feBlend mode="normal" in="SourceGraphic" in2="effect1_dropShadow" result="shape"/>
</filter>
<filter id="filter8_d" x="1154.4" y="490.878" width="106.905" height="112.281" filterUnits="userSpaceOnUse" color-interpolation-filters="sRGB">
<feFlood flood-opacity="0" result="BackgroundImageFix"/>
<feColorMatrix in="SourceAlpha" type="matrix" values="0 0 0 0 0 0 0 0 0 0 0 0 0 0 0 0 0 0 127 0"/>
<feOffset dx="1.80483" dy="5.41449"/>
<feGaussianBlur stdDeviation="3.60966"/>
<feColorMatrix type="matrix" values="0 0 0 0 0 0 0 0 0 0 0 0 0 0 0 0 0 0 0.25 0"/>
<feBlend mode="normal" in2="BackgroundImageFix" result="effect1_dropShadow"/>
<feBlend mode="normal" in="SourceGraphic" in2="effect1_dropShadow" result="shape"/>
</filter>
<filter id="filter9_d" x="1284.49" y="510.23" width="112.281" height="82.1755" filterUnits="userSpaceOnUse" color-interpolation-filters="sRGB">
<feFlood flood-opacity="0" result="BackgroundImageFix"/>
<feColorMatrix in="SourceAlpha" type="matrix" values="0 0 0 0 0 0 0 0 0 0 0 0 0 0 0 0 0 0 127 0"/>
<feOffset dx="1.80483" dy="5.41449"/>
<feGaussianBlur stdDeviation="3.60966"/>
<feColorMatrix type="matrix" values="0 0 0 0 0 0 0 0 0 0 0 0 0 0 0 0 0 0 0.25 0"/>
<feBlend mode="normal" in2="BackgroundImageFix" result="effect1_dropShadow"/>
<feBlend mode="normal" in="SourceGraphic" in2="effect1_dropShadow" result="shape"/>
</filter>
<filter id="filter10_d" x="1422.12" y="403.787" width="52.34" height="241.847" filterUnits="userSpaceOnUse" color-interpolation-filters="sRGB">
<feFlood flood-opacity="0" result="BackgroundImageFix"/>
<feColorMatrix in="SourceAlpha" type="matrix" values="0 0 0 0 0 0 0 0 0 0 0 0 0 0 0 0 0 0 127 0"/>
<feOffset dx="1.80483" dy="5.41449"/>
<feGaussianBlur stdDeviation="3.60966"/>
<feColorMatrix type="matrix" values="0 0 0 0 0 0 0 0 0 0 0 0 0 0 0 0 0 0 0.25 0"/>
<feBlend mode="normal" in2="BackgroundImageFix" result="effect1_dropShadow"/>
<feBlend mode="normal" in="SourceGraphic" in2="effect1_dropShadow" result="shape"/>
</filter>
</defs>
</svg>
