<svg width="430" height="106" viewBox="0 0 430 106" fill="none" xmlns="http://www.w3.org/2000/svg">
<path d="M25.9446 37.6571V62.6171C24.9417 67.2971 22.4903 70.4171 18.3674 70.4171C14.6903 70.4171 12.9074 67.52 12.9074 64.1771V37.6571H0.204572V65.5143C0.204572 73.8714 6.33314 81.1143 15.0246 81.1143C19.2589 81.1143 23.3817 79.4429 25.9446 75.9886V88.0229C25.9446 91.8114 22.4903 95.2657 18.7017 95.2657L23.4931 105.851C32.6303 105.851 38.6474 96.2686 38.6474 88.0229V37.6571H25.9446ZM73.5637 81.0029C76.7952 81.0029 79.5809 80.2229 82.1437 78.2171V67.9657C80.4723 68.9686 78.4666 69.86 76.4609 69.86C72.7837 69.86 71.3352 66.74 71.3352 63.3971V49.58H82.1437V37.6571H71.3352V17.7114H58.6323V37.6571H48.158V49.58H58.6323V65.18C58.6323 74.7629 63.6466 81.0029 73.5637 81.0029ZM112.075 36.6543C99.8174 36.6543 89.9002 46.6829 89.9002 58.94C89.9002 71.0857 99.8174 81.1143 112.075 81.1143C124.332 81.1143 134.249 71.0857 134.249 58.94C134.249 46.6829 124.332 36.6543 112.075 36.6543ZM112.075 70.3057C105.723 70.3057 101.043 65.18 101.043 58.94C101.043 53.0343 105.166 47.7971 111.295 47.4629C110.849 48.4657 110.626 49.58 110.626 50.8057C110.626 55.5971 114.637 59.4971 119.429 59.4971C120.877 59.4971 122.326 59.0514 123.552 58.3829V58.94C123.552 65.18 118.426 70.3057 112.075 70.3057ZM166.846 41C164.506 41 161.052 41.78 158.377 44.0086C160.717 38.7714 165.509 33.7571 175.315 28.2971L167.737 18.7143C154.143 27.1829 143.112 39.8857 143.112 56.7114C143.112 70.64 151.135 81.1143 165.732 81.1143C176.875 81.1143 186.792 72.5343 186.792 61.1686C186.792 49.6914 178.435 41 166.846 41ZM165.175 69.86C160.272 69.86 156.149 66.0714 156.149 60.7229C156.149 55.7086 160.272 51.8086 165.175 51.8086C170.189 51.8086 174.2 55.82 174.2 60.8343C174.2 65.8486 170.189 69.86 165.175 69.86ZM218.625 81.1143C235.005 81.1143 241.579 64.2886 241.579 50.36C241.579 36.4314 235.005 19.6057 218.625 19.6057C202.245 19.6057 195.67 36.4314 195.67 50.36C195.67 64.2886 202.245 81.1143 218.625 81.1143ZM218.625 31.4171C226.982 31.4171 228.876 44.2314 228.876 50.36C228.876 56.4886 226.982 69.3029 218.625 69.3029C210.156 69.3029 208.373 56.4886 208.373 50.36C208.373 44.2314 210.156 31.4171 218.625 31.4171ZM261.434 81.0029C266.225 81.0029 270.125 77.1029 270.125 72.3114C270.125 67.4086 266.225 63.5086 261.434 63.5086C256.531 63.5086 252.631 67.4086 252.631 72.3114C252.631 77.1029 256.531 81.0029 261.434 81.0029ZM332.012 69.7486C329.56 69.7486 327.555 68.3 327.555 65.7371V0.885708H314.852V42.56C311.509 38.5486 306.94 36.7657 301.703 36.7657C289.223 36.7657 281.2 46.9057 281.2 58.8286C281.2 70.8629 289.223 81.0029 301.703 81.0029C307.72 81.0029 312.846 78.5514 316.078 73.4257C318.083 78.2171 322.429 81.0029 326.998 81.0029C330.34 81.0029 334.018 80.2229 336.692 78.2171V67.9657C335.355 69.08 333.683 69.7486 332.012 69.7486ZM304.712 70.4171C298.472 70.4171 293.792 64.9571 293.792 58.8286C293.792 52.7 298.472 47.24 304.712 47.24C309.28 47.24 313.292 50.2486 314.852 54.4829V63.1743C313.292 67.4086 309.169 70.4171 304.712 70.4171ZM359.879 69.3029L382.164 47.0171C377.261 39.9971 371.133 36.7657 362.553 36.7657C350.853 36.7657 341.159 46.9057 341.159 58.4943C341.159 72.5343 352.301 81.0029 365.673 81.0029C369.461 81.0029 374.141 80.2229 377.596 78.5514V66.2943C374.253 69.1914 369.907 70.3057 365.673 70.3057C363.556 70.3057 361.661 69.9714 359.879 69.3029ZM361.996 47.4629C363.444 47.4629 365.784 47.7971 366.899 48.9114L353.304 63.0629C352.747 61.7257 352.413 60.1657 352.413 58.4943C352.413 52.7 355.756 47.4629 361.996 47.4629ZM420.047 36.7657C414.475 36.7657 410.018 41.2229 410.018 46.6829C410.018 51.92 414.029 56.2657 419.155 56.6V61.9486C419.155 66.6286 416.369 70.4171 411.467 70.4171C406.564 70.4171 403.778 66.6286 403.778 61.9486V37.6571H391.075V63.5086C391.075 74.9857 399.655 81.1143 410.575 81.1143C421.384 81.1143 429.964 74.9857 429.964 63.5086V46.6829C429.964 41.2229 425.507 36.7657 420.047 36.7657Z" fill="#3B62B9"/>
</svg>
