<svg width="1664" height="871" viewBox="0 0 1664 871" fill="none" xmlns="http://www.w3.org/2000/svg">
<rect y="4" width="1664" height="866.383" fill="white"/>
<path d="M1446.96 261.347C1453.73 258.515 1459.11 257.53 1463.1 258.391C1467.06 259.196 1470.28 261.837 1472.76 266.315C1475.21 270.737 1475.53 275.069 1473.71 279.311C1471.89 283.553 1467.92 287.462 1461.78 291.036C1457.24 293.677 1452.43 295.886 1447.34 297.663C1445.86 298.156 1444.37 298.101 1442.86 297.497C1441.41 296.86 1440.28 295.814 1439.48 294.359L1438.26 292.176C1437.61 291.001 1437.57 289.804 1438.14 288.585C1438.71 287.365 1439.62 286.574 1440.88 286.21C1445.59 284.802 1449.77 283.035 1453.42 280.91C1456.46 279.139 1457.48 277.357 1456.49 275.566C1456.03 274.727 1455.44 274.256 1454.72 274.154C1454.01 274.052 1452.84 274.324 1451.22 274.97C1444.52 277.537 1439.11 278.394 1434.98 277.541C1430.9 276.657 1427.72 274.143 1425.42 270.002C1423.06 265.748 1422.83 261.512 1424.74 257.293C1426.7 253.042 1430.94 249.017 1437.47 245.217C1441.78 242.705 1445.92 240.666 1449.88 239.101C1451.39 238.519 1452.85 238.519 1454.27 239.099C1455.74 239.648 1456.87 240.621 1457.64 242.021L1458.62 243.784C1459.27 244.959 1459.32 246.228 1458.76 247.592C1458.22 248.867 1457.31 249.73 1456.02 250.183C1452.28 251.476 1448.63 253.152 1445.1 255.213C1443.27 256.276 1442.11 257.213 1441.6 258.023C1441.1 258.834 1441.1 259.687 1441.6 260.582C1442.53 262.261 1444.32 262.516 1446.96 261.347Z" fill="#C4C4C4"/>
<path d="M1408.72 610.173C1409.99 609.433 1411.36 609.264 1412.83 609.668C1414.3 610.072 1415.39 610.918 1416.1 612.205L1435 646.291C1435.72 647.579 1435.87 648.972 1435.46 650.471C1435.04 651.97 1434.2 653.09 1432.93 653.83L1427.29 657.115C1425.96 657.888 1424.58 658.1 1423.14 657.752C1421.67 657.348 1420.54 656.491 1419.74 655.179L1419.37 654.508C1419.34 654.452 1419.29 654.44 1419.24 654.472C1419.13 654.537 1419.09 654.597 1419.12 654.653C1418.02 660.847 1414.95 665.41 1409.92 668.34C1405.05 671.174 1400.78 671.848 1397.1 670.361C1393.48 668.842 1389.77 664.669 1385.99 657.84L1374.21 636.599C1373.49 635.312 1373.34 633.919 1373.75 632.42C1374.17 630.921 1375.01 629.801 1376.28 629.06L1382.17 625.631C1383.44 624.89 1384.81 624.722 1386.28 625.126C1387.75 625.53 1388.84 626.376 1389.55 627.663L1400.87 648.064C1402.3 650.639 1403.6 652.209 1404.8 652.774C1406.04 653.307 1407.5 653.09 1409.15 652.124C1410.7 651.222 1411.77 649.785 1412.36 647.813C1413.01 645.809 1412.93 644.079 1412.12 642.624L1400.34 621.383C1399.63 620.096 1399.48 618.703 1399.89 617.204C1400.3 615.705 1401.14 614.585 1402.41 613.844L1408.72 610.173Z" fill="#C4C4C4"/>
<path d="M805.247 79.8769C806.408 79.2007 807.612 79.129 808.859 79.6618C810.105 80.1947 810.873 81.1174 811.162 82.43L820.139 122.961C820.441 124.562 820.272 126.105 819.631 127.588C818.991 129.072 817.979 130.216 816.596 131.021L805.314 137.591C803.876 138.428 802.371 138.749 800.799 138.553C799.227 138.358 797.876 137.701 796.743 136.583L767.358 107.935C766.406 107.009 766.025 105.861 766.217 104.491C766.408 103.12 767.084 102.097 768.246 101.421L775.546 97.1701C776.874 96.3972 778.311 96.1526 779.859 96.4363C781.461 96.6878 782.773 97.4046 783.795 98.5869L805.87 124.939C805.901 124.995 805.945 125.006 806 124.974C806.055 124.942 806.067 124.898 806.036 124.842L795.244 91.9208C794.72 90.4487 794.735 88.959 795.29 87.4516C795.899 85.912 796.895 84.7396 798.278 83.9346L805.247 79.8769Z" fill="#C4C4C4"/>
<path d="M315.183 59.2071C316.344 58.5308 317.493 58.4913 318.629 59.0886C319.789 59.5977 320.514 60.5085 320.803 61.8212L331.487 126.014C331.734 127.648 331.494 129.194 330.767 130.654C330.071 132.17 329.032 133.33 327.649 134.135L320.514 138.289C319.353 138.966 318.176 139.021 316.985 138.456C315.88 137.915 315.254 136.984 315.107 135.663L313.133 119.042C313.065 118.786 312.968 118.546 312.844 118.322C312.72 118.098 312.568 117.89 312.388 117.698L276.75 87.4711C275.718 86.6653 275.27 85.5934 275.406 84.2555C275.542 82.9175 276.191 81.9104 277.352 81.2342L285.317 76.5969C286.644 75.824 288.081 75.5794 289.629 75.8631C291.232 76.1145 292.544 76.8314 293.565 78.0137L312.018 99.8111C312.049 99.867 312.092 99.8789 312.147 99.8467C312.202 99.8145 312.215 99.7704 312.184 99.7144L304.718 71.4085C304.305 69.872 304.419 68.362 305.06 66.8783C305.669 65.3387 306.665 64.1664 308.048 63.3613L315.183 59.2071Z" fill="#C4C4C4"/>
<path d="M1172.6 824.319L1167.47 815.084C1166.64 813.573 1165.1 812.58 1162.86 812.107C1160.68 811.601 1158.7 811.863 1156.93 812.893C1152.23 815.631 1151.9 820.637 1155.93 827.914C1157.95 831.552 1160.11 833.924 1162.4 835.03C1164.67 836.081 1166.88 835.978 1169.04 834.722C1170.81 833.691 1172.04 832.086 1172.73 829.905C1173.48 827.692 1173.43 825.83 1172.6 824.319ZM1168.55 791.69C1169.82 790.949 1171.19 790.781 1172.66 791.185C1174.13 791.589 1175.22 792.435 1175.93 793.722L1205.08 846.279C1205.79 847.566 1205.94 848.959 1205.53 850.458C1205.11 851.957 1204.27 853.077 1203 853.818L1196.7 857.489C1195.42 858.229 1194.05 858.398 1192.59 857.994C1191.12 857.59 1190.03 856.744 1189.31 855.457L1179.4 837.574C1179.37 837.518 1179.32 837.506 1179.27 837.538C1179.21 837.571 1179.17 837.631 1179.15 837.719C1177.25 843.267 1174.12 847.313 1169.75 849.857C1164.93 852.659 1159.85 852.99 1154.49 850.852C1149.19 848.682 1144.56 844.014 1140.58 836.85C1136.52 829.518 1134.91 823.051 1135.75 817.45C1136.57 811.793 1139.52 807.484 1144.61 804.521C1149.64 801.59 1155.03 801.226 1160.79 803.427C1160.88 803.451 1160.95 803.446 1161 803.414C1161.06 803.382 1161.07 803.338 1161.04 803.282L1160.67 802.61C1159.98 801.235 1159.85 799.826 1160.3 798.383C1160.71 796.884 1161.58 795.748 1162.91 794.975L1168.55 791.69Z" fill="#C4C4C4"/>
<path d="M1138.4 186.576L1157.54 198.532C1158.56 199.194 1159.06 200.161 1159.04 201.435C1158.98 202.653 1158.43 203.567 1157.38 204.179L1150.08 208.43C1148.69 209.235 1147.18 209.6 1145.52 209.525C1143.9 209.362 1142.43 208.769 1141.14 207.748L1131.61 200.076C1131.58 200.02 1131.54 200.008 1131.49 200.04C1131.43 200.073 1131.42 200.117 1131.45 200.173L1133.01 212.482C1133.2 214.147 1132.95 215.738 1132.25 217.254C1131.52 218.714 1130.44 219.862 1129 220.699L1122.03 224.757C1120.98 225.369 1119.93 225.388 1118.88 224.815C1117.8 224.185 1117.25 223.25 1117.22 222.008L1116.99 199.039C1117 198.518 1116.78 198.126 1116.34 197.863L1098.08 186.505C1097.05 185.844 1096.57 184.904 1096.63 183.687C1096.65 182.413 1097.19 181.47 1098.24 180.858L1105.54 176.608C1106.98 175.77 1108.51 175.433 1110.14 175.597C1111.73 175.704 1113.15 176.284 1114.4 177.338L1123.26 184.615C1123.29 184.671 1123.34 184.683 1123.39 184.651C1123.45 184.619 1123.46 184.575 1123.43 184.519L1121.86 172.99C1121.62 171.357 1121.86 169.811 1122.58 168.351C1123.28 166.835 1124.35 165.658 1125.78 164.821L1132.75 160.764C1133.8 160.152 1134.87 160.16 1135.95 160.79C1137 161.363 1137.54 162.271 1137.57 163.512L1137.74 185.401C1137.74 185.921 1137.96 186.313 1138.4 186.576Z" fill="#C4C4C4"/>
<path d="M187.595 543.319L182.474 534.084C181.574 532.461 180.048 531.424 177.896 530.974C175.8 530.492 173.811 530.798 171.931 531.893C167.23 534.631 166.897 539.637 170.931 546.914C172.949 550.552 175.106 552.924 177.402 554.03C179.667 555.081 181.878 554.978 184.035 553.722C185.916 552.627 187.19 551.033 187.859 548.941C188.583 546.816 188.495 544.942 187.595 543.319ZM172.842 491.38C174.114 490.64 175.484 490.471 176.952 490.875C178.419 491.279 179.51 492.125 180.224 493.412L209.833 546.808C210.547 548.096 210.698 549.489 210.285 550.988C209.873 552.487 209.03 553.607 207.758 554.347L202.532 557.39C201.204 558.163 199.822 558.376 198.385 558.028C196.918 557.624 195.784 556.766 194.983 555.455L194.611 554.783C194.58 554.727 194.537 554.715 194.481 554.748C194.426 554.78 194.386 554.84 194.362 554.928C193.316 561.09 190.111 565.733 184.746 568.857C179.934 571.659 174.85 571.99 169.494 569.852C164.193 567.682 159.556 563.014 155.583 555.85C151.518 548.518 149.907 542.051 150.752 536.45C151.566 530.793 154.517 526.484 159.606 523.521C164.03 520.945 169.011 520.229 174.548 521.373C174.634 521.397 174.705 521.393 174.76 521.361C174.816 521.329 174.828 521.285 174.797 521.229L164.461 502.59C163.748 501.303 163.597 499.91 164.01 498.411C164.422 496.912 165.265 495.792 166.537 495.051L172.842 491.38Z" fill="#C4C4C4"/>
<path d="M626.939 374.031C629.096 372.775 630.314 370.881 630.593 368.35C630.841 365.762 629.956 362.649 627.938 359.011C623.904 351.735 619.536 349.465 614.835 352.203C612.954 353.298 611.652 354.907 610.928 357.032C610.259 359.124 610.374 360.982 611.274 362.605L616.396 371.84C617.296 373.464 618.794 374.516 620.89 374.999C623.042 375.449 625.058 375.126 626.939 374.031ZM614.124 337.068C619.212 334.105 624.336 333.713 629.495 335.892C634.623 338.015 639.221 342.742 643.286 350.075C647.259 357.239 648.771 363.726 647.822 369.535C646.928 375.313 644.076 379.602 639.264 382.404C633.954 385.495 628.421 385.94 622.664 383.739C622.578 383.715 622.507 383.72 622.452 383.752C622.397 383.784 622.384 383.828 622.416 383.884L622.788 384.556C623.478 385.931 623.616 387.368 623.203 388.867C622.76 390.31 621.874 391.418 620.547 392.191L615.32 395.234C614.048 395.975 612.678 396.143 611.21 395.739C609.743 395.335 608.652 394.49 607.938 393.202L578.329 339.806C577.615 338.519 577.464 337.126 577.877 335.627C578.289 334.128 579.132 333.008 580.404 332.268L586.709 328.596C587.981 327.856 589.351 327.687 590.819 328.091C592.287 328.495 593.377 329.341 594.091 330.628L604.427 349.267C604.458 349.323 604.501 349.335 604.556 349.302C604.611 349.27 604.651 349.21 604.675 349.122C606.55 343.662 609.699 339.644 614.124 337.068Z" fill="#C4C4C4"/>
<path d="M1324.58 352.386C1325.67 351.454 1326.89 351.077 1328.24 351.258C1329.58 351.438 1330.59 352.144 1331.28 353.375L1332.49 355.558C1333.26 356.957 1333.5 358.446 1333.21 360.025C1332.97 361.571 1332.22 362.859 1330.96 363.888C1327.4 366.702 1324.26 368.898 1321.55 370.476C1314.2 374.759 1307.5 376.141 1301.46 374.621C1295.43 373.101 1290.33 368.592 1286.17 361.091C1282.1 353.759 1280.88 347.067 1282.5 341.016C1284.14 334.876 1288.5 329.745 1295.58 325.623C1298.29 324.045 1301.74 322.408 1305.92 320.714C1307.43 320.133 1308.89 320.132 1310.31 320.713C1311.79 321.261 1312.91 322.235 1313.69 323.634L1314.9 325.817C1315.58 327.048 1315.65 328.301 1315.12 329.576C1314.58 330.851 1313.64 331.731 1312.3 332.216C1309.81 333.144 1307.38 334.301 1305 335.686C1302.18 337.328 1300.56 339.419 1300.14 341.96C1299.78 344.468 1300.65 347.624 1302.76 351.43C1304.9 355.292 1307.17 357.672 1309.57 358.57C1312 359.38 1314.79 358.867 1317.94 357.031C1320.32 355.646 1322.53 354.098 1324.58 352.386Z" fill="#C4C4C4"/>
<path d="M361.582 749.147C363.595 750.27 365.763 750.156 368.086 748.803C370.409 747.45 371.615 745.601 371.703 743.254C371.761 740.851 370.595 737.494 368.205 733.185C365.815 728.875 363.614 726.159 361.601 725.035C359.557 723.856 357.373 723.943 355.05 725.295C352.728 726.648 351.537 728.526 351.48 730.929C351.391 733.275 352.541 736.604 354.931 740.914C357.321 745.223 359.538 747.968 361.582 749.147ZM335.841 730.039C337.533 723.722 341.919 718.503 348.998 714.381C356.078 710.259 362.698 709.07 368.86 710.813C374.99 712.501 380.026 716.899 383.968 724.007C387.91 731.115 389.034 737.827 387.342 744.144C385.619 750.404 381.218 755.595 374.138 759.717C367.059 763.839 360.454 765.057 354.323 763.369C348.162 761.626 343.11 757.2 339.169 750.091C335.227 742.983 334.118 736.299 335.841 730.039Z" fill="#C4C4C4"/>
<path d="M872.899 681.924C874.319 681.319 875.755 681.335 877.205 681.971C878.68 682.52 879.805 683.493 880.581 684.893L881.558 686.656C882.21 687.831 882.268 689.056 881.731 690.331C881.25 691.574 880.382 692.45 879.127 692.958C878.069 693.426 877.319 693.789 876.877 694.046C874.277 695.56 872.839 696.99 872.561 698.336C872.252 699.627 872.936 701.783 874.612 704.805L875.124 705.729C875.403 706.233 875.792 706.34 876.29 706.05L882.844 702.234C884.116 701.493 885.486 701.325 886.954 701.729C888.421 702.133 889.512 702.978 890.226 704.266L890.971 705.609C891.685 706.896 891.835 708.29 891.423 709.788C891.01 711.287 890.168 712.407 888.896 713.148L882.342 716.964C881.844 717.254 881.735 717.651 882.014 718.154L896.167 743.677C896.881 744.964 897.032 746.357 896.619 747.856C896.206 749.355 895.364 750.475 894.092 751.216L887.372 755.129C886.1 755.869 884.73 756.038 883.262 755.633C881.794 755.229 880.703 754.384 879.99 753.096L865.837 727.574C865.557 727.07 865.169 726.963 864.671 727.253L861.021 729.378C859.749 730.119 858.379 730.287 856.911 729.883C855.443 729.479 854.352 728.634 853.638 727.346L852.893 726.003C852.18 724.716 852.029 723.323 852.442 721.824C852.854 720.325 853.696 719.205 854.969 718.464L858.619 716.339C859.117 716.049 859.226 715.652 858.947 715.148L858.434 714.225C854.896 707.844 853.77 702.317 855.057 697.644C856.343 692.971 860.139 688.799 866.444 685.127C868.38 684 870.531 682.933 872.899 681.924Z" fill="#C4C4C4"/>
<path d="M890.835 353.123L886.877 345.987C885.791 344.028 884.271 342.803 882.316 342.312C880.33 341.766 878.396 342.04 876.516 343.135C872.091 345.711 871.741 350.358 875.466 357.074C877.235 360.264 879.15 362.333 881.212 363.28C883.329 364.194 885.41 364.056 887.457 362.865C889.282 361.802 890.504 360.312 891.125 358.396C891.8 356.448 891.704 354.69 890.835 353.123ZM887.72 322.173C888.992 321.433 890.362 321.264 891.83 321.668C893.298 322.072 894.388 322.918 895.102 324.205L914.33 358.879C918.489 366.379 919.433 373.492 917.164 380.219C914.95 386.913 909.777 392.627 901.647 397.361C898.495 399.197 895.202 400.781 891.771 402.112C890.319 402.661 888.84 402.634 887.335 402.03C885.86 401.482 884.735 400.508 883.959 399.109L882.05 395.666C881.398 394.491 881.329 393.31 881.841 392.123C882.44 390.96 883.398 390.18 884.714 389.784C887.576 389.006 890.693 387.635 894.067 385.671C897.939 383.416 900.278 380.907 901.086 378.141C901.949 375.343 901.248 371.901 898.982 367.815L897.818 365.717C897.787 365.661 897.744 365.649 897.688 365.681C897.578 365.745 897.538 365.806 897.569 365.862C896.445 370.959 893.449 374.924 888.582 377.758C883.77 380.56 878.733 380.975 873.47 379.005C868.231 376.947 863.78 372.615 860.118 366.01C856.269 359.07 854.783 352.827 855.659 347.282C856.591 341.705 859.573 337.451 864.606 334.521C869.418 331.719 874.674 331.435 880.376 333.668C880.462 333.692 880.533 333.688 880.588 333.656C880.644 333.624 880.656 333.579 880.625 333.524L880.252 332.852C879.563 331.476 879.44 330.067 879.883 328.624C880.296 327.125 881.166 325.989 882.493 325.216L887.72 322.173Z" fill="#C4C4C4"/>
<mask id="mask0" mask-type="alpha" maskUnits="userSpaceOnUse" x="0" y="0" width="1649" height="871">
<path d="M1594.29 672.125C1599.52 675 1602.53 679.322 1603.32 685.091C1604.12 690.861 1603.07 695.348 1600.16 698.552C1597.26 701.82 1591.88 704.341 1584.01 706.114L1561.26 711.244C1559.82 711.567 1558.5 711.31 1557.29 710.471C1556.08 709.633 1555.37 708.485 1555.17 707.026L1554.24 700.274C1554.04 698.816 1554.4 697.428 1555.31 696.111C1556.22 694.794 1557.4 693.974 1558.83 693.65L1581.59 688.52C1584.46 687.873 1586.37 687.018 1587.32 685.954C1588.27 684.891 1588.59 683.281 1588.29 681.126C1588.05 679.35 1587.13 677.857 1585.55 676.645C1583.98 675.496 1582.38 675.105 1580.75 675.471L1557.06 680.812C1555.62 681.135 1554.3 680.878 1553.09 680.04C1551.88 679.201 1551.18 678.053 1550.97 676.594L1549.98 669.367C1549.78 667.909 1550.13 666.521 1551.05 665.204C1551.96 663.887 1553.13 663.067 1554.57 662.743L1592.59 654.172C1594.03 653.848 1595.35 654.106 1596.56 654.944C1597.77 655.783 1598.47 656.931 1598.68 658.389L1599.57 664.856C1599.78 666.378 1599.43 667.797 1598.51 669.114C1597.66 670.417 1596.49 671.269 1595 671.67L1594.25 671.839C1594.19 671.853 1594.17 671.892 1594.17 671.955C1594.19 672.082 1594.23 672.139 1594.29 672.125Z" fill="black"/>
<path d="M1482.82 499.92C1481.35 499.92 1480.07 499.376 1478.98 498.288C1477.89 497.2 1477.35 495.92 1477.35 494.448V455.472C1477.35 454 1477.89 452.72 1478.98 451.632C1480.07 450.544 1481.35 450 1482.82 450H1491.07C1492.55 450 1493.83 450.544 1494.91 451.632C1496 452.72 1496.55 454 1496.55 455.472V494.448C1496.55 495.92 1496 497.2 1494.91 498.288C1493.83 499.376 1492.55 499.92 1491.07 499.92H1482.82Z" fill="black"/>
<path d="M1488.1 520C1483.43 529.447 1475.65 539.681 1477.2 547.553C1478.76 555.426 1481.01 557 1488.1 557C1495.19 557 1499 554.638 1499 547.553C1499 544.178 1498 541 1494.38 536C1490.76 531 1490.22 524.444 1488.1 520Z" fill="#C4C4C4" stroke="black"/>
<path d="M1226.13 488.493L1225.97 487.939C1225.82 487.385 1225.48 487.229 1224.95 487.472L1222.26 488.728C1216.45 491.428 1214.08 494.624 1215.13 498.317C1215.92 501.087 1217.76 501.797 1220.66 500.447C1222.93 499.394 1224.57 497.792 1225.6 495.639C1226.67 493.399 1226.85 491.016 1226.13 488.493ZM1212.5 461.377C1220.16 457.813 1226.12 456.712 1230.38 458.073C1234.65 459.435 1237.69 463.316 1239.52 469.718L1246.69 494.924C1247.09 496.34 1246.95 497.801 1246.26 499.306C1245.57 500.811 1244.56 501.875 1243.23 502.496L1237.75 505.047C1236.35 505.695 1235.02 505.756 1233.76 505.23C1232.47 504.643 1231.59 503.624 1231.11 502.174L1230.9 501.435C1230.88 501.374 1230.85 501.356 1230.79 501.383C1230.73 501.41 1230.68 501.468 1230.64 501.557C1228.24 507.901 1224.31 512.342 1218.86 514.88C1214.8 516.77 1211.08 516.969 1207.69 515.475C1204.29 513.92 1201.97 510.958 1200.73 506.587C1197.57 495.508 1203.83 486.323 1219.5 479.033L1222.19 477.777C1222.72 477.534 1222.9 477.136 1222.74 476.582L1222.71 476.49C1221.66 472.796 1219.11 471.895 1215.04 473.785C1211.56 475.405 1207.22 478.051 1202.03 481.724C1200.88 482.537 1199.7 482.773 1198.48 482.432C1197.25 482.029 1196.44 481.151 1196.06 479.797L1195.64 478.319C1195.2 476.781 1195.24 475.193 1195.76 473.557C1196.34 471.894 1197.29 470.615 1198.61 469.721C1204.04 465.94 1208.67 463.159 1212.5 461.377Z" fill="black"/>
<path d="M1113.28 343.245C1114.67 343.682 1115.7 344.653 1116.39 346.158C1117.08 347.663 1117.21 349.155 1116.79 350.632L1116.11 353.033C1115.71 354.448 1114.89 355.463 1113.67 356.078C1112.46 356.631 1111.13 356.676 1109.69 356.212C1105.04 354.749 1100.97 354.873 1097.46 356.586C1093.96 358.237 1091.62 361.155 1090.43 365.341L1086.54 379.006C1086.13 380.422 1085.29 381.423 1084.01 382.011C1082.72 382.598 1081.41 382.581 1080.08 381.96L1073.03 378.68C1071.69 378.059 1070.68 376.996 1069.99 375.49C1069.3 373.985 1069.16 372.524 1069.57 371.109L1080.24 333.622C1080.64 332.206 1081.48 331.205 1082.77 330.617C1084.05 330.03 1085.36 330.047 1086.7 330.668L1093.31 333.746C1094.65 334.367 1095.66 335.43 1096.35 336.935C1097.04 338.441 1097.18 339.901 1096.78 341.317L1095.67 345.195C1095.65 345.257 1095.67 345.301 1095.73 345.328C1095.79 345.355 1095.86 345.351 1095.93 345.317C1101.04 341.909 1106.82 341.218 1113.28 343.245Z" fill="black"/>
<path d="M847.435 531.761C847.513 531.19 847.272 530.842 846.71 530.715C843.829 530.131 841.681 530.301 840.267 531.224C838.861 532.084 837.996 533.686 837.672 536.032C837.331 538.505 837.697 540.516 838.771 542.065C839.791 543.537 841.778 544.769 844.731 545.762C845.23 545.875 845.515 545.677 845.585 545.17L847.435 531.761ZM825.9 533.869C828.121 517.765 837.602 511.568 854.343 515.276C855.842 515.614 857.043 516.473 857.947 517.853C858.788 519.22 859.1 520.695 858.881 522.28L855.445 547.197C855.366 547.767 855.616 548.052 856.196 548.052C858.897 548.073 860.909 547.252 862.233 545.589C863.565 543.863 864.515 540.939 865.084 536.818C865.442 534.219 865.505 530.964 865.272 527.055C865.143 525.653 865.59 524.512 866.613 523.631C867.573 522.736 868.74 522.444 870.114 522.753L871.612 523.091C873.173 523.443 874.539 524.274 875.71 525.584C876.828 526.816 877.406 528.221 877.446 529.799C877.662 533.835 877.468 538.041 876.865 542.415C875.623 551.418 872.512 557.875 867.53 561.786C862.496 565.619 855.889 566.614 847.71 564.77C839.594 562.94 833.648 559.378 829.872 554.081C826.096 548.785 824.772 542.047 825.9 533.869Z" fill="black"/>
<path d="M642.944 699.143C648.751 700.452 652.604 703.086 654.504 707.044C656.476 710.953 656.836 717.441 655.586 726.507L652.661 747.714C652.46 749.172 651.754 750.321 650.544 751.159C649.334 751.998 648.011 752.255 646.575 751.932L639.926 750.433C638.49 750.109 637.316 749.289 636.403 747.972C635.49 746.655 635.134 745.267 635.335 743.809L637.998 724.504C638.645 719.812 638.664 716.646 638.053 715.004C637.505 713.377 636.138 712.318 633.953 711.825C632.205 711.431 630.486 711.762 628.795 712.819C627.166 713.891 626.239 715.25 626.011 716.899L622.693 740.959C622.492 742.417 621.786 743.565 620.576 744.404C619.366 745.243 618.043 745.5 616.607 745.176L609.49 743.572C608.054 743.248 606.879 742.428 605.967 741.111C605.054 739.794 604.698 738.406 604.899 736.948L613.241 676.464C613.443 675.006 614.148 673.858 615.358 673.019C616.568 672.181 617.891 671.923 619.327 672.247L626.445 673.851C627.88 674.175 629.055 674.996 629.968 676.313C630.88 677.63 631.236 679.017 631.035 680.475L628.123 701.588C628.114 701.651 628.141 701.69 628.204 701.704C628.266 701.718 628.333 701.7 628.404 701.651C633.353 698.91 638.199 698.074 642.944 699.143Z" fill="black"/>
<path d="M491.289 518.203C492.292 517.125 493.462 516.643 494.799 516.757C496.136 516.87 497.208 517.543 498.014 518.774L498.856 520.059C499.663 521.29 499.993 522.76 499.848 524.466C499.704 526.173 499.13 527.565 498.127 528.643L492.308 534.899C491.915 535.32 491.877 535.772 492.193 536.254L499.609 547.577C501.713 550.789 503.246 552.563 504.208 552.897C505.17 553.232 506.414 552.579 507.94 550.939C508.55 550.283 509.239 549.406 510.005 548.308C510.815 547.164 511.837 546.568 513.069 546.521C514.309 546.373 515.298 546.862 516.034 547.986L517.402 550.074C518.278 551.412 518.719 552.992 518.722 554.812C518.735 556.532 518.271 558.035 517.33 559.32C515.979 561.228 514.214 563.353 512.035 565.696C507.37 570.71 503.272 573.017 499.741 572.616C496.21 572.215 492.376 568.855 488.238 562.538L479.769 549.609C479.453 549.127 479.099 549.097 478.707 549.519L476.157 552.26C475.154 553.338 473.984 553.82 472.647 553.706C471.31 553.593 470.238 552.92 469.431 551.689L468.59 550.404C467.783 549.172 467.452 547.703 467.597 545.997C467.742 544.29 468.316 542.898 469.319 541.82L471.869 539.079C472.261 538.657 472.299 538.205 471.984 537.723L465.461 527.765C464.655 526.534 464.324 525.065 464.469 523.358C464.614 521.651 465.188 520.259 466.19 519.181L471.16 513.84C472.162 512.762 473.332 512.28 474.669 512.393C476.007 512.507 477.079 513.179 477.885 514.411L484.408 524.369C484.723 524.85 485.077 524.881 485.469 524.459L491.289 518.203Z" fill="black"/>
<path d="M417.641 195.886C421.609 191.086 426.505 188.686 432.329 188.686C438.153 188.686 442.313 190.35 444.809 193.678C447.369 197.006 448.649 202.702 448.649 210.766V234.094C448.649 235.566 448.105 236.846 447.017 237.934C445.929 239.022 444.649 239.566 443.177 239.566H436.361C434.889 239.566 433.609 239.022 432.521 237.934C431.433 236.846 430.889 235.566 430.889 234.094V210.766C430.889 207.822 430.473 205.806 429.641 204.718C428.809 203.63 427.305 203.086 425.129 203.086C423.337 203.086 421.673 203.79 420.137 205.198C418.665 206.606 417.929 208.142 417.929 209.806V234.094C417.929 235.566 417.385 236.846 416.297 237.934C415.209 239.022 413.929 239.566 412.457 239.566H405.161C403.689 239.566 402.409 239.022 401.321 237.934C400.233 236.846 399.689 235.566 399.689 234.094V195.118C399.689 193.646 400.233 192.366 401.321 191.278C402.409 190.19 403.689 189.646 405.161 189.646H411.689C413.225 189.646 414.537 190.19 415.625 191.278C416.713 192.302 417.289 193.582 417.353 195.118V195.886C417.353 195.95 417.385 195.982 417.449 195.982C417.577 195.982 417.641 195.95 417.641 195.886Z" fill="black"/>
<path d="M249.516 266.839C250.7 265.965 251.954 265.701 253.277 266.046C254.6 266.392 255.565 267.235 256.171 268.577L272.213 304.098C272.819 305.44 272.908 306.93 272.48 308.567C272.053 310.205 271.247 311.461 270.062 312.335L263.42 317.238C262.236 318.112 260.982 318.376 259.659 318.031C258.335 317.685 257.371 316.842 256.765 315.5L240.723 279.979C240.117 278.637 240.028 277.148 240.456 275.51C240.883 273.872 241.689 272.616 242.873 271.742L249.516 266.839ZM240.428 246.716C241.613 245.842 242.866 245.578 244.189 245.923C245.513 246.269 246.477 247.112 247.083 248.454L248.11 250.729C248.716 252.07 248.805 253.56 248.378 255.197C247.95 256.835 247.144 258.091 245.96 258.965L239.317 263.868C238.133 264.742 236.879 265.007 235.556 264.661C234.233 264.316 233.268 263.472 232.662 262.131L231.635 259.856C231.029 258.514 230.94 257.025 231.368 255.387C231.795 253.749 232.601 252.493 233.786 251.619L240.428 246.716Z" fill="black"/>
<line x1="17.607" y1="498.085" x2="267.38" y2="707.669" stroke="black" stroke-width="5"/>
<line x1="716.607" y1="361.085" x2="966.38" y2="570.669" stroke="black" stroke-width="5"/>
<line x1="306.588" y1="480.185" x2="458.398" y2="607.569" stroke="black" stroke-width="5"/>
<line x1="319.607" y1="531.085" x2="471.416" y2="658.468" stroke="black" stroke-width="5"/>
<line x1="966.607" y1="184.085" x2="1118.42" y2="311.468" stroke="black" stroke-width="5"/>
<line x1="471.607" y1="2.08489" x2="623.416" y2="129.468" stroke="black" stroke-width="5"/>
<line x1="495.607" y1="57.0849" x2="647.416" y2="184.468" stroke="black" stroke-width="5"/>
<line x1="976.607" y1="741.085" x2="1128.42" y2="868.468" stroke="black" stroke-width="5"/>
<line x1="1237.61" y1="654.085" x2="1389.42" y2="781.468" stroke="black" stroke-width="5"/>
<line x1="1266.61" y1="718.085" x2="1418.42" y2="845.468" stroke="black" stroke-width="5"/>
<line x1="1266.42" y1="208.501" x2="1646.79" y2="527.668" stroke="black" stroke-width="5"/>
<line x1="1.60697" y1="152.085" x2="231.42" y2="344.921" stroke="black" stroke-width="5"/>
</mask>
<g mask="url(#mask0)">
<rect x="24" y="-63" width="1621" height="970" fill="url(#paint0_linear)"/>
</g>
<defs>
<linearGradient id="paint0_linear" x1="834.5" y1="-63" x2="834.5" y2="907" gradientUnits="userSpaceOnUse">
<stop stop-color="#07B4EB"/>
<stop offset="1" stop-color="#FCFCFC"/>
</linearGradient>
</defs>
</svg>
