<svg width="800" height="800" viewBox="0 0 800 800" fill="none" xmlns="http://www.w3.org/2000/svg">
<g clip-path="url(#clip0)">
<path d="M505.263 523.506H140.351C132.6 523.506 126.316 529.789 126.316 537.541V607.716C126.316 615.468 132.6 621.751 140.351 621.751H505.263C513.014 621.751 519.298 615.468 519.298 607.716V537.541C519.298 529.789 513.014 523.506 505.263 523.506Z" fill="#4B4B4B"/>
<path d="M679.544 586.948L565.689 181.932C563.591 174.47 555.841 170.121 548.379 172.219L480.325 191.35C472.863 193.448 468.514 201.197 470.612 208.66L584.468 613.675C586.565 621.137 594.315 625.486 601.777 623.388L669.831 604.257C677.293 602.16 681.642 594.41 679.544 586.948Z" fill="#4B4B4B"/>
<path d="M449.123 355.085H126.316C118.565 355.085 112.281 361.369 112.281 369.12V439.295C112.281 447.047 118.565 453.33 126.316 453.33H449.123C456.875 453.33 463.158 447.047 463.158 439.295V369.12C463.158 361.369 456.875 355.085 449.123 355.085Z" fill="#4B4B4B"/>
</g>
<defs>
<clipPath id="clip0">
<rect width="800" height="800" fill="white"/>
</clipPath>
</defs>
</svg>
