<svg width="587" height="263" viewBox="0 0 587 263" fill="none" xmlns="http://www.w3.org/2000/svg">
<line x1="0.914299" y1="226.867" x2="191.188" y2="243.514" stroke="#C1C9D9" stroke-width="6"/>
<line x1="90.3479" y1="248.745" x2="237.785" y2="261.644" stroke="#A61B5B" stroke-opacity="0.7" stroke-width="2"/>
<line x1="306.342" y1="19.5142" x2="576.819" y2="43.1779" stroke="#A61B5B" stroke-opacity="0.7" stroke-width="6"/>
<line x1="274.198" y1="1.86342" x2="453.024" y2="17.5088" stroke="#394D73" stroke-width="2"/>
<line x1="484.622" y1="66.9296" x2="586.234" y2="75.8195" stroke="#C1C9D9" stroke-width="2"/>
<path d="M198.947 146.199C199.684 147.747 201.496 150.8 204.936 153.354C209.296 156.563 213.723 156.962 215.454 157.03" stroke="#021859" stroke-width="5" stroke-miterlimit="10"/>
<path d="M203.554 138.071C204.292 139.619 206.103 142.672 209.543 145.226C213.904 148.435 218.33 148.834 220.061 148.902" stroke="#021859" stroke-width="5" stroke-miterlimit="10"/>
<path d="M209.582 130.824C210.319 132.372 212.13 135.425 215.571 137.979C219.931 141.189 224.358 141.587 226.089 141.655" stroke="#021859" stroke-width="5" stroke-miterlimit="10"/>
<path d="M260.34 164.226C260.34 181.155 249.133 193.683 236.649 193.683C224.165 193.683 212.959 181.155 212.959 164.226C212.959 147.298 224.165 134.77 236.649 134.77C249.133 134.77 260.34 147.298 260.34 164.226Z" fill="white" stroke="#021859" stroke-width="7"/>
<mask id="mask0" mask-type="alpha" maskUnits="userSpaceOnUse" x="209" y="131" width="55" height="67">
<ellipse cx="236.649" cy="164.226" rx="27.1903" ry="32.9567" fill="#C4C4C4"/>
</mask>
<g mask="url(#mask0)">
<path fill-rule="evenodd" clip-rule="evenodd" d="M263.839 154.005C263.839 167.089 251.615 177.696 236.536 177.696C221.456 177.696 209.232 167.089 209.232 154.005C209.232 140.921 221.456 130.314 236.536 130.314C251.615 130.314 263.839 140.921 263.839 154.005ZM257.721 161.074C257.721 165.717 254.221 169.48 249.904 169.48C245.587 169.48 242.087 165.717 242.087 161.074C242.087 156.431 245.587 152.668 249.904 152.668C254.221 152.668 257.721 156.431 257.721 161.074Z" fill="url(#paint0_linear)"/>
</g>
<path d="M374.698 146.199C373.96 147.747 372.149 150.8 368.709 153.354C364.348 156.563 359.922 156.962 358.191 157.03" stroke="#021859" stroke-width="5" stroke-miterlimit="10"/>
<path d="M370.09 138.071C369.353 139.619 367.541 142.672 364.101 145.226C359.741 148.435 355.314 148.834 353.583 148.902" stroke="#021859" stroke-width="5" stroke-miterlimit="10"/>
<path d="M364.063 130.824C363.325 132.372 361.514 135.425 358.074 137.979C353.713 141.189 349.287 141.587 347.556 141.655" stroke="#021859" stroke-width="5" stroke-miterlimit="10"/>
<path d="M313.305 164.226C313.305 181.155 324.511 193.683 336.995 193.683C349.479 193.683 360.686 181.155 360.686 164.226C360.686 147.298 349.479 134.77 336.995 134.77C324.511 134.77 313.305 147.298 313.305 164.226Z" fill="white" stroke="#021859" stroke-width="7"/>
<mask id="mask1" mask-type="alpha" maskUnits="userSpaceOnUse" x="309" y="131" width="56" height="67">
<ellipse rx="27.1903" ry="32.9567" transform="matrix(-1 0 0 1 336.995 164.226)" fill="#C4C4C4"/>
</mask>
<g mask="url(#mask1)">
<path fill-rule="evenodd" clip-rule="evenodd" d="M309.805 154.005C309.805 167.089 322.029 177.696 337.109 177.696C352.188 177.696 364.412 167.089 364.412 154.005C364.412 140.921 352.188 130.314 337.109 130.314C322.029 130.314 309.805 140.921 309.805 154.005ZM340.847 161.074C340.847 165.717 344.347 169.48 348.665 169.48C352.982 169.48 356.482 165.717 356.482 161.074C356.482 156.431 352.982 152.668 348.665 152.668C344.347 152.668 340.847 156.431 340.847 161.074Z" fill="url(#paint1_linear)"/>
</g>
<path d="M175.173 144.126L167.443 143.577L163.583 197.871L171.313 198.421L175.173 144.126ZM172.738 124.391C169.851 124.185 167.058 126.608 166.853 129.495C166.654 132.289 169.076 135.082 171.963 135.287C174.757 135.485 177.55 133.063 177.749 130.269C177.954 127.382 175.532 124.589 172.738 124.391Z" fill="#394D73"/>
<path d="M191.288 83.4324L209.134 82.2426L208.679 75.4165L190.833 76.6063L189.687 59.4177L182.861 59.8728L184.007 77.0613L173.726 77.7467L174.182 84.5728L184.462 83.8874L185.602 100.994C186.436 113.495 197.226 122.936 209.726 122.103C210.631 122.042 210.878 122.026 211.782 121.965L211.327 115.139C210.423 115.2 210.176 115.216 209.271 115.276C200.554 115.858 193.004 109.174 192.428 100.539L191.288 83.4324Z" fill="#394D73"/>
<path d="M321.645 81.4164L315.327 80.0028L307.846 113.442L284.902 67L273.32 118.771L279.639 120.185L287.12 86.7459L310.063 133.187L321.645 81.4164Z" fill="#394D73"/>
<path d="M87.9723 120.027L79.1233 74.8401L59 78.7809L77.6891 174.216L97.8124 170.275L91.9131 140.15L122.038 134.251L127.937 164.376L148.06 160.435L134.303 90.1842L114.18 94.125L118.097 114.128L87.9723 120.027Z" fill="#5DC9E1" fill-opacity="0.7"/>
<path d="M105.726 87.1523L109.163 104.702L83.9452 109.64L75.5767 66.9065L75.0962 64.4531L72.6428 64.9336L52.5195 68.8744L50.0661 69.3548L50.5466 71.8082L69.2357 167.243L69.7162 169.697L72.1696 169.216L92.2929 165.275L94.7463 164.795L94.2658 162.341L88.8469 134.67L114.065 129.732L119.484 157.403L119.964 159.856L122.418 159.376L142.541 155.435L144.994 154.955L144.514 152.501L130.756 82.2506L130.276 79.7972L127.823 80.2777L107.699 84.2185L105.246 84.6989L105.726 87.1523Z" stroke="#394D73" stroke-width="5"/>
<path d="M381.625 121.101L392.889 129.782L410.522 106.875L418.163 151.217L445.567 115.528L450.511 144.01L464.52 141.57L454.075 81.073L426.671 116.762L419.03 72.4196L381.625 121.101Z" fill="#5DC9E1" fill-opacity="0.7"/>
<path d="M374.166 112.774L372.645 114.754L374.622 116.278L385.886 124.958L387.867 126.485L389.393 124.503L403.549 106.113L410.223 144.838L411.192 150.464L414.669 145.936L438.601 114.768L442.571 137.634L442.999 140.098L445.463 139.669L459.472 137.229L461.932 136.801L461.507 134.341L451.061 73.8438L450.09 68.2203L446.615 72.7466L422.688 103.907L416.016 65.1911L415.047 59.5673L411.57 64.0925L374.166 112.774Z" stroke="#394D73" stroke-width="5"/>
<path d="M471.381 170.917L510.532 163.639C510.532 163.639 509.661 158.949 509.489 158.028C507.154 145.467 495.042 136.89 482.104 139.295C469.166 141.701 460.946 154.058 463.281 166.619L464.589 173.653C466.924 186.213 479.372 194.728 491.974 192.386C492.898 192.214 493.15 192.167 494.074 191.995L492.782 185.045C491.858 185.217 491.606 185.263 490.682 185.435C481.86 187.075 473.281 181.133 471.646 172.341L471.381 170.917ZM502.267 157.985L470.089 163.967C469.457 155.421 474.827 147.839 483.396 146.246C491.966 144.652 499.786 149.783 502.267 157.985Z" fill="#394D73"/>
<path d="M265 204C268.269 210.616 277.091 215.356 287.461 215.356C297.831 215.356 306.652 210.616 309.922 204" stroke="#021859" stroke-width="6"/>
<defs>
<linearGradient id="paint0_linear" x1="236.649" y1="147.987" x2="242.365" y2="178.493" gradientUnits="userSpaceOnUse">
<stop stop-color="#021859"/>
<stop offset="1" stop-color="#021859" stop-opacity="0.18"/>
</linearGradient>
<linearGradient id="paint1_linear" x1="336.995" y1="147.987" x2="331.279" y2="178.493" gradientUnits="userSpaceOnUse">
<stop stop-color="#021859"/>
<stop offset="1" stop-color="#021859" stop-opacity="0.18"/>
</linearGradient>
</defs>
</svg>
