<svg width="1411" height="889" viewBox="0 0 1411 889" fill="none" xmlns="http://www.w3.org/2000/svg">
<rect width="1411" height="889" fill="white"/>
<path d="M505.001 565C518.69 565 530.198 555.036 533.773 541.822C559.274 447.573 640.669 377 742.5 377C849.159 377 937.72 454.486 954.962 556.236C955.808 561.227 960.056 565 965.118 565C971.132 565 975.819 559.75 974.838 553.816C956.386 442.157 859.388 357 742.5 357C636.676 357 547.155 426.799 517.463 522.871C513.536 535.577 502.244 545 488.946 545H50C44.4772 545 40 549.477 40 555C40 560.523 44.4771 565 50 565H505.001Z" fill="url(#paint0_linear)"/>
<path d="M399.748 336.552C405.684 336.552 408.44 332.312 408.44 328.072C408.44 323.832 405.684 319.592 399.748 319.592L353.108 320.016C350.776 315.776 348.444 311.536 346.324 306.872L373.884 307.084C379.608 307.084 382.576 303.056 382.576 299.028C382.576 295.212 379.608 291.184 373.884 291.184H318.128C319.4 287.58 320.46 283.764 321.52 280.16H384.696C390.632 280.16 393.388 275.92 393.388 271.68C393.388 267.652 390.632 263.412 384.696 263.412H326.184C326.608 261.928 328.728 253.024 328.728 251.328C328.728 245.604 323.216 242 317.704 242C313.252 242 309.012 244.544 307.952 250.268C307.104 254.72 306.468 258.96 305.408 263.412H254.528C248.592 263.412 245.412 267.864 245.412 272.104C245.412 276.132 248.38 280.16 254.528 280.16H300.956C299.896 283.764 298.836 287.58 297.564 291.184H265.34C259.616 291.184 256.436 295.424 256.436 299.452C256.436 303.268 259.192 307.084 265.128 307.084H265.34L291.628 306.872C289.72 311.324 287.6 315.776 285.48 320.016L240.536 319.592C234.6 319.592 231.42 324.044 231.42 328.496C231.42 332.524 234.388 336.552 240.536 336.552L276.152 336.34C264.28 354.784 249.016 370.896 229.936 381.708C225.696 384.04 224 387.432 224 390.612C224 395.488 228.24 399.94 233.752 399.94C243.292 399.94 267.46 377.68 278.272 364.96C277.848 366.232 277.636 367.716 277.636 369.2C277.212 378.104 276.788 389.34 276.788 400.152C276.788 403.544 277 406.724 277 409.904C277.424 421.14 285.48 428.772 298.836 429.62C305.832 430.044 313.04 430.256 320.46 430.256C327.668 430.256 335.088 430.044 342.508 429.62C354.592 428.984 363.284 420.292 363.708 409.48C363.708 406.724 363.92 403.756 363.92 400.576C363.92 389.764 363.496 377.256 363.072 367.716C363.072 366.232 362.648 364.96 362.224 363.476C380.668 384.676 398.264 395.276 404.412 395.276C411.196 395.276 416.708 389.552 416.708 384.04C416.708 380.86 414.8 377.68 410.56 375.56C392.752 367.292 377.064 354.36 363.708 336.34L399.748 336.552ZM327.244 306.872C328.94 311.324 331.06 315.564 333.18 320.016H306.892C309.012 315.776 310.708 311.112 312.616 306.66L327.244 306.872ZM342.296 336.34C346.112 342.488 350.14 348.212 354.38 353.724C348.868 350.12 347.596 349.696 319.4 349.696C297.352 349.696 292.476 350.544 287.812 352.876C291.628 347.576 295.232 342.064 298.412 336.34H342.296ZM294.384 380.436C294.384 364.748 295.444 364.748 319.824 364.748C340.388 364.748 345.052 364.748 345.476 373.864C345.476 375.772 345.688 377.892 345.688 380.436H294.384ZM345.9 395.488C345.9 405.028 345.9 405.028 345.9 405.028C345.476 413.72 337.632 413.72 320.884 413.72C300.956 413.72 294.596 413.72 294.172 405.24C293.96 402.484 293.96 399.092 293.96 395.488H345.9Z" fill="#E686DE"/>
<path d="M724.692 538.788C729.78 538.788 735.292 534.124 735.292 528.188C735.292 521.616 721.936 505.292 714.304 505.292C709.216 505.292 703.916 508.684 703.916 513.136C703.916 514.62 704.34 515.892 705.4 517.376C707.308 519.92 713.88 526.068 717.272 533.488C718.968 537.304 721.724 538.788 724.692 538.788ZM789.564 556.384C795.5 556.384 798.468 552.144 798.468 548.116C798.468 544.088 795.5 540.06 789.776 540.06H789.564L766.456 540.272C779.6 517.376 780.448 515.68 780.448 513.136C780.448 507.836 774.512 503.808 769 503.808C765.608 503.808 762.216 505.504 760.732 509.32C756.492 520.768 750.98 531.792 747.588 538.576C747.164 539.212 746.952 539.848 746.74 540.484H742.5L695.224 540.06H695.012C689.076 540.06 686.108 544.088 686.108 548.116C686.108 552.356 689.076 556.384 695.224 556.384H732.96V604.296C716 604.296 716 604.084 716 589.88C716 584.156 716 577.584 716 574.404V574.192C716 568.892 711.548 566.348 707.096 566.348C702.644 566.348 697.98 569.104 697.768 574.404C697.768 600.904 697.768 600.904 697.768 600.904C698.404 620.408 709.852 620.62 741.228 620.62C749.496 620.62 757.976 620.408 766.032 620.196C787.444 619.348 787.868 605.568 787.868 585.216C787.868 581.188 787.656 577.372 787.656 574.828C787.444 569.104 782.78 566.136 778.116 566.136C773.664 566.136 769 569.104 769 574.828C769 579.704 769 591.788 768.788 597.088C768.364 602.6 765.608 604.508 751.828 604.508V556.384H789.564ZM826.24 598.996C825.816 575.04 826.24 538.788 825.392 506.564C824.968 491.3 812.46 481.972 799.528 481.76C782.356 481.336 764.548 481.124 746.74 481.124C726.388 481.124 706.248 481.336 687.592 481.76C671.692 481.972 661.304 491.3 661.092 504.868C660.244 552.144 660.244 603.66 659.82 651.148V651.36C659.82 657.296 665.12 660.476 670.42 660.476C675.508 660.476 680.596 657.508 680.596 651.36V651.148C680.384 632.492 680.384 614.048 680.384 595.816C680.384 566.984 680.596 539.212 681.232 514.196C681.444 503.384 684.836 499.78 696.92 499.568C711.336 499.356 726.812 499.144 742.5 499.144C758.188 499.144 774.088 499.356 789.564 499.568C799.952 499.78 804.192 502.112 804.616 514.196C804.828 517.588 805.252 532.428 805.252 624.86C805.252 634.4 798.68 637.156 789.988 637.156C785.748 637.156 781.084 636.52 776.42 635.672C775.784 635.46 775.148 635.46 774.512 635.46C769 635.46 765.82 640.336 765.82 645.424C765.82 656.872 777.056 657.508 789.352 657.508C817.972 657.508 826.664 641.82 826.664 629.312C826.664 629.1 826.664 629.1 826.664 628.888L826.24 598.996Z" fill="#64A85D"/>
<path d="M1111.04 387.308C1095.14 387.944 1088.99 396.636 1088.78 405.116C1088.57 415.08 1088.36 426.316 1088.36 437.34C1088.36 448.364 1088.57 459.176 1088.78 468.292C1089.2 478.68 1096.2 486.524 1110.83 486.948C1117.61 487.16 1129.91 487.372 1141.99 487.372C1151.74 487.372 1161.28 487.16 1167.22 486.948C1180.58 486.312 1189.27 477.832 1189.69 468.08C1190.12 458.964 1190.33 447.94 1190.33 436.916C1190.33 425.68 1190.12 414.444 1189.69 404.904C1189.27 395.788 1181.21 387.944 1167.22 387.308C1161.07 386.884 1150.05 386.884 1139.02 386.884C1128 386.884 1117.19 386.884 1111.04 387.308ZM1206.44 497.972C1193.08 498.396 1165.52 498.608 1139.02 498.608C1116.13 498.608 1093.66 498.396 1082.21 497.972C1069.06 497.336 1069.06 493.308 1069.06 461.72C1069.06 445.184 1069.49 426.74 1069.91 412.536C1069.91 412.324 1069.91 412.324 1069.91 412.112C1069.91 406.388 1064.61 403.208 1059.1 403.208C1054.01 403.208 1048.92 406.176 1048.71 412.536C1048.29 427.376 1048.08 443.488 1048.08 458.964C1048.08 469.988 1048.08 480.588 1048.29 490.128C1048.5 506.876 1057.83 515.356 1075.21 515.992C1084.54 516.416 1100.65 516.416 1118.46 516.628L1117.82 561.36V561.572C1117.82 567.296 1123.12 570.264 1128.42 570.264C1133.72 570.264 1139.02 567.296 1139.02 561.572V561.36L1138.39 516.628C1164.89 516.628 1192.02 516.628 1206.44 516.204C1213.01 515.992 1216.19 511.328 1216.19 506.876C1216.19 502.424 1213.01 497.972 1206.65 497.972H1206.44ZM1203.26 562.632C1208.77 562.632 1213.22 557.332 1213.22 551.608C1213.22 536.132 1170.82 522.14 1165.74 522.14C1159.59 522.14 1155.35 526.804 1155.35 531.468C1155.35 534.648 1157.47 538.04 1162.34 539.524C1172.94 542.916 1186.94 551.184 1195.63 559.24C1198.17 561.572 1200.72 562.632 1203.26 562.632ZM1098.96 538.888C1101.29 536.768 1102.35 534.224 1102.35 531.892C1102.35 526.804 1097.9 521.716 1092.6 521.716C1090.9 521.716 1088.99 522.352 1087.08 523.836C1075.21 533.164 1062.92 539.948 1048.29 544.612C1042.99 546.308 1040.66 550.336 1040.66 554.364C1040.66 559.452 1044.68 564.752 1051.26 564.752C1056.98 564.752 1082.63 553.092 1098.96 538.888ZM1107.86 415.292C1107.86 413.596 1108.07 411.688 1108.07 409.992C1108.28 405.964 1110.4 402.572 1116.13 402.36C1119.94 402.148 1128.64 401.936 1137.96 401.936C1147.29 401.936 1156.83 402.148 1162.13 402.36C1167.86 402.572 1169.76 404.904 1169.98 409.78C1169.98 411.476 1170.19 413.384 1170.19 415.292H1107.86ZM1170.4 443.064H1107.65V430.132H1170.4V443.064ZM1170.19 457.904C1170.19 460.236 1169.98 462.356 1169.98 464.476C1169.55 472.532 1168.07 472.532 1134.78 472.532C1112.95 472.532 1108.5 472.32 1108.07 464.688L1107.86 457.904H1170.19Z" fill="#799FC2"/>
<path d="M200.822 498.96H223.638C224.343 498.96 224.957 499.221 225.478 499.742C225.999 500.263 226.26 500.877 226.26 501.582V503.928C226.26 504.633 225.999 505.247 225.478 505.768C224.957 506.289 224.343 506.55 223.638 506.55H200.822C200.117 506.55 199.503 506.289 198.982 505.768C198.461 505.247 198.2 504.633 198.2 503.928V501.582C198.2 500.877 198.461 500.263 198.982 499.742C199.503 499.221 200.117 498.96 200.822 498.96ZM228.514 530.884C228.667 531.589 228.545 532.264 228.146 532.908C227.747 533.521 227.195 533.905 226.49 534.058C221.154 535.193 216.324 535.76 212 535.76C206.357 535.76 201.957 534.794 198.798 532.862C195.639 530.93 194.06 528.369 194.06 525.18C194.06 523.555 194.489 521.929 195.348 520.304C196.207 518.648 197.694 516.731 199.81 514.554C200.331 514.033 200.96 513.757 201.696 513.726C202.463 513.665 203.153 513.849 203.766 514.278L205.974 515.842C206.526 516.241 206.817 516.777 206.848 517.452C206.909 518.127 206.71 518.709 206.25 519.2C204.103 521.469 203.03 523.156 203.03 524.26C203.03 525.364 203.766 526.253 205.238 526.928C206.741 527.603 208.995 527.94 212 527.94C215.649 527.94 219.943 527.388 224.88 526.284C225.585 526.131 226.229 526.253 226.812 526.652C227.425 527.02 227.793 527.541 227.916 528.216L228.514 530.884Z" fill="#799FC2" fill-opacity="0.5"/>
<path d="M288.822 498.96H311.638C312.343 498.96 312.957 499.221 313.478 499.742C313.999 500.263 314.26 500.877 314.26 501.582V503.928C314.26 504.633 313.999 505.247 313.478 505.768C312.957 506.289 312.343 506.55 311.638 506.55H288.822C288.117 506.55 287.503 506.289 286.982 505.768C286.461 505.247 286.2 504.633 286.2 503.928V501.582C286.2 500.877 286.461 500.263 286.982 499.742C287.503 499.221 288.117 498.96 288.822 498.96ZM316.514 530.884C316.667 531.589 316.545 532.264 316.146 532.908C315.747 533.521 315.195 533.905 314.49 534.058C309.154 535.193 304.324 535.76 300 535.76C294.357 535.76 289.957 534.794 286.798 532.862C283.639 530.93 282.06 528.369 282.06 525.18C282.06 523.555 282.489 521.929 283.348 520.304C284.207 518.648 285.694 516.731 287.81 514.554C288.331 514.033 288.96 513.757 289.696 513.726C290.463 513.665 291.153 513.849 291.766 514.278L293.974 515.842C294.526 516.241 294.817 516.777 294.848 517.452C294.909 518.127 294.71 518.709 294.25 519.2C292.103 521.469 291.03 523.156 291.03 524.26C291.03 525.364 291.766 526.253 293.238 526.928C294.741 527.603 296.995 527.94 300 527.94C303.649 527.94 307.943 527.388 312.88 526.284C313.585 526.131 314.229 526.253 314.812 526.652C315.425 527.02 315.793 527.541 315.916 528.216L316.514 530.884Z" fill="#799FC2" fill-opacity="0.5"/>
<path d="M392.876 511.84C397.292 511.84 400.619 512.714 402.858 514.462C405.097 516.179 406.216 518.602 406.216 521.73C406.216 526.115 404.637 529.519 401.478 531.942C398.319 534.334 393.689 535.53 387.586 535.53C384.795 535.53 381.974 535.438 379.122 535.254C378.386 535.223 377.757 534.932 377.236 534.38C376.745 533.828 376.485 533.184 376.454 532.448L376.408 529.872C376.377 529.167 376.607 528.584 377.098 528.124C377.619 527.633 378.217 527.403 378.892 527.434C381.591 527.618 384.259 527.71 386.896 527.71C393.336 527.71 396.556 525.947 396.556 522.42C396.556 520.948 395.958 519.859 394.762 519.154C393.566 518.418 391.557 518.05 388.736 518.05C384.657 518.05 379.766 519.307 374.062 521.822C373.387 522.129 372.713 522.159 372.038 521.914C371.394 521.638 370.903 521.178 370.566 520.534L369.876 519.246C369.569 518.571 369.508 517.881 369.692 517.176C369.907 516.471 370.321 515.919 370.934 515.52L386.896 505.446V505.4H375.258C374.553 505.4 373.939 505.139 373.418 504.618C372.897 504.097 372.636 503.483 372.636 502.778V500.892C372.636 500.187 372.897 499.573 373.418 499.052C373.939 498.531 374.553 498.27 375.258 498.27H399.454C400.159 498.27 400.773 498.531 401.294 499.052C401.815 499.573 402.076 500.187 402.076 500.892V503.238C402.076 504.955 401.294 506.213 399.73 507.01L389.656 512.07L389.702 512.116C390.929 511.932 391.987 511.84 392.876 511.84Z" fill="#799FC2" fill-opacity="0.5"/>
<path d="M491.524 500.916C492.107 501.499 492.812 501.79 493.64 501.79C494.468 501.79 495.173 501.499 495.756 500.916C496.339 500.333 496.63 499.628 496.63 498.8C496.63 497.972 496.339 497.267 495.756 496.684C495.173 496.101 494.468 495.81 493.64 495.81C492.812 495.81 492.107 496.101 491.524 496.684C490.941 497.267 490.65 497.972 490.65 498.8C490.65 499.628 490.941 500.333 491.524 500.916ZM481.68 524.33V524.008C481.68 523.732 481.573 523.579 481.358 523.548C480.837 523.456 480.331 523.41 479.84 523.41C477.693 523.41 476.62 524.023 476.62 525.25C476.62 525.894 476.819 526.369 477.218 526.676C477.647 526.952 478.368 527.09 479.38 527.09C480.913 527.09 481.68 526.17 481.68 524.33ZM493.64 491.9C495.541 491.9 497.167 492.575 498.516 493.924C499.865 495.273 500.54 496.899 500.54 498.8C500.54 500.701 499.865 502.327 498.516 503.676C497.167 505.025 495.541 505.7 493.64 505.7C492.475 505.7 491.355 505.409 490.282 504.826C490.221 504.765 490.144 504.765 490.052 504.826C489.991 504.857 489.96 504.918 489.96 505.01V506.942C489.96 507.187 490.083 507.31 490.328 507.31H494.698C495.403 507.31 496.017 507.571 496.538 508.092C497.059 508.613 497.32 509.227 497.32 509.932V511.818C497.32 512.523 497.059 513.137 496.538 513.658C496.017 514.179 495.403 514.44 494.698 514.44H490.328C490.083 514.44 489.96 514.578 489.96 514.854V519.27C489.96 519.515 490.067 519.715 490.282 519.868C491.969 521.156 494.023 523.088 496.446 525.664C496.937 526.185 497.182 526.814 497.182 527.55C497.182 528.255 496.921 528.869 496.4 529.39L494.79 531C494.269 531.491 493.655 531.736 492.95 531.736C492.245 531.736 491.647 531.475 491.156 530.954C490.359 530.095 489.807 529.513 489.5 529.206C489.316 529.022 489.178 529.053 489.086 529.298C488.35 530.954 487.215 532.227 485.682 533.116C484.179 534.005 482.385 534.45 480.3 534.45C472.633 534.45 468.8 531.383 468.8 525.25C468.8 519.27 472.633 516.28 480.3 516.28H481.266C481.542 516.28 481.68 516.157 481.68 515.912V514.854C481.68 514.578 481.542 514.44 481.266 514.44H473.262C472.557 514.44 471.943 514.179 471.422 513.658C470.901 513.137 470.64 512.523 470.64 511.818V509.932C470.64 509.227 470.901 508.613 471.422 508.092C471.943 507.571 472.557 507.31 473.262 507.31H481.266C481.542 507.31 481.68 507.187 481.68 506.942V504.504C481.68 504.228 481.542 504.09 481.266 504.09H473.262C472.557 504.09 471.943 503.829 471.422 503.308C470.901 502.787 470.64 502.173 470.64 501.468V499.352C470.64 498.647 470.901 498.033 471.422 497.512C471.943 496.991 472.557 496.73 473.262 496.73H486.648C486.924 496.73 487.108 496.607 487.2 496.362C487.721 495.043 488.565 493.97 489.73 493.142C490.895 492.314 492.199 491.9 493.64 491.9ZM465.626 496.224C466.301 496.285 466.837 496.607 467.236 497.19C467.635 497.773 467.757 498.401 467.604 499.076C466.561 503.921 466.04 509.196 466.04 514.9C466.04 520.604 466.561 525.879 467.604 530.724C467.757 531.429 467.635 532.058 467.236 532.61C466.837 533.193 466.301 533.515 465.626 533.576L462.636 533.944C461.9 534.036 461.225 533.867 460.612 533.438C459.999 533.009 459.615 532.426 459.462 531.69C458.327 526.415 457.76 520.819 457.76 514.9C457.76 508.981 458.327 503.385 459.462 498.11C459.615 497.374 459.999 496.791 460.612 496.362C461.225 495.933 461.9 495.764 462.636 495.856L465.626 496.224Z" fill="#799FC2" fill-opacity="0.5"/>
<path d="M526.964 414.56C528.681 414.56 529.939 414.56 530.736 414.56C531.533 414.56 532.453 414.667 533.496 414.882C534.569 415.066 535.275 415.219 535.612 415.342C535.98 415.465 536.425 415.863 536.946 416.538C537.467 417.213 537.774 417.795 537.866 418.286C537.958 418.777 538.081 419.712 538.234 421.092C538.387 422.441 538.464 423.653 538.464 424.726C538.464 425.799 538.464 427.471 538.464 429.74C538.464 435.843 537.713 440.213 536.21 442.85C534.738 445.457 532.576 446.76 529.724 446.76C527.669 446.76 525.139 446.392 522.134 445.656C521.429 445.472 520.892 445.058 520.524 444.414C520.156 443.77 520.064 443.095 520.248 442.39L520.8 440.09C520.984 439.415 521.383 438.894 521.996 438.526C522.609 438.158 523.269 438.051 523.974 438.204C525.937 438.695 527.24 438.94 527.884 438.94C529.111 438.94 529.724 435.413 529.724 428.36C529.724 425.171 529.601 423.3 529.356 422.748C529.141 422.196 528.344 421.92 526.964 421.92H523.79C523.514 421.92 523.345 422.043 523.284 422.288C521.628 429.709 519.466 437.192 516.798 444.736C516.553 445.441 516.093 445.947 515.418 446.254C514.774 446.591 514.115 446.653 513.44 446.438L511.278 445.702C510.603 445.487 510.097 445.058 509.76 444.414C509.453 443.801 509.423 443.141 509.668 442.436C511.876 435.873 513.762 429.173 515.326 422.334C515.387 422.058 515.295 421.92 515.05 421.92H512.106C511.401 421.92 510.787 421.659 510.266 421.138C509.745 420.617 509.484 420.003 509.484 419.298V417.182C509.484 416.477 509.745 415.863 510.266 415.342C510.787 414.821 511.401 414.56 512.106 414.56H516.568C516.813 414.56 516.967 414.437 517.028 414.192C517.243 413.119 517.58 411.187 518.04 408.396C518.163 407.66 518.515 407.062 519.098 406.602C519.681 406.111 520.34 405.897 521.076 405.958L523.422 406.142C524.127 406.203 524.71 406.51 525.17 407.062C525.63 407.583 525.814 408.181 525.722 408.856C525.477 410.696 525.201 412.475 524.894 414.192C524.833 414.437 524.94 414.56 525.216 414.56H526.964ZM546.698 414.284C548.63 419.988 550.424 425.999 552.08 432.316C552.264 432.991 552.172 433.635 551.804 434.248C551.436 434.861 550.899 435.245 550.194 435.398L547.25 436.134C546.545 436.287 545.885 436.18 545.272 435.812C544.659 435.444 544.26 434.907 544.076 434.202C542.604 428.59 540.795 422.61 538.648 416.262C538.433 415.587 538.495 414.943 538.832 414.33C539.169 413.717 539.675 413.333 540.35 413.18L543.294 412.444C543.999 412.26 544.674 412.352 545.318 412.72C545.993 413.057 546.453 413.579 546.698 414.284Z" fill="#799FC2" fill-opacity="0.5"/>
<path d="M617.524 344.916C618.107 345.499 618.812 345.79 619.64 345.79C620.468 345.79 621.173 345.499 621.756 344.916C622.339 344.333 622.63 343.628 622.63 342.8C622.63 341.972 622.339 341.267 621.756 340.684C621.173 340.101 620.468 339.81 619.64 339.81C618.812 339.81 618.107 340.101 617.524 340.684C616.941 341.267 616.65 341.972 616.65 342.8C616.65 343.628 616.941 344.333 617.524 344.916ZM607.68 368.33V368.008C607.68 367.732 607.573 367.579 607.358 367.548C606.837 367.456 606.331 367.41 605.84 367.41C603.693 367.41 602.62 368.023 602.62 369.25C602.62 369.894 602.819 370.369 603.218 370.676C603.647 370.952 604.368 371.09 605.38 371.09C606.913 371.09 607.68 370.17 607.68 368.33ZM619.64 335.9C621.541 335.9 623.167 336.575 624.516 337.924C625.865 339.273 626.54 340.899 626.54 342.8C626.54 344.701 625.865 346.327 624.516 347.676C623.167 349.025 621.541 349.7 619.64 349.7C618.475 349.7 617.355 349.409 616.282 348.826C616.221 348.765 616.144 348.765 616.052 348.826C615.991 348.857 615.96 348.918 615.96 349.01V350.942C615.96 351.187 616.083 351.31 616.328 351.31H620.698C621.403 351.31 622.017 351.571 622.538 352.092C623.059 352.613 623.32 353.227 623.32 353.932V355.818C623.32 356.523 623.059 357.137 622.538 357.658C622.017 358.179 621.403 358.44 620.698 358.44H616.328C616.083 358.44 615.96 358.578 615.96 358.854V363.27C615.96 363.515 616.067 363.715 616.282 363.868C617.969 365.156 620.023 367.088 622.446 369.664C622.937 370.185 623.182 370.814 623.182 371.55C623.182 372.255 622.921 372.869 622.4 373.39L620.79 375C620.269 375.491 619.655 375.736 618.95 375.736C618.245 375.736 617.647 375.475 617.156 374.954C616.359 374.095 615.807 373.513 615.5 373.206C615.316 373.022 615.178 373.053 615.086 373.298C614.35 374.954 613.215 376.227 611.682 377.116C610.179 378.005 608.385 378.45 606.3 378.45C598.633 378.45 594.8 375.383 594.8 369.25C594.8 363.27 598.633 360.28 606.3 360.28H607.266C607.542 360.28 607.68 360.157 607.68 359.912V358.854C607.68 358.578 607.542 358.44 607.266 358.44H599.262C598.557 358.44 597.943 358.179 597.422 357.658C596.901 357.137 596.64 356.523 596.64 355.818V353.932C596.64 353.227 596.901 352.613 597.422 352.092C597.943 351.571 598.557 351.31 599.262 351.31H607.266C607.542 351.31 607.68 351.187 607.68 350.942V348.504C607.68 348.228 607.542 348.09 607.266 348.09H599.262C598.557 348.09 597.943 347.829 597.422 347.308C596.901 346.787 596.64 346.173 596.64 345.468V343.352C596.64 342.647 596.901 342.033 597.422 341.512C597.943 340.991 598.557 340.73 599.262 340.73H612.648C612.924 340.73 613.108 340.607 613.2 340.362C613.721 339.043 614.565 337.97 615.73 337.142C616.895 336.314 618.199 335.9 619.64 335.9ZM591.626 340.224C592.301 340.285 592.837 340.607 593.236 341.19C593.635 341.773 593.757 342.401 593.604 343.076C592.561 347.921 592.04 353.196 592.04 358.9C592.04 364.604 592.561 369.879 593.604 374.724C593.757 375.429 593.635 376.058 593.236 376.61C592.837 377.193 592.301 377.515 591.626 377.576L588.636 377.944C587.9 378.036 587.225 377.867 586.612 377.438C585.999 377.009 585.615 376.426 585.462 375.69C584.327 370.415 583.76 364.819 583.76 358.9C583.76 352.981 584.327 347.385 585.462 342.11C585.615 341.374 585.999 340.791 586.612 340.362C587.225 339.933 587.9 339.764 588.636 339.856L591.626 340.224Z" fill="#799FC2" fill-opacity="0.5"/>
<path d="M698.964 305.56C700.681 305.56 701.939 305.56 702.736 305.56C703.533 305.56 704.453 305.667 705.496 305.882C706.569 306.066 707.275 306.219 707.612 306.342C707.98 306.465 708.425 306.863 708.946 307.538C709.467 308.213 709.774 308.795 709.866 309.286C709.958 309.777 710.081 310.712 710.234 312.092C710.387 313.441 710.464 314.653 710.464 315.726C710.464 316.799 710.464 318.471 710.464 320.74C710.464 326.843 709.713 331.213 708.21 333.85C706.738 336.457 704.576 337.76 701.724 337.76C699.669 337.76 697.139 337.392 694.134 336.656C693.429 336.472 692.892 336.058 692.524 335.414C692.156 334.77 692.064 334.095 692.248 333.39L692.8 331.09C692.984 330.415 693.383 329.894 693.996 329.526C694.609 329.158 695.269 329.051 695.974 329.204C697.937 329.695 699.24 329.94 699.884 329.94C701.111 329.94 701.724 326.413 701.724 319.36C701.724 316.171 701.601 314.3 701.356 313.748C701.141 313.196 700.344 312.92 698.964 312.92H695.79C695.514 312.92 695.345 313.043 695.284 313.288C693.628 320.709 691.466 328.192 688.798 335.736C688.553 336.441 688.093 336.947 687.418 337.254C686.774 337.591 686.115 337.653 685.44 337.438L683.278 336.702C682.603 336.487 682.097 336.058 681.76 335.414C681.453 334.801 681.423 334.141 681.668 333.436C683.876 326.873 685.762 320.173 687.326 313.334C687.387 313.058 687.295 312.92 687.05 312.92H684.106C683.401 312.92 682.787 312.659 682.266 312.138C681.745 311.617 681.484 311.003 681.484 310.298V308.182C681.484 307.477 681.745 306.863 682.266 306.342C682.787 305.821 683.401 305.56 684.106 305.56H688.568C688.813 305.56 688.967 305.437 689.028 305.192C689.243 304.119 689.58 302.187 690.04 299.396C690.163 298.66 690.515 298.062 691.098 297.602C691.681 297.111 692.34 296.897 693.076 296.958L695.422 297.142C696.127 297.203 696.71 297.51 697.17 298.062C697.63 298.583 697.814 299.181 697.722 299.856C697.477 301.696 697.201 303.475 696.894 305.192C696.833 305.437 696.94 305.56 697.216 305.56H698.964ZM718.698 305.284C720.63 310.988 722.424 316.999 724.08 323.316C724.264 323.991 724.172 324.635 723.804 325.248C723.436 325.861 722.899 326.245 722.194 326.398L719.25 327.134C718.545 327.287 717.885 327.18 717.272 326.812C716.659 326.444 716.26 325.907 716.076 325.202C714.604 319.59 712.795 313.61 710.648 307.262C710.433 306.587 710.495 305.943 710.832 305.33C711.169 304.717 711.675 304.333 712.35 304.18L715.294 303.444C715.999 303.26 716.674 303.352 717.318 303.72C717.993 304.057 718.453 304.579 718.698 305.284Z" fill="#799FC2" fill-opacity="0.5"/>
<defs>
<linearGradient id="paint0_linear" x1="94.9069" y1="448.635" x2="976.354" y2="456.533" gradientUnits="userSpaceOnUse">
<stop offset="0.276042" stop-color="#E2BEDF"/>
<stop offset="0.505208" stop-color="#BED7E2" stop-opacity="0.21"/>
<stop offset="0.708333" stop-color="#C1E2BE"/>
</linearGradient>
</defs>
</svg>
