<svg width="1661" height="1271" viewBox="0 0 1661 1271" fill="none" xmlns="http://www.w3.org/2000/svg">
<rect width="1661" height="1271" fill="white"/>
<g filter="url(#filter0_d)">
<path fill-rule="evenodd" clip-rule="evenodd" d="M836.685 324.383C841.868 318.163 847.05 311.943 852.025 305.723C854.097 303.028 856.378 300.747 858.45 299.711C859.901 299.089 860.316 297.845 860.316 296.601C860.316 294.735 857.829 291.832 855.756 290.381C850.366 286.649 847.257 285.612 845.184 285.612C844.148 285.612 843.319 285.82 842.697 286.234C841.246 287.478 838.966 288.308 837.307 288.722C826.321 291.418 812.848 294.32 799.167 296.186C797.716 296.393 796.472 296.393 794.606 296.393H791.29C790.461 296.393 790.046 296.808 790.046 297.43C790.046 298.259 793.363 301.991 798.13 306.138C798.752 306.553 799.374 306.76 799.996 306.76C800.899 306.76 801.803 306.438 802.907 306.045C803.575 305.807 804.318 305.543 805.178 305.309C815.128 301.991 828.809 298.881 841.66 296.601C836.064 307.175 826.321 319.614 812.64 335.579C804.349 344.908 793.985 356.312 780.511 366.885C779.682 367.507 779.475 368.129 779.475 368.751C779.475 369.995 780.304 370.825 781.755 370.825C782.058 370.825 782.362 370.713 782.747 370.573C782.887 370.521 783.039 370.465 783.206 370.41C799.374 361.495 812.848 349.884 825.907 336.201C825.907 362.946 825.285 382.435 824.248 395.082C824.115 396.212 823.94 397.469 823.763 398.738C823.387 401.429 823.005 404.173 823.005 405.863C823.005 407.936 823.626 410.424 824.87 413.12C826.114 416.022 828.394 418.096 830.881 418.096C835.027 418.096 836.064 415.193 836.064 410.632L836.685 331.225C840.632 335.336 844.187 339.579 847.765 343.848L847.766 343.849C848.698 344.961 849.631 346.075 850.574 347.189C855.341 352.787 856.585 354.031 859.487 354.031C862.389 354.031 864.876 351.336 864.876 348.018C864.876 342.42 861.974 339.933 857.207 336.615C852.439 333.505 846.013 330.603 836.685 326.663V324.383ZM921.672 271.099C921.672 261.77 923.538 255.342 924.367 253.684C924.478 253.463 924.581 253.258 924.678 253.067C925.487 251.466 925.818 250.812 925.818 249.33C925.818 247.257 923.953 245.805 921.051 244.354C915.039 241.659 910.064 240 907.577 240C906.541 240 905.919 240.622 905.919 241.659C905.919 242.281 906.126 243.11 906.541 244.147C907.577 246.842 908.406 250.366 909.028 254.72C909.064 255.295 909.106 255.901 909.151 256.549C909.366 259.645 909.65 263.72 909.65 270.063V281.466C900.322 282.295 889.958 283.539 881.459 284.576C878.764 282.71 871.717 279.6 869.851 279.6C868.4 279.6 867.571 280.222 867.571 281.673C867.571 282.295 867.778 283.124 868.193 283.954C870.888 288.722 871.717 297.015 872.339 305.101L872.37 305.537C873.188 316.998 873.997 328.317 873.997 344.286C873.997 349.055 875.448 353.824 877.106 355.275C878.143 356.311 879.386 356.933 880.837 356.933C882.496 356.933 884.568 355.689 884.776 353.616C884.983 352.372 884.983 351.128 884.983 350.299C893.067 349.262 900.944 348.433 909.028 347.811C908.821 360.873 908.613 374.349 908.613 389.277V395.082C908.613 409.384 911.166 419.224 911.684 424.163C912.296 430 912.296 432.943 912.296 432.943C912.296 432.943 912.083 465.073 910.434 480.126C909.931 484.708 908.393 490.017 908.487 494.517C908.488 494.589 908.49 494.659 908.491 494.727C908.509 495.692 908.519 496.194 908.974 497.313C909.461 498.511 912.083 511.619 912.083 523.229V527.79C912.083 532.352 912.083 537.12 911.876 541.889C906.694 542.926 897.781 544.377 890.526 545.206C885.551 545.828 880.369 546.45 876.43 546.865C875.186 547.072 874.772 547.279 874.772 548.109C874.772 549.145 877.259 551.633 880.161 554.536C881.405 555.572 882.649 556.195 884.1 556.195C884.929 556.195 887.001 555.78 888.038 555.573C890.404 555.142 892.845 554.712 895.334 554.273L895.341 554.272C900.046 553.442 904.925 552.582 909.803 551.633C900.268 574.439 884.514 597.246 869.59 613.417C868.968 614.039 868.761 614.869 868.761 615.491C868.761 616.32 869.175 617.149 870.212 617.149C870.626 617.149 871.455 616.735 872.284 616.113C887.416 604.502 900.683 590.611 911.669 572.366C911.461 591.026 911.047 610.1 910.425 628.138C910.218 634.979 910.01 641.614 908.974 647.834C908.953 648.022 908.932 648.209 908.911 648.393C908.727 650.035 908.559 651.526 908.559 653.017C908.559 654.196 908.75 655.136 908.954 656.138C909.187 657.284 909.192 658.666 909.436 660.274C909.623 661.5 911.724 666.674 911.804 670.154C912 678.618 911.933 691.272 911.867 703.5C911.836 709.457 911.804 715.312 911.804 720.533C911.804 723.531 910.61 726.092 910.919 728.172C895.976 730.427 883.449 737.066 874.714 744.203C863.79 753.309 857.569 763.78 857.569 769.547C857.721 776.072 858.176 778.652 859.086 783.053C860.755 791.855 862.576 797.925 865.762 803.995C869.252 810.673 873.197 811.431 875.624 811.431C879.721 811.28 882.907 808.396 887.004 804.299C901.114 791.248 912.19 772.43 919.473 753.157C920.838 749.06 921.748 745.873 921.748 744.052C921.748 742.526 921.006 740.841 920.102 738.789C919.387 737.165 918.571 735.312 917.94 733.125C919.269 733.03 919.535 733.054 919.882 733.085C920.09 733.104 920.327 733.125 920.838 733.125C931.914 733.125 939.197 735.553 945.266 740.713C953.611 747.846 957.707 756.951 957.707 770.761C957.707 790.944 946.935 807.789 923.721 822.358C922.811 822.965 922.507 823.572 922.507 824.179C922.507 825.393 923.569 826 924.783 826C925.238 826 925.39 826 926.755 825.393C958.162 811.735 968.48 792.31 968.48 772.734C968.48 757.71 962.714 747.087 952.852 738.74C945.873 732.518 936.162 727.359 921.748 727.359C920.164 727.359 918.601 727.41 917.059 727.51C916.881 725.157 917.059 723.258 917.059 720.533C917.059 711.5 916.973 678.773 918.438 673.464C919.75 668.709 920.644 666.047 921.204 660.896C923.475 640 922.048 634.572 922.209 609.26C922.311 593.365 922.415 577.088 922.655 565.732C925.542 569.075 927.983 572.641 929.571 574.96C930.149 575.805 930.614 576.485 930.946 576.927C933.641 580.867 936.128 583.355 938.823 583.355C942.14 583.355 943.591 581.281 943.591 577.964C943.591 572.988 939.86 569.256 935.299 566.561C931.154 564.073 927.215 562.207 922.655 561.17C922.655 560.134 922.707 559.045 922.759 557.957C922.81 556.868 922.862 555.78 922.862 554.743V549.56C924.548 549.319 926.198 549.078 927.814 548.842L927.835 548.839L927.838 548.839C931.777 548.264 935.507 547.72 939.03 547.279C943.176 546.865 945.871 546.035 945.871 543.34C945.871 541.06 943.591 539.194 941.311 538.157C939.445 537.328 937.787 536.706 936.128 536.706C934.47 536.706 933.019 537.12 930.739 538.157C929.495 538.779 926.386 539.401 923.069 540.023C923.069 537.923 923.123 535.877 923.175 533.856V533.855C923.226 531.886 923.277 529.942 923.277 527.998C923.484 519.705 923.899 512.034 924.728 509.96C926.179 506.643 926.386 505.606 926.386 504.362C926.386 503.533 926.179 502.704 925.764 502.082C925.09 501.044 924.216 499.501 923.236 497.771C922.33 496.171 921.089 494.521 919.813 492.825C917.179 489.323 915.393 485.62 915.082 481.725C913.859 466.411 916.082 434.556 916.082 434.556C916.082 434.556 916.773 425.367 917.353 419.491C918.481 408.061 920.848 402.4 921.051 390.313C921.061 389.504 921.072 388.698 921.083 387.896L921.107 386.067L921.107 386.062C921.294 371.97 921.465 359.047 921.465 346.982C929.757 346.36 938.048 345.945 946.339 345.53C946.339 347.189 946.961 349.47 948.412 351.543C949.656 352.994 951.107 354.031 953.18 354.031C954.631 354.031 955.875 352.372 956.704 349.884C958.02 346.121 958.484 342.017 959.178 335.866C959.249 335.239 959.322 334.591 959.398 333.92C960.849 323.346 962.508 310.906 963.544 302.199C964.373 295.979 964.581 294.527 966.861 292.04C967.897 291.003 968.519 289.552 968.519 287.893C968.519 285.612 967.483 284.161 963.13 280.844C958.984 277.734 956.289 276.283 954.216 276.283C952.973 276.283 951.936 276.49 951.107 276.905C949.241 277.734 948.205 278.149 946.547 278.149C940.387 278.511 932.961 279.19 925.098 279.909C923.964 280.013 922.822 280.117 921.672 280.222V271.099ZM884.568 342.006C884.568 339.241 884.384 333.713 884.2 328.184C884.108 325.42 884.016 322.655 883.946 320.236C892.445 319.2 900.944 318.163 909.443 317.541C909.235 321.48 909.235 325.627 909.235 329.566C909.235 332.883 909.235 336.408 909.028 339.725C900.944 340.347 892.238 341.176 884.568 342.006ZM940.204 315.841L940.206 315.841C943.361 315.724 946.509 315.608 949.656 315.468C949.241 322.724 948.827 329.981 947.998 337.237C946.53 337.322 945.12 337.403 943.759 337.481L943.743 337.482C935.115 337.976 928.444 338.359 921.465 338.896V316.712C927.782 316.3 934.009 316.07 940.204 315.841ZM909.443 309.662C900.944 310.284 892.238 311.321 883.739 312.565C883.739 309.416 883.558 304.912 883.376 300.364C883.282 298.025 883.188 295.674 883.117 293.491C891.823 292.247 900.737 291.21 909.65 290.381L909.443 309.662ZM921.672 289.137C930.793 288.308 939.914 287.686 948.412 287.271C950.278 287.271 951.314 287.478 951.314 289.966V290.796C951.107 295.149 950.692 301.784 950.071 309.248C946.754 307.589 943.23 306.138 938.67 306.138C938.148 306.138 937.599 306.299 936.831 306.524C935.463 306.926 933.398 307.531 929.549 307.797C927.269 308.004 924.574 308.211 921.465 308.419L921.672 289.137ZM847.672 265.916C847.672 261.562 842.075 254.72 837.929 252.232C829.016 246.635 819.895 243.525 816.786 243.525C815.128 243.525 814.713 243.939 814.713 244.976C814.713 245.391 814.92 246.013 815.542 246.842C818.684 251.279 824.957 258.188 829.072 262.719C829.572 263.27 830.04 263.786 830.467 264.257C834.82 268.611 838.758 271.929 842.282 271.929C846.013 271.929 847.672 269.648 847.672 265.916ZM992.303 546.657C990.851 546.796 989.469 546.934 988.164 547.065C985.554 547.326 983.251 547.556 981.317 547.694L980.911 547.736C973.03 548.544 967.103 549.152 960.174 549.56C958.515 549.767 957.893 550.182 957.893 550.804C957.893 551.426 959.552 553.914 963.283 557.646C963.905 558.268 964.527 558.475 965.148 558.475C965.77 558.475 967.429 558.268 968.465 558.06C977.171 556.609 985.048 555.573 992.717 554.743V570.086C990.99 570.243 989.275 570.4 987.597 570.554L987.544 570.558C982.599 571.012 977.974 571.435 974.269 571.744C968.672 572.366 961.417 572.781 953.333 573.195C951.468 573.403 950.846 573.817 950.846 574.439C950.846 575.891 952.711 578.586 955.821 581.074C956.857 581.903 957.893 582.318 958.515 582.318C959.137 582.318 960.795 582.111 961.832 581.903C969.294 580.867 980.695 579.623 992.717 578.379V608.441C992.717 621.776 992.553 631.648 992.431 638.942L992.431 638.944C992.359 643.217 992.303 646.605 992.303 649.285C992.303 650.529 991.888 651.566 990.437 651.566C987.449 651.566 981.229 649.842 977.757 648.88C976.412 648.507 975.479 648.249 975.305 648.249C974.684 648.249 974.269 648.663 974.269 649.078C974.269 649.7 974.476 650.322 974.891 650.944C976.964 654.054 978.829 656.749 982.146 660.274C985.255 663.591 988.779 666.701 992.303 669.189C993.547 670.225 994.376 670.64 995.205 670.64C996.241 670.64 997.278 669.811 998.314 668.359C1001.63 664.42 1003.29 657.786 1003.29 646.175C1003.29 640.485 1003.19 635.035 1003.09 629.385L1003.09 629.379L1003.09 629.373C1002.99 623.294 1002.87 616.983 1002.87 609.893V608.441C1012.2 619.015 1020.49 627.723 1031.48 638.504C1037.49 644.102 1039.77 645.761 1044.12 645.761C1051.38 645.761 1059.46 644.309 1063.4 643.065C1064.65 642.651 1065.47 642.029 1065.47 641.199C1065.47 640.577 1064.85 639.955 1063.4 639.333C1060.42 638 1057.38 636.765 1054.39 635.549C1047.6 632.793 1041.07 630.139 1036.04 626.686C1025.88 620.052 1018.63 614.454 1010.96 608.027C1019.25 605.539 1027.54 602.014 1035.63 598.075C1035.99 597.891 1036.34 597.706 1036.69 597.522C1037.91 596.877 1039.13 596.232 1041.22 595.587C1042.88 594.965 1043.5 593.928 1043.5 592.892C1043.5 592.062 1043.09 591.233 1042.47 590.404C1040.6 587.501 1033.14 581.281 1031.07 581.281C1030.03 581.281 1029.2 582.111 1029.2 583.977C1029.2 585.843 1027.54 589.16 1025.05 591.648C1019.87 596.831 1013.03 601.807 1007.64 605.332C1007.06 604.834 1006.35 604.27 1005.64 603.706C1004.57 602.86 1003.5 602.014 1002.87 601.392V577.549C1016.14 576.305 1029.82 575.476 1041.84 575.476C1045.78 575.269 1049.31 574.854 1049.31 571.537C1049.31 569.878 1046.2 566.976 1041.64 565.317C1039.56 564.488 1037.91 564.073 1036.25 564.073C1035.21 564.073 1033.97 564.28 1032.93 564.695C1030.65 565.732 1026.71 566.354 1019.04 567.183C1014.07 567.805 1008.68 568.427 1003.08 568.842C1003.08 563.866 1003.08 558.682 1003.5 553.499C1011.71 552.661 1021.68 552.094 1028.82 551.688C1030.51 551.592 1032.04 551.505 1033.35 551.426C1038.11 551.426 1039.98 550.804 1039.98 548.109C1039.98 546.45 1038.32 544.584 1034.17 542.511C1032.1 541.474 1030.44 541.267 1028.99 541.267C1027.13 541.267 1025.68 541.682 1024.22 542.304C1021.94 543.133 1019.25 543.547 1016.35 543.962C1012.41 544.584 1008.26 544.999 1003.91 545.413L1004.33 543.755C1004.74 542.096 1005.15 540.23 1005.15 538.572C1005.15 536.913 1003.91 535.254 998.314 532.559C1010.96 531.108 1024.02 530.071 1037.49 529.864C1041.22 529.864 1044.75 529.034 1044.75 525.925C1044.75 524.266 1041.84 521.778 1037.28 519.912C1035 519.083 1033.35 518.875 1031.69 518.875C1030.65 518.875 1029.61 518.875 1028.58 519.29C1026.3 520.327 1022.36 521.156 1014.9 522.4C1012.82 522.777 1010.75 522.983 1008.83 523.173L1008.72 523.184C1008.57 523.199 1008.42 523.214 1008.26 523.229C1013.45 518.875 1018.21 514.314 1021.74 510.168C1023.19 508.716 1025.26 506.643 1027.54 504.777C1028.79 503.74 1029.2 502.704 1029.2 501.667C1029.2 500.423 1027.75 498.557 1025.68 496.691C1022.36 493.789 1017.18 491.093 1015.93 491.093C1014.9 491.093 1014.48 491.715 1014.48 492.959C1014.48 493.404 1014.54 494.027 1014.6 494.605C1014.65 495.106 1014.69 495.573 1014.69 495.862C1014.69 498.35 1014.07 501.252 1012.62 504.362C1009.92 510.79 1005.98 517.631 1001.42 524.059C996.116 524.691 991.27 525.168 986.559 525.633L986.557 525.633C983.541 525.931 980.579 526.223 977.586 526.547C972.196 527.169 964.734 527.583 956.65 527.998C954.784 528.205 954.162 528.62 954.162 529.242C954.162 530.278 956.65 533.596 959.552 536.084C960.174 536.498 961.003 536.913 962.661 536.913C963.673 536.913 965.784 536.638 967.428 536.424C967.805 536.375 968.156 536.33 968.465 536.291C974.269 535.462 981.939 534.425 990.645 533.388C991.474 536.291 991.888 539.194 992.096 542.925L992.303 546.657ZM982.56 513.899C982.56 510.79 981.524 507.68 976.342 502.911C970.538 497.521 965.148 495.447 963.49 495.447C962.868 495.447 962.454 495.655 962.454 496.276C962.454 496.58 962.565 496.995 962.706 497.52C962.757 497.713 962.813 497.921 962.868 498.142C964.734 503.326 967.014 508.509 969.087 512.655C971.782 517.424 974.062 519.912 977.586 519.912C980.488 519.912 982.56 517.424 982.56 513.899ZM952.919 594.136C956.028 598.282 959.759 601.392 963.283 604.087C966.599 606.783 969.916 608.441 971.989 608.441C974.476 608.441 976.342 606.161 976.342 603.673C976.342 600.77 974.476 597.453 969.087 594.758C963.905 592.27 958.308 591.648 954.577 591.44C953.333 591.44 952.089 591.648 952.089 592.477C952.089 592.892 952.297 593.306 952.919 594.136ZM981.939 619.637C982.146 619.223 982.353 618.808 982.353 618.393C982.353 617.564 981.524 616.735 980.695 616.735C980.28 616.735 979.658 616.942 979.244 617.357C971.113 623.506 962.602 627.757 954.983 631.563C954.638 631.735 954.296 631.907 953.955 632.077C952.089 633.114 950.431 633.528 948.98 633.528C948.33 633.528 947.623 633.358 946.948 633.196C946.333 633.048 945.743 632.906 945.249 632.906C944.005 632.906 943.591 633.528 943.591 634.358C943.591 637.26 948.566 642.651 951.26 645.139C952.919 646.797 953.955 647.419 954.991 647.419C956.235 647.419 957.272 646.383 958.308 645.346C958.753 644.9 959.252 644.322 959.832 643.649L959.833 643.648C960.873 642.441 962.175 640.93 963.905 639.333L964.239 639.01C970.928 632.522 976.433 627.183 981.939 619.637ZM912.498 738.118C912.513 736.367 912.528 734.583 911.867 733.79C898.364 736.673 882.452 746.176 872.741 757.71C867.431 764.083 863.941 769.85 863.941 776.376C863.941 782.75 866.369 792.614 872.286 799.898C873.5 801.416 874.714 802.174 876.079 802.174C877.293 802.174 878.507 801.567 880.024 800.201C893.376 787.606 905.362 766.36 910.824 748.756C911.886 745.418 912.493 741.775 912.493 738.892C912.493 738.637 912.495 738.378 912.498 738.118Z" fill="url(#paint0_linear)"/>
</g>
<g filter="url(#filter1_d)">
<path d="M767.779 1107.44C758.839 1106.51 749.977 1105.16 741.191 1103.39C732.406 1101.62 724.256 1097.55 716.742 1091.19C707.11 1081.56 699.789 1070.77 694.781 1058.82C689.772 1046.88 685.65 1029.58 682.415 1006.92L680.797 1007.15C672.473 1010.54 663.88 1013 655.017 1014.55C646.155 1016.09 637.003 1017.53 627.562 1018.88L618.892 1015.99C616.966 1014.06 615.386 1011.67 614.153 1008.82C612.92 1005.97 612.381 1003.16 612.535 1000.38L615.426 991.712C624.944 987.05 635.078 983.814 645.829 982.003C656.58 980.193 667.774 977.631 679.412 974.318C678.333 966.766 676.754 957.633 674.674 946.921C671.67 929.735 670.322 917.404 670.631 909.929C664.696 910.776 657.876 912.163 650.169 914.089L641.499 911.198C639.573 909.271 638.032 907.152 636.876 904.84C635.72 902.528 635.2 899.85 635.316 896.806L638.206 888.136C654.853 881.355 672.791 875.904 692.019 871.782C711.248 867.66 730.495 863.673 749.762 859.821L758.432 862.712C760.358 864.639 761.9 866.758 763.056 869.07C764.211 871.382 764.712 873.926 764.558 876.7L761.725 885.774C744.539 892.632 726.177 898.006 706.64 901.897C702.093 902.821 700.09 904.208 700.629 906.058C701.13 907.638 701.669 910.451 702.247 914.497C702.825 918.543 703.422 922.724 704.038 927.04L709.699 966.691L716.173 965.767C732.203 962.377 748.06 958.736 763.743 954.846C779.427 950.955 795.322 947.584 811.429 944.734L820.099 947.624C822.025 949.551 823.566 951.671 824.722 953.983C825.878 956.295 826.379 958.838 826.225 961.613L823.334 970.282C806.148 977.14 788.21 982.591 769.521 986.636C750.832 990.681 732.124 994.591 713.396 998.366L714.783 1008.08C717.864 1025.8 721.197 1038.54 724.78 1046.28C728.363 1054.03 732.813 1061.1 738.13 1067.5C745.143 1070.35 752.175 1072.37 759.227 1073.57C766.278 1074.76 773.811 1074.51 781.827 1072.82C789.919 1071.66 797.683 1070.14 805.12 1068.25C812.557 1066.36 819.937 1064.07 827.258 1061.38L837.662 1064.84C839.588 1066.77 841.13 1068.89 842.285 1071.2C843.441 1073.51 843.981 1076.33 843.903 1079.64L841.07 1088.72C830.358 1094.65 818.701 1098.79 806.101 1101.14C793.5 1103.49 780.726 1105.59 767.779 1107.44Z" fill="#A38B4C"/>
<path d="M767.827 1109.96L767.521 1109.92C758.502 1108.99 749.561 1107.63 740.696 1105.84C731.458 1103.98 722.93 1099.7 715.128 1093.1L715.048 1093.03L714.975 1092.96C705.124 1083.11 697.616 1072.05 692.475 1059.79C687.554 1048.05 683.527 1031.43 680.342 1010.02C672.289 1013.19 663.989 1015.52 655.446 1017.01C646.556 1018.55 637.38 1020 627.915 1021.35L627.331 1021.44L626.771 1021.25L618.102 1018.36L617.542 1018.17L617.124 1017.76C614.946 1015.58 613.199 1012.91 611.858 1009.81C610.49 1006.65 609.861 1003.45 610.039 1000.24L610.058 999.908L610.164 999.591L613.054 990.921L613.386 989.927L614.326 989.467C624.067 984.696 634.433 981.387 645.414 979.538C655.416 977.854 665.818 975.511 676.62 972.507C675.565 965.444 674.099 957.076 672.22 947.397L672.215 947.374L672.211 947.351C669.569 932.235 668.172 920.696 668.091 912.848C662.959 913.691 657.189 914.911 650.775 916.514L650.069 916.691L649.378 916.46L640.709 913.57L640.149 913.383L639.731 912.966C637.625 910.859 635.922 908.523 634.64 905.958C633.265 903.208 632.689 900.099 632.817 896.711L632.831 896.354L632.944 896.015L635.835 887.345L636.198 886.254L637.263 885.821C654.058 878.98 672.137 873.487 691.495 869.338C710.735 865.213 729.994 861.224 749.272 857.37L749.923 857.24L750.553 857.45L759.223 860.34L759.783 860.527L760.2 860.944C762.306 863.051 764.009 865.387 765.292 867.953C766.657 870.683 767.231 873.664 767.054 876.839L767.037 877.149L766.944 877.445L764.111 886.519L763.757 887.655L762.651 888.096C745.315 895.014 726.807 900.43 707.134 904.348M767.827 1109.96L706.64 901.897M767.827 1109.96L768.132 1109.91C781.114 1108.06 793.923 1105.95 806.559 1103.6C819.411 1101.2 831.323 1096.97 842.282 1090.9L843.158 1090.42L843.457 1089.46L846.29 1080.39L846.394 1080.05L846.403 1079.7C846.487 1076.09 845.904 1072.85 844.522 1070.08C843.239 1067.52 841.536 1065.18 839.43 1063.08L839.012 1062.66L838.453 1062.47L828.049 1059L827.217 1058.73L826.394 1059.03C819.153 1061.7 811.857 1063.96 804.505 1065.83C797.16 1067.69 789.483 1069.2 781.473 1070.34L781.391 1070.35L781.309 1070.37C773.558 1072.01 766.344 1072.24 759.644 1071.1C752.977 1069.97 746.314 1068.08 739.654 1065.41C734.655 1059.32 730.453 1052.59 727.049 1045.23C723.614 1037.81 720.327 1025.36 717.253 1007.68L716.205 1000.35C734.171 996.717 752.119 992.96 770.05 989.079C788.87 985.006 806.941 979.515 824.26 972.604L825.338 972.174L825.706 971.073L828.596 962.403L828.702 962.086L828.721 961.751C828.897 958.576 828.323 955.595 826.958 952.865C825.676 950.3 823.973 947.963 821.867 945.857L821.449 945.439L820.889 945.253L812.22 942.362L811.618 942.162L810.993 942.272C794.831 945.132 778.88 948.515 763.141 952.419C747.513 956.296 731.712 959.924 715.737 963.303L711.821 963.863M767.827 1109.96L711.821 963.863M707.134 904.348C707.132 904.348 707.13 904.348 707.129 904.349L706.64 901.897M707.134 904.348C707.136 904.347 707.137 904.347 707.139 904.347L706.64 901.897M707.134 904.348C704.949 904.792 703.723 905.29 703.15 905.686C703.144 905.69 703.138 905.695 703.132 905.699M706.64 901.897C702.093 902.821 700.09 904.208 700.629 906.058M703.132 905.699C703.092 905.561 703.052 905.429 703.012 905.303L700.629 906.058M703.132 905.699C703.661 907.528 704.185 910.385 704.722 914.144L704.725 914.167L704.728 914.191L704.732 914.215L704.735 914.238L704.739 914.262L704.742 914.286L704.745 914.31L704.749 914.333L704.752 914.357L704.756 914.381L704.759 914.405L704.762 914.428L704.766 914.452L704.769 914.476L704.773 914.5L704.776 914.523L704.779 914.547L704.783 914.571L704.786 914.595L704.79 914.618L704.793 914.642L704.796 914.666L704.8 914.69L704.803 914.713L704.806 914.737L704.81 914.761L704.813 914.785L704.817 914.809L704.82 914.832L704.823 914.856L704.827 914.88L704.83 914.904L704.834 914.928L704.837 914.951L704.84 914.975L704.844 914.999L704.847 915.023L704.851 915.047L704.854 915.071L704.857 915.094L704.861 915.118L704.864 915.142L704.868 915.166L704.871 915.19L704.874 915.214L704.878 915.237L704.881 915.261L704.885 915.285L704.888 915.309L704.892 915.333L704.895 915.357L704.898 915.381L704.902 915.404L704.905 915.428L704.909 915.452L704.912 915.476L704.915 915.5L704.919 915.524L704.922 915.548L704.926 915.572L704.929 915.596L704.932 915.619L704.936 915.643L704.939 915.667L704.943 915.691L704.946 915.715L704.95 915.739L704.953 915.763L704.956 915.787L704.96 915.811L704.963 915.835L704.967 915.859L704.97 915.882L704.973 915.906L704.977 915.93L704.98 915.954L704.984 915.978L704.987 916.002L704.991 916.026L704.994 916.05L704.997 916.074L705.001 916.098L705.004 916.122L705.008 916.146L705.011 916.17L705.014 916.194L705.018 916.218L705.021 916.242L705.025 916.266L705.028 916.29L705.032 916.314L705.035 916.338L705.038 916.362L705.042 916.386L705.045 916.41L705.049 916.434L705.052 916.458L705.056 916.482L705.059 916.506L705.062 916.53L705.066 916.554L705.069 916.578L705.073 916.602L705.076 916.626L705.08 916.65L705.083 916.674L705.086 916.698L705.09 916.722L705.093 916.746L705.097 916.77L705.1 916.794L705.104 916.818L705.107 916.842L705.11 916.866L705.114 916.89L705.117 916.914L705.121 916.938L705.124 916.963L705.128 916.987L705.131 917.011L705.135 917.035L705.138 917.059L705.141 917.083L705.145 917.107L705.148 917.131L705.152 917.155L705.155 917.179L705.159 917.203L705.162 917.228L705.166 917.252L705.169 917.276L705.172 917.3L705.176 917.324L705.179 917.348L705.183 917.372L705.186 917.396L705.19 917.42L705.193 917.445L705.197 917.469L705.2 917.493L705.203 917.517L705.207 917.541L705.21 917.565L705.214 917.589L705.217 917.614L705.221 917.638L705.224 917.662L705.228 917.686L705.231 917.71L705.234 917.734L705.238 917.759L705.241 917.783L705.245 917.807L705.248 917.831L705.252 917.855L705.255 917.88L705.259 917.904L705.262 917.928L705.266 917.952L705.269 917.976L705.272 918L705.276 918.025L705.279 918.049L705.283 918.073L705.286 918.097L705.29 918.122L705.293 918.146L705.297 918.17L705.3 918.194L705.304 918.218L705.307 918.243L705.31 918.267L705.314 918.291L705.317 918.315L705.321 918.34L705.324 918.364L705.328 918.388L705.331 918.412L705.335 918.437L705.338 918.461L705.342 918.485L705.345 918.509L705.349 918.534L705.352 918.558L705.356 918.582L705.359 918.607L705.362 918.631L705.366 918.655L705.369 918.679L705.373 918.704L705.376 918.728L705.38 918.752L705.383 918.777L705.387 918.801L705.39 918.825L705.394 918.85L705.397 918.874L705.401 918.898L705.404 918.922L705.408 918.947L705.411 918.971L705.415 918.995L705.418 919.02L705.421 919.044L705.425 919.068L705.428 919.093L705.432 919.117L705.435 919.142L705.439 919.166L705.442 919.19L705.446 919.215L705.449 919.239L705.453 919.263L705.456 919.288L705.46 919.312L705.463 919.336L705.467 919.361L705.47 919.385L705.474 919.41L705.477 919.434L705.481 919.458L705.484 919.483L705.488 919.507L705.491 919.531L705.495 919.556L705.498 919.58L705.501 919.605L705.505 919.629L705.508 919.654L705.512 919.678L705.515 919.702L705.519 919.727L705.522 919.751L705.526 919.776L705.529 919.8L705.533 919.824L705.536 919.849L705.54 919.873L705.543 919.898L705.547 919.922L705.55 919.947L705.554 919.971L705.557 919.996L705.561 920.02L705.564 920.045L705.568 920.069L705.571 920.093L705.575 920.118L705.578 920.142L705.582 920.167L705.585 920.191L705.589 920.216L705.592 920.24L705.596 920.265L705.599 920.289L705.603 920.314L705.606 920.338L705.61 920.363L705.613 920.387L705.617 920.412L705.62 920.436L705.624 920.461L705.627 920.485L705.631 920.51L705.634 920.534L705.638 920.559L705.641 920.583L705.645 920.608L705.648 920.633L705.652 920.657L705.655 920.682L705.659 920.706L705.662 920.731L705.666 920.755L705.669 920.78L705.673 920.804L705.676 920.829L705.68 920.854L705.683 920.878L705.687 920.903L705.69 920.927L705.694 920.952L705.697 920.976L705.701 921.001L705.704 921.026L705.708 921.05L705.711 921.075L705.715 921.099L705.718 921.124L705.722 921.149L705.725 921.173L705.729 921.198L705.732 921.222L705.736 921.247L705.74 921.272L705.743 921.296L705.747 921.321L705.75 921.345L705.754 921.37L705.757 921.395L705.761 921.419L705.764 921.444L705.768 921.469L705.771 921.493L705.775 921.518L705.778 921.543L705.782 921.567L705.785 921.592L705.789 921.617L705.792 921.641L705.796 921.666L705.799 921.691L705.803 921.715L705.806 921.74L705.81 921.765L705.813 921.789L705.817 921.814L705.82 921.839L705.824 921.863L705.828 921.888L705.831 921.913L705.835 921.937L705.838 921.962L705.842 921.987L705.845 922.012L705.849 922.036L705.852 922.061L705.856 922.086L705.859 922.11L705.863 922.135L705.866 922.16L705.87 922.185L705.873 922.209L705.877 922.234L705.88 922.259L705.884 922.284L705.888 922.308L705.891 922.333L705.895 922.358L705.898 922.383L705.902 922.407L705.905 922.432L705.909 922.457L705.912 922.482L705.916 922.506L705.919 922.531L705.923 922.556L705.926 922.581L705.93 922.605L705.934 922.63L705.937 922.655L705.941 922.68L705.944 922.705L705.948 922.729L705.951 922.754L705.955 922.779L705.958 922.804L705.962 922.829L705.965 922.853L705.969 922.878L705.972 922.903L705.976 922.928L705.98 922.953L705.983 922.978L705.987 923.002L705.99 923.027L705.994 923.052L705.997 923.077L706.001 923.102L706.004 923.127L706.008 923.151L706.011 923.176L706.015 923.201L706.019 923.226L706.022 923.251L706.026 923.276L706.029 923.301L706.033 923.325L706.036 923.35L706.04 923.375L706.043 923.4L706.047 923.425L706.051 923.45L706.054 923.475L706.058 923.5L706.061 923.525L706.065 923.549L706.068 923.574L706.072 923.599L706.075 923.624L706.079 923.649L706.083 923.674L706.086 923.699L706.09 923.724L706.093 923.749L706.097 923.774L706.1 923.799L706.104 923.824L706.107 923.849L706.111 923.873L706.115 923.898L706.118 923.923L706.122 923.948L706.125 923.973L706.129 923.998L706.132 924.023L706.136 924.048L706.14 924.073L706.143 924.098L706.147 924.123L706.15 924.148L706.154 924.173L706.157 924.198L706.161 924.223L706.164 924.248L706.168 924.273L706.172 924.298L706.175 924.323L706.179 924.348L706.182 924.373L706.186 924.398L706.189 924.423L706.193 924.448L706.197 924.473L706.2 924.498L706.204 924.523L706.207 924.548L706.211 924.573L706.214 924.598L706.218 924.623L706.222 924.648L706.225 924.673L706.229 924.698L706.232 924.723L706.236 924.748L706.24 924.773L706.243 924.798L706.247 924.823L706.25 924.849L706.254 924.874L706.257 924.899L706.261 924.924L706.265 924.949L706.268 924.974L706.272 924.999L706.275 925.024L706.279 925.049L706.282 925.074L706.286 925.099L706.29 925.124L706.293 925.15L706.297 925.175L706.3 925.2L706.304 925.225L706.308 925.25L706.311 925.275L706.315 925.3L706.318 925.325L706.322 925.35L706.325 925.376L706.329 925.401L706.333 925.426L706.336 925.451L706.34 925.476L706.343 925.501L706.347 925.526L706.351 925.552L706.354 925.577L706.358 925.602L706.361 925.627L706.365 925.652L706.369 925.677L706.372 925.702L706.376 925.728L706.379 925.753L706.383 925.778L706.387 925.803L706.39 925.828L706.394 925.854L706.397 925.879L706.401 925.904L706.405 925.929L706.408 925.954L706.412 925.979L706.415 926.005L706.419 926.03L706.423 926.055L706.426 926.08L706.43 926.106L706.433 926.131L706.437 926.156L706.441 926.181L706.444 926.206L706.448 926.232L706.451 926.257L706.455 926.282L706.459 926.307L706.462 926.333L706.466 926.358L706.469 926.383L706.473 926.408L706.477 926.434L706.48 926.459L706.484 926.484L706.487 926.509L706.491 926.535L706.495 926.56L706.498 926.585L706.502 926.61L706.505 926.636L706.509 926.661L706.513 926.686L711.821 963.863M703.132 905.699C702.984 905.803 702.938 905.862 702.938 905.863C702.937 905.863 702.956 905.839 702.979 905.788C703.064 905.601 703.046 905.416 703.029 905.358L700.629 906.058M700.629 906.058L711.821 963.863" stroke="white" stroke-width="5"/>
</g>
<g filter="url(#filter2_d)">
<mask id="path-5-outside-1" maskUnits="userSpaceOnUse" x="823.215" y="935.414" width="223" height="234" fill="black">
<rect fill="white" x="823.215" y="935.414" width="223" height="234"/>
<path d="M1023.2 1163.78L1017.71 1161.01L1012.77 1154.93L1011.12 1151.62H1010.02C1001.42 1140.19 993.36 1128.49 985.854 1116.51C978.347 1104.34 971.481 1092.92 965.256 1082.23L968.003 1076.7C969.467 1075.59 971.024 1074.76 972.671 1074.21C974.319 1073.66 976.059 1073.57 977.889 1073.94L983.382 1076.7L993.818 1094.94H994.917C1001.14 1090.89 1007.09 1086.47 1012.77 1081.68C1018.63 1076.88 1025.22 1073.75 1032.54 1072.28L1038.03 1075.04C1039.13 1076.52 1039.96 1078.08 1040.51 1079.74C1041.05 1081.4 1041.15 1083.15 1040.78 1084.99L1038.03 1090.52L1011.67 1108.21L1008.1 1109.87V1110.98L1017.16 1126.74H1018.26L1024.85 1135.03L1026.5 1136.69L1028.15 1140L1029.79 1141.11L1031.99 1144.43H1033.09C1034.19 1145.9 1035.01 1147.56 1035.56 1149.4C1036.11 1151.25 1036.2 1153.27 1035.84 1155.49L1033.09 1161.01C1031.63 1162.12 1030.07 1162.95 1028.42 1163.5C1026.77 1164.06 1025.03 1164.15 1023.2 1163.78ZM939.716 1163.5C938.251 1163.13 936.878 1162.67 935.596 1162.12C934.315 1161.57 933.125 1160.92 932.026 1160.19C928.364 1154.1 926.076 1147.19 925.16 1139.45C924.428 1131.71 924.245 1123.69 924.611 1115.4C925.709 1106.92 926.259 1099 926.259 1091.63C926.442 1084.26 927.449 1076.52 929.28 1068.41C928.181 1068.41 927.083 1068.13 925.984 1067.58C924.886 1067.02 923.787 1066.38 922.688 1065.64C921.59 1064.17 920.766 1062.6 920.217 1060.94C919.668 1059.28 919.576 1057.53 919.942 1055.69L922.688 1049.88C924.519 1048.78 926.442 1047.95 928.456 1047.4C930.47 1046.84 932.575 1046.57 934.772 1046.57V1044.36C934.04 1035.88 933.216 1027.31 932.301 1018.65C931.568 1009.99 931.385 1001.23 931.751 992.385C932.484 984.092 932.667 975.891 932.301 967.782C932.118 959.673 933.308 951.932 935.871 944.561C943.194 942.718 950.609 941.612 958.116 941.243C965.623 940.69 973.129 940.414 980.636 940.414C985.03 941.151 989.516 941.52 994.093 941.52C998.67 941.52 1002.88 942.533 1006.73 944.561C1007.82 946.035 1008.65 947.601 1009.2 949.26C1009.75 950.919 1009.84 952.67 1009.47 954.512L1006.73 960.041C1004.35 961.7 1001.97 962.714 999.585 963.082C997.205 963.451 994.55 963.635 991.621 963.635C987.227 962.898 982.558 962.345 977.615 961.976C972.855 961.608 968.094 961.608 963.334 961.976L954.546 963.082L954.82 973.587H993.544C995.008 973.956 996.381 974.416 997.663 974.969C998.945 975.522 1000.13 976.167 1001.23 976.904C1002.33 978.379 1003.16 979.945 1003.7 981.604C1004.25 983.262 1004.35 985.105 1003.98 987.133L1001.23 992.661L995.741 995.426H957.017L953.173 995.979V1007.04H955.37C961.595 1006.3 967.911 1005.93 974.319 1005.93C980.91 1005.93 987.319 1005.75 993.544 1005.38C995.008 1005.75 996.473 1006.11 997.938 1006.48C999.402 1006.85 1000.68 1007.59 1001.78 1008.7C1002.88 1010.17 1003.7 1011.74 1004.25 1013.39C1004.8 1015.05 1004.89 1016.8 1004.53 1018.65L1001.78 1024.18C1000.5 1025.28 999.036 1026.02 997.388 1026.39C995.741 1026.76 994.001 1027.12 992.17 1027.49L983.382 1026.94C978.439 1027.31 973.587 1027.49 968.827 1027.49C964.066 1027.49 959.489 1027.86 955.095 1028.6V1031.92L955.644 1045.19H966.08C972.671 1045.19 978.988 1044.72 985.03 1043.8C991.255 1042.88 997.663 1042.61 1004.25 1042.97C1005.9 1043.53 1007.64 1043.8 1009.47 1043.8C1011.3 1043.8 1013.13 1043.8 1014.96 1043.8C1016.43 1043.07 1018.26 1042.7 1020.46 1042.7C1022.65 1042.7 1024.67 1042.7 1026.5 1042.7L1031.99 1045.46C1033.09 1046.94 1033.91 1048.5 1034.46 1050.16C1035.01 1051.82 1035.1 1053.66 1034.74 1055.69L1031.99 1061.22C1027.96 1063.43 1023.48 1064.81 1018.54 1065.37C1013.59 1065.92 1008.47 1066.1 1003.16 1065.92L992.72 1064.81C985.762 1065.55 978.713 1066.1 971.573 1066.47C964.616 1066.84 957.475 1067.02 950.152 1067.02C948.504 1078.63 947.405 1089.6 946.856 1099.92C946.307 1110.24 946.032 1121.39 946.032 1133.37H947.131C951.891 1129.13 956.651 1125.08 961.412 1121.21C966.172 1117.15 971.665 1114.76 977.889 1114.02L983.657 1116.78C984.755 1118.26 985.579 1119.92 986.128 1121.76C986.678 1123.42 986.769 1125.35 986.403 1127.57L983.657 1133.09L971.573 1141.39C969.01 1142.86 966.538 1144.61 964.158 1146.64C961.778 1148.67 959.672 1150.97 957.841 1153.55L954.546 1154.93V1156.04C952.349 1157.51 950.06 1158.99 947.68 1160.46C945.3 1162.12 942.645 1163.13 939.716 1163.5ZM869.685 1157.7L863.917 1154.93C862.453 1153.09 861.537 1151.15 861.171 1149.13C860.805 1147.1 860.622 1144.8 860.622 1142.22C861.354 1133.74 861.72 1125.81 861.72 1118.44C861.72 1110.89 861.72 1102.69 861.72 1093.84L860.622 1076.15V1051.27L861.171 1045.19L861.72 1032.47L860.622 1012.01H858.974L849.636 1013.12V1052.37L850.186 1061.77L847.439 1067.3C845.975 1068.41 844.418 1069.24 842.771 1069.79C841.123 1070.34 839.383 1070.43 837.553 1070.07L832.06 1067.3C830.595 1065.46 829.68 1063.34 829.314 1060.94C828.947 1058.55 828.581 1056.06 828.215 1053.48V1005.93C828.947 1003.72 829.497 1001.6 829.863 999.572C830.229 997.545 831.144 995.61 832.609 993.767C834.074 992.661 835.63 991.832 837.278 991.279C838.926 990.726 840.665 990.634 842.496 991.003L848.538 992.109L861.171 990.45V987.685L860.622 957.553C860.988 956.079 861.446 954.697 861.995 953.407C862.544 952.117 863.185 950.919 863.917 949.813C865.382 948.707 866.938 947.878 868.586 947.325C870.417 946.772 872.248 946.68 874.079 947.049L879.571 949.813C881.768 955.71 882.684 962.069 882.318 968.887C881.951 975.706 882.134 982.525 882.867 989.344H885.064L898.795 988.791C900.993 989.16 903.098 989.621 905.112 990.173C907.126 990.726 909.048 991.74 910.879 993.214C914.541 1001.69 916.83 1010.81 917.745 1020.58C918.661 1030.35 919.118 1040.21 919.118 1050.16C918.752 1052.74 918.477 1055.51 918.294 1058.45C918.111 1061.4 917.104 1063.98 915.273 1066.19C913.809 1067.3 912.252 1068.22 910.605 1068.96C908.957 1069.7 907.034 1069.88 904.837 1069.51L899.345 1066.75C898.246 1065.27 897.422 1063.61 896.873 1061.77C896.324 1059.93 896.232 1057.9 896.598 1055.69L897.697 1035.23L894.951 1010.35H886.162L882.318 1010.91V1016.44L883.416 1046.29L882.867 1049.06L883.416 1062.32L882.318 1081.68L883.416 1091.63L884.515 1112.64C884.148 1119.82 883.782 1127.1 883.416 1134.48C883.05 1141.85 881.768 1148.67 879.571 1154.93C878.107 1156.04 876.55 1156.87 874.903 1157.42C873.255 1157.97 871.515 1158.07 869.685 1157.7Z"/>
</mask>
<path d="M1023.2 1163.78L1017.71 1161.01L1012.77 1154.93L1011.12 1151.62H1010.02C1001.42 1140.19 993.36 1128.49 985.854 1116.51C978.347 1104.34 971.481 1092.92 965.256 1082.23L968.003 1076.7C969.467 1075.59 971.024 1074.76 972.671 1074.21C974.319 1073.66 976.059 1073.57 977.889 1073.94L983.382 1076.7L993.818 1094.94H994.917C1001.14 1090.89 1007.09 1086.47 1012.77 1081.68C1018.63 1076.88 1025.22 1073.75 1032.54 1072.28L1038.03 1075.04C1039.13 1076.52 1039.96 1078.08 1040.51 1079.74C1041.05 1081.4 1041.15 1083.15 1040.78 1084.99L1038.03 1090.52L1011.67 1108.21L1008.1 1109.87V1110.98L1017.16 1126.74H1018.26L1024.85 1135.03L1026.5 1136.69L1028.15 1140L1029.79 1141.11L1031.99 1144.43H1033.09C1034.19 1145.9 1035.01 1147.56 1035.56 1149.4C1036.11 1151.25 1036.2 1153.27 1035.84 1155.49L1033.09 1161.01C1031.63 1162.12 1030.07 1162.95 1028.42 1163.5C1026.77 1164.06 1025.03 1164.15 1023.2 1163.78ZM939.716 1163.5C938.251 1163.13 936.878 1162.67 935.596 1162.12C934.315 1161.57 933.125 1160.92 932.026 1160.19C928.364 1154.1 926.076 1147.19 925.16 1139.45C924.428 1131.71 924.245 1123.69 924.611 1115.4C925.709 1106.92 926.259 1099 926.259 1091.63C926.442 1084.26 927.449 1076.52 929.28 1068.41C928.181 1068.41 927.083 1068.13 925.984 1067.58C924.886 1067.02 923.787 1066.38 922.688 1065.64C921.59 1064.17 920.766 1062.6 920.217 1060.94C919.668 1059.28 919.576 1057.53 919.942 1055.69L922.688 1049.88C924.519 1048.78 926.442 1047.95 928.456 1047.4C930.47 1046.84 932.575 1046.57 934.772 1046.57V1044.36C934.04 1035.88 933.216 1027.31 932.301 1018.65C931.568 1009.99 931.385 1001.23 931.751 992.385C932.484 984.092 932.667 975.891 932.301 967.782C932.118 959.673 933.308 951.932 935.871 944.561C943.194 942.718 950.609 941.612 958.116 941.243C965.623 940.69 973.129 940.414 980.636 940.414C985.03 941.151 989.516 941.52 994.093 941.52C998.67 941.52 1002.88 942.533 1006.73 944.561C1007.82 946.035 1008.65 947.601 1009.2 949.26C1009.75 950.919 1009.84 952.67 1009.47 954.512L1006.73 960.041C1004.35 961.7 1001.97 962.714 999.585 963.082C997.205 963.451 994.55 963.635 991.621 963.635C987.227 962.898 982.558 962.345 977.615 961.976C972.855 961.608 968.094 961.608 963.334 961.976L954.546 963.082L954.82 973.587H993.544C995.008 973.956 996.381 974.416 997.663 974.969C998.945 975.522 1000.13 976.167 1001.23 976.904C1002.33 978.379 1003.16 979.945 1003.7 981.604C1004.25 983.262 1004.35 985.105 1003.98 987.133L1001.23 992.661L995.741 995.426H957.017L953.173 995.979V1007.04H955.37C961.595 1006.3 967.911 1005.93 974.319 1005.93C980.91 1005.93 987.319 1005.75 993.544 1005.38C995.008 1005.75 996.473 1006.11 997.938 1006.48C999.402 1006.85 1000.68 1007.59 1001.78 1008.7C1002.88 1010.17 1003.7 1011.74 1004.25 1013.39C1004.8 1015.05 1004.89 1016.8 1004.53 1018.65L1001.78 1024.18C1000.5 1025.28 999.036 1026.02 997.388 1026.39C995.741 1026.76 994.001 1027.12 992.17 1027.49L983.382 1026.94C978.439 1027.31 973.587 1027.49 968.827 1027.49C964.066 1027.49 959.489 1027.86 955.095 1028.6V1031.92L955.644 1045.19H966.08C972.671 1045.19 978.988 1044.72 985.03 1043.8C991.255 1042.88 997.663 1042.61 1004.25 1042.97C1005.9 1043.53 1007.64 1043.8 1009.47 1043.8C1011.3 1043.8 1013.13 1043.8 1014.96 1043.8C1016.43 1043.07 1018.26 1042.7 1020.46 1042.7C1022.65 1042.7 1024.67 1042.7 1026.5 1042.7L1031.99 1045.46C1033.09 1046.94 1033.91 1048.5 1034.46 1050.16C1035.01 1051.82 1035.1 1053.66 1034.74 1055.69L1031.99 1061.22C1027.96 1063.43 1023.48 1064.81 1018.54 1065.37C1013.59 1065.92 1008.47 1066.1 1003.16 1065.92L992.72 1064.81C985.762 1065.55 978.713 1066.1 971.573 1066.47C964.616 1066.84 957.475 1067.02 950.152 1067.02C948.504 1078.63 947.405 1089.6 946.856 1099.92C946.307 1110.24 946.032 1121.39 946.032 1133.37H947.131C951.891 1129.13 956.651 1125.08 961.412 1121.21C966.172 1117.15 971.665 1114.76 977.889 1114.02L983.657 1116.78C984.755 1118.26 985.579 1119.92 986.128 1121.76C986.678 1123.42 986.769 1125.35 986.403 1127.57L983.657 1133.09L971.573 1141.39C969.01 1142.86 966.538 1144.61 964.158 1146.64C961.778 1148.67 959.672 1150.97 957.841 1153.55L954.546 1154.93V1156.04C952.349 1157.51 950.06 1158.99 947.68 1160.46C945.3 1162.12 942.645 1163.13 939.716 1163.5ZM869.685 1157.7L863.917 1154.93C862.453 1153.09 861.537 1151.15 861.171 1149.13C860.805 1147.1 860.622 1144.8 860.622 1142.22C861.354 1133.74 861.72 1125.81 861.72 1118.44C861.72 1110.89 861.72 1102.69 861.72 1093.84L860.622 1076.15V1051.27L861.171 1045.19L861.72 1032.47L860.622 1012.01H858.974L849.636 1013.12V1052.37L850.186 1061.77L847.439 1067.3C845.975 1068.41 844.418 1069.24 842.771 1069.79C841.123 1070.34 839.383 1070.43 837.553 1070.07L832.06 1067.3C830.595 1065.46 829.68 1063.34 829.314 1060.94C828.947 1058.55 828.581 1056.06 828.215 1053.48V1005.93C828.947 1003.72 829.497 1001.6 829.863 999.572C830.229 997.545 831.144 995.61 832.609 993.767C834.074 992.661 835.63 991.832 837.278 991.279C838.926 990.726 840.665 990.634 842.496 991.003L848.538 992.109L861.171 990.45V987.685L860.622 957.553C860.988 956.079 861.446 954.697 861.995 953.407C862.544 952.117 863.185 950.919 863.917 949.813C865.382 948.707 866.938 947.878 868.586 947.325C870.417 946.772 872.248 946.68 874.079 947.049L879.571 949.813C881.768 955.71 882.684 962.069 882.318 968.887C881.951 975.706 882.134 982.525 882.867 989.344H885.064L898.795 988.791C900.993 989.16 903.098 989.621 905.112 990.173C907.126 990.726 909.048 991.74 910.879 993.214C914.541 1001.69 916.83 1010.81 917.745 1020.58C918.661 1030.35 919.118 1040.21 919.118 1050.16C918.752 1052.74 918.477 1055.51 918.294 1058.45C918.111 1061.4 917.104 1063.98 915.273 1066.19C913.809 1067.3 912.252 1068.22 910.605 1068.96C908.957 1069.7 907.034 1069.88 904.837 1069.51L899.345 1066.75C898.246 1065.27 897.422 1063.61 896.873 1061.77C896.324 1059.93 896.232 1057.9 896.598 1055.69L897.697 1035.23L894.951 1010.35H886.162L882.318 1010.91V1016.44L883.416 1046.29L882.867 1049.06L883.416 1062.32L882.318 1081.68L883.416 1091.63L884.515 1112.64C884.148 1119.82 883.782 1127.1 883.416 1134.48C883.05 1141.85 881.768 1148.67 879.571 1154.93C878.107 1156.04 876.55 1156.87 874.903 1157.42C873.255 1157.97 871.515 1158.07 869.685 1157.7Z" fill="#9F3B95"/>
<path d="M1023.2 1163.78L1017.71 1161.01L1012.77 1154.93L1011.12 1151.62H1010.02C1001.42 1140.19 993.36 1128.49 985.854 1116.51C978.347 1104.34 971.481 1092.92 965.256 1082.23L968.003 1076.7C969.467 1075.59 971.024 1074.76 972.671 1074.21C974.319 1073.66 976.059 1073.57 977.889 1073.94L983.382 1076.7L993.818 1094.94H994.917C1001.14 1090.89 1007.09 1086.47 1012.77 1081.68C1018.63 1076.88 1025.22 1073.75 1032.54 1072.28L1038.03 1075.04C1039.13 1076.52 1039.96 1078.08 1040.51 1079.74C1041.05 1081.4 1041.15 1083.15 1040.78 1084.99L1038.03 1090.52L1011.67 1108.21L1008.1 1109.87V1110.98L1017.16 1126.74H1018.26L1024.85 1135.03L1026.5 1136.69L1028.15 1140L1029.79 1141.11L1031.99 1144.43H1033.09C1034.19 1145.9 1035.01 1147.56 1035.56 1149.4C1036.11 1151.25 1036.2 1153.27 1035.84 1155.49L1033.09 1161.01C1031.63 1162.12 1030.07 1162.95 1028.42 1163.5C1026.77 1164.06 1025.03 1164.15 1023.2 1163.78ZM939.716 1163.5C938.251 1163.13 936.878 1162.67 935.596 1162.12C934.315 1161.57 933.125 1160.92 932.026 1160.19C928.364 1154.1 926.076 1147.19 925.16 1139.45C924.428 1131.71 924.245 1123.69 924.611 1115.4C925.709 1106.92 926.259 1099 926.259 1091.63C926.442 1084.26 927.449 1076.52 929.28 1068.41C928.181 1068.41 927.083 1068.13 925.984 1067.58C924.886 1067.02 923.787 1066.38 922.688 1065.64C921.59 1064.17 920.766 1062.6 920.217 1060.94C919.668 1059.28 919.576 1057.53 919.942 1055.69L922.688 1049.88C924.519 1048.78 926.442 1047.95 928.456 1047.4C930.47 1046.84 932.575 1046.57 934.772 1046.57V1044.36C934.04 1035.88 933.216 1027.31 932.301 1018.65C931.568 1009.99 931.385 1001.23 931.751 992.385C932.484 984.092 932.667 975.891 932.301 967.782C932.118 959.673 933.308 951.932 935.871 944.561C943.194 942.718 950.609 941.612 958.116 941.243C965.623 940.69 973.129 940.414 980.636 940.414C985.03 941.151 989.516 941.52 994.093 941.52C998.67 941.52 1002.88 942.533 1006.73 944.561C1007.82 946.035 1008.65 947.601 1009.2 949.26C1009.75 950.919 1009.84 952.67 1009.47 954.512L1006.73 960.041C1004.35 961.7 1001.97 962.714 999.585 963.082C997.205 963.451 994.55 963.635 991.621 963.635C987.227 962.898 982.558 962.345 977.615 961.976C972.855 961.608 968.094 961.608 963.334 961.976L954.546 963.082L954.82 973.587H993.544C995.008 973.956 996.381 974.416 997.663 974.969C998.945 975.522 1000.13 976.167 1001.23 976.904C1002.33 978.379 1003.16 979.945 1003.7 981.604C1004.25 983.262 1004.35 985.105 1003.98 987.133L1001.23 992.661L995.741 995.426H957.017L953.173 995.979V1007.04H955.37C961.595 1006.3 967.911 1005.93 974.319 1005.93C980.91 1005.93 987.319 1005.75 993.544 1005.38C995.008 1005.75 996.473 1006.11 997.938 1006.48C999.402 1006.85 1000.68 1007.59 1001.78 1008.7C1002.88 1010.17 1003.7 1011.74 1004.25 1013.39C1004.8 1015.05 1004.89 1016.8 1004.53 1018.65L1001.78 1024.18C1000.5 1025.28 999.036 1026.02 997.388 1026.39C995.741 1026.76 994.001 1027.12 992.17 1027.49L983.382 1026.94C978.439 1027.31 973.587 1027.49 968.827 1027.49C964.066 1027.49 959.489 1027.86 955.095 1028.6V1031.92L955.644 1045.19H966.08C972.671 1045.19 978.988 1044.72 985.03 1043.8C991.255 1042.88 997.663 1042.61 1004.25 1042.97C1005.9 1043.53 1007.64 1043.8 1009.47 1043.8C1011.3 1043.8 1013.13 1043.8 1014.96 1043.8C1016.43 1043.07 1018.26 1042.7 1020.46 1042.7C1022.65 1042.7 1024.67 1042.7 1026.5 1042.7L1031.99 1045.46C1033.09 1046.94 1033.91 1048.5 1034.46 1050.16C1035.01 1051.82 1035.1 1053.66 1034.74 1055.69L1031.99 1061.22C1027.96 1063.43 1023.48 1064.81 1018.54 1065.37C1013.59 1065.92 1008.47 1066.1 1003.16 1065.92L992.72 1064.81C985.762 1065.55 978.713 1066.1 971.573 1066.47C964.616 1066.84 957.475 1067.02 950.152 1067.02C948.504 1078.63 947.405 1089.6 946.856 1099.92C946.307 1110.24 946.032 1121.39 946.032 1133.37H947.131C951.891 1129.13 956.651 1125.08 961.412 1121.21C966.172 1117.15 971.665 1114.76 977.889 1114.02L983.657 1116.78C984.755 1118.26 985.579 1119.92 986.128 1121.76C986.678 1123.42 986.769 1125.35 986.403 1127.57L983.657 1133.09L971.573 1141.39C969.01 1142.86 966.538 1144.61 964.158 1146.64C961.778 1148.67 959.672 1150.97 957.841 1153.55L954.546 1154.93V1156.04C952.349 1157.51 950.06 1158.99 947.68 1160.46C945.3 1162.12 942.645 1163.13 939.716 1163.5ZM869.685 1157.7L863.917 1154.93C862.453 1153.09 861.537 1151.15 861.171 1149.13C860.805 1147.1 860.622 1144.8 860.622 1142.22C861.354 1133.74 861.72 1125.81 861.72 1118.44C861.72 1110.89 861.72 1102.69 861.72 1093.84L860.622 1076.15V1051.27L861.171 1045.19L861.72 1032.47L860.622 1012.01H858.974L849.636 1013.12V1052.37L850.186 1061.77L847.439 1067.3C845.975 1068.41 844.418 1069.24 842.771 1069.79C841.123 1070.34 839.383 1070.43 837.553 1070.07L832.06 1067.3C830.595 1065.46 829.68 1063.34 829.314 1060.94C828.947 1058.55 828.581 1056.06 828.215 1053.48V1005.93C828.947 1003.72 829.497 1001.6 829.863 999.572C830.229 997.545 831.144 995.61 832.609 993.767C834.074 992.661 835.63 991.832 837.278 991.279C838.926 990.726 840.665 990.634 842.496 991.003L848.538 992.109L861.171 990.45V987.685L860.622 957.553C860.988 956.079 861.446 954.697 861.995 953.407C862.544 952.117 863.185 950.919 863.917 949.813C865.382 948.707 866.938 947.878 868.586 947.325C870.417 946.772 872.248 946.68 874.079 947.049L879.571 949.813C881.768 955.71 882.684 962.069 882.318 968.887C881.951 975.706 882.134 982.525 882.867 989.344H885.064L898.795 988.791C900.993 989.16 903.098 989.621 905.112 990.173C907.126 990.726 909.048 991.74 910.879 993.214C914.541 1001.69 916.83 1010.81 917.745 1020.58C918.661 1030.35 919.118 1040.21 919.118 1050.16C918.752 1052.74 918.477 1055.51 918.294 1058.45C918.111 1061.4 917.104 1063.98 915.273 1066.19C913.809 1067.3 912.252 1068.22 910.605 1068.96C908.957 1069.7 907.034 1069.88 904.837 1069.51L899.345 1066.75C898.246 1065.27 897.422 1063.61 896.873 1061.77C896.324 1059.93 896.232 1057.9 896.598 1055.69L897.697 1035.23L894.951 1010.35H886.162L882.318 1010.91V1016.44L883.416 1046.29L882.867 1049.06L883.416 1062.32L882.318 1081.68L883.416 1091.63L884.515 1112.64C884.148 1119.82 883.782 1127.1 883.416 1134.48C883.05 1141.85 881.768 1148.67 879.571 1154.93C878.107 1156.04 876.55 1156.87 874.903 1157.42C873.255 1157.97 871.515 1158.07 869.685 1157.7Z" stroke="white" stroke-width="10" mask="url(#path-5-outside-1)"/>
</g>
<g filter="url(#filter3_d)">
<path d="M479.404 929.784C476.538 928.321 473.905 926.712 471.507 924.957C469.108 923.201 466.988 921.11 465.145 918.682C463.566 915.113 462.601 911.485 462.25 907.799C461.899 904.113 462.543 900.457 464.182 896.83L472.519 886.738C501.714 878.258 528.789 865.082 553.743 847.211C578.697 829.34 602.642 810.635 625.578 791.097L626.368 787.674L603.729 760.818L592.41 747.39C590.83 743.821 589.865 740.194 589.515 736.508C589.164 732.822 589.808 729.166 591.446 725.539L599.784 715.447C603.353 713.868 606.981 712.903 610.667 712.552C614.352 712.202 618.389 712.933 622.777 714.747C626.404 716.386 629.666 718.741 632.561 721.813C635.457 724.885 638.163 727.912 640.678 730.896L648.838 742.393L656.999 753.89L660.421 754.681C679.964 735.961 696.113 715.456 708.869 693.167C721.713 670.497 733.402 646.76 743.935 621.955C747.504 620.376 751.132 619.411 754.818 619.06C758.503 618.709 762.16 619.353 765.787 620.992L775.878 629.329C778.043 633.835 778.788 638.413 778.115 643.064C777.442 647.715 776.578 652.322 775.525 656.885C768.941 674.992 761.436 691.885 753.01 707.563C744.584 723.242 735.105 738.277 724.572 752.668L720.623 754.16C715.825 761.063 710.501 767.644 704.649 773.904C698.798 780.163 693.093 786.657 687.535 793.384L691.308 797.86L698.591 807.953L704.996 816.642L714.385 833.229L721.141 845.603L727.02 856.574C728.599 860.143 729.564 863.77 729.915 867.456C730.266 871.142 729.534 875.179 727.72 879.566L719.382 889.658C715.813 891.237 712.186 892.202 708.5 892.553C704.814 892.903 701.157 892.259 697.53 890.621L686.561 880.879C682.233 871.869 677.67 863.005 672.874 854.287C668.077 845.569 662.578 837.29 656.377 829.45L651.814 828.396L634.788 844.893C617.762 856.183 600.984 868.131 584.455 880.738C567.926 893.344 550.183 904.268 531.227 913.51C522.568 916.317 514.114 919.973 505.864 924.477C497.702 928.601 488.882 930.37 479.404 929.784Z" fill="#4C79A3"/>
<path d="M478.268 932.011L478.731 932.247L479.25 932.28C489.153 932.892 498.418 931.041 506.991 926.709L507.027 926.691L507.062 926.672C515.18 922.24 523.491 918.646 531.998 915.888L532.165 915.834L532.323 915.757C551.425 906.444 569.309 895.433 585.971 882.725C602.457 870.152 619.19 858.236 636.169 846.977L636.361 846.849L636.527 846.689L652.577 831.138L654.957 831.688C660.852 839.216 666.094 847.15 670.683 855.492C675.458 864.169 679.999 872.992 684.308 881.961L684.525 882.414L684.901 882.748L695.87 892.49L696.154 892.743L696.501 892.899C700.494 894.703 704.585 895.436 708.736 895.041C712.704 894.664 716.592 893.626 720.394 891.944L720.933 891.705L721.309 891.25L729.647 881.159L729.887 880.869L730.03 880.521C731.957 875.86 732.802 871.409 732.404 867.219C732.026 863.252 730.988 859.363 729.306 855.562L729.268 855.476L729.223 855.393L723.345 844.423L723.34 844.414L723.335 844.405L716.579 832.031L716.57 832.014L716.561 831.997L707.172 815.41L707.098 815.279L707.009 815.158L700.618 806.49L700.603 806.47L693.335 796.397L693.28 796.321L693.219 796.249L690.794 793.372C695.899 787.254 701.126 781.334 706.476 775.611C712.227 769.458 717.479 762.996 722.23 756.225L725.456 755.007L726.151 754.744L726.59 754.145C737.19 739.66 746.731 724.528 755.212 708.747C763.7 692.954 771.253 675.95 777.874 657.74L777.926 657.596L777.961 657.448C779.03 652.817 779.906 648.141 780.589 643.422C781.338 638.247 780.497 633.17 778.132 628.247L777.894 627.752L777.471 627.402L767.379 619.064L767.121 618.851L766.816 618.713C762.823 616.91 758.732 616.176 754.581 616.571C750.613 616.949 746.725 617.987 742.924 619.669L742.02 620.068L741.634 620.978C731.138 645.697 719.492 669.347 706.697 691.929C694.278 713.628 678.605 733.632 659.664 751.94L658.487 751.668L650.877 740.946L642.717 729.449L642.657 729.365L642.59 729.285C640.042 726.263 637.305 723.201 634.38 720.098C631.275 716.803 627.749 714.25 623.806 712.469L623.769 712.452L623.732 712.437C619.071 710.51 614.62 709.665 610.43 710.063C606.462 710.441 602.574 711.479 598.773 713.161L598.233 713.4L597.857 713.855L589.519 723.946L589.306 724.204L589.168 724.509C587.364 728.502 586.631 732.594 587.026 736.745C587.403 740.712 588.441 744.601 590.124 748.402L590.268 748.729L590.498 749.002L601.818 762.43L623.651 788.33L623.328 789.729C600.638 809.028 576.958 827.511 552.287 845.179C527.561 862.886 500.743 875.937 471.822 884.338L471.083 884.552L470.592 885.146L462.254 895.237L462.041 895.495L461.903 895.801C460.1 899.794 459.366 903.885 459.761 908.036C460.139 912.004 461.177 915.892 462.859 919.693L462.977 919.96L463.153 920.193C465.139 922.809 467.431 925.072 470.03 926.974L471.507 924.957L470.03 926.974C472.545 928.815 475.292 930.492 478.268 932.011Z" stroke="white" stroke-width="5"/>
</g>
<g filter="url(#filter4_f)">
<path d="M711.975 115V377M1126.97 408V783" stroke="#AEB8C7" stroke-width="2"/>
</g>
<path d="M1089.97 120V931.5M742.475 169V558.5" stroke="#AEB8C7" stroke-width="6"/>
<path d="M1146.47 162V627" stroke="#AEB8C7" stroke-width="3"/>
<g filter="url(#filter5_f)">
<path d="M632.018 433.535C632.018 427.564 627.216 422.762 621.245 422.762C615.274 422.762 610.472 427.564 610.472 433.535C610.472 439.506 615.274 444.308 621.245 444.308C627.216 444.308 632.018 439.506 632.018 433.535ZM628.94 433.535C628.94 437.783 625.492 441.23 621.245 441.23C616.997 441.23 613.55 437.783 613.55 433.535C613.55 429.287 616.997 425.84 621.245 425.84C625.492 425.84 628.94 429.287 628.94 433.535ZM639.123 422.454V444H642.201V430.519C642.201 427.933 644.356 425.84 646.88 425.84C649.404 425.84 651.558 427.933 651.558 430.519V442.769C651.558 443.631 652.236 444.308 653.097 444.308C653.959 444.308 654.636 443.631 654.636 442.769V430.519C654.636 426.271 651.189 422.762 646.88 422.762C645.156 422.762 643.063 423.378 641.586 424.917L639.123 422.454ZM675.241 441.845C673.21 438.891 671.425 436.12 670.009 433.35C672.287 428.549 673.579 423.501 673.579 417.099C673.579 408.48 670.686 403.556 668.224 403.556C665.761 403.556 662.93 408.48 662.93 417.099C662.93 423.562 664.222 428.549 666.5 433.35C665.084 436.12 663.299 438.891 661.268 441.845C661.021 442.153 660.96 442.461 660.96 442.769C660.96 443.631 661.637 444.308 662.499 444.308C662.991 444.308 663.484 444.062 663.853 443.569C665.515 441.168 666.993 438.891 668.285 436.674C669.516 438.952 670.994 441.168 672.656 443.569C673.025 444.062 673.518 444.308 674.01 444.308C674.872 444.308 675.549 443.631 675.549 442.769C675.549 442.461 675.426 442.153 675.241 441.845ZM670.501 417.099C670.501 421.9 669.701 425.84 668.224 429.534C666.808 425.84 666.008 421.9 666.008 417.099C666.008 411.312 666.993 407.68 668.224 407.68C669.455 407.68 670.501 411.374 670.501 417.099ZM694.539 425.224C695.339 423.993 694.354 422.824 693.246 422.762C692.754 422.762 692.323 423.008 691.953 423.501C690.291 425.902 688.814 428.118 687.583 430.395C686.29 428.179 684.812 425.902 683.15 423.501C682.781 423.008 682.35 422.762 681.858 422.762C680.811 422.762 679.765 423.993 680.565 425.224C682.596 428.179 684.382 430.949 685.797 433.72C683.52 438.521 682.227 443.508 682.227 449.971C682.227 458.59 685.059 463.514 687.521 463.514C689.983 463.514 692.877 458.59 692.877 449.971C692.877 443.569 691.584 438.521 689.306 433.72C690.722 430.949 692.507 428.179 694.539 425.224ZM689.799 449.971C689.799 455.696 688.752 459.39 687.521 459.39C686.29 459.39 685.305 455.758 685.305 449.971C685.305 445.17 686.105 441.23 687.521 437.536C688.999 441.23 689.799 445.17 689.799 449.971ZM635.709 482.148H644.573C645.435 482.148 646.112 481.471 646.112 480.609C646.112 479.747 645.435 479.07 644.573 479.07H635.709V470.452H632.631C632.631 470.452 632.631 491.32 632.631 492.551C632.631 496.799 636.078 500.308 640.387 500.308C644.697 500.308 648.144 496.799 648.144 492.551V492.244C648.144 491.382 647.467 490.705 646.605 490.705C645.743 490.705 645.066 491.382 645.066 492.244V492.551C645.066 495.137 642.911 497.23 640.387 497.23C637.863 497.23 635.709 495.137 635.709 492.551V482.148ZM653.551 459.863V500H656.629V486.519C656.629 483.933 658.784 481.84 661.308 481.84C663.832 481.84 665.986 483.933 665.986 486.519V498.769C665.986 499.631 666.664 500.308 667.525 500.308C668.387 500.308 669.064 499.631 669.064 498.769V486.519C669.064 482.271 665.617 478.762 661.308 478.762C659.584 478.762 657.922 479.378 656.629 480.301V459.863H653.551ZM679.081 491.074H693.732C694.594 491.074 695.271 490.397 695.271 489.535C695.271 488.673 694.594 487.996 693.732 487.996H679.081C679.758 484.487 682.898 481.84 686.591 481.84C688.5 481.84 690.285 482.579 691.639 483.687C693.24 484.98 695.148 482.702 693.609 481.348C691.762 479.747 689.238 478.762 686.591 478.762C680.62 478.762 675.819 483.564 675.819 489.535C675.819 495.506 680.62 500.308 686.591 500.308C689.238 500.308 691.762 499.323 693.609 497.722C695.148 496.368 693.24 494.09 691.639 495.383C690.285 496.491 688.5 497.23 686.591 497.23C682.898 497.23 679.758 494.583 679.081 491.074ZM638.85 542.519C638.85 538.271 635.403 534.762 631.093 534.762C626.784 534.762 623.337 538.271 623.337 542.519C623.337 546.766 626.661 550.152 630.847 550.275C628.139 554.153 625.799 558.832 625.799 565.48C625.799 572.375 628.631 576.315 631.093 576.315C633.556 576.315 636.449 572.375 636.449 565.48C636.449 560.371 635.156 556.308 632.879 552.491C635.218 549.536 638.85 546.52 638.85 542.519ZM635.772 542.519C635.772 545.042 633.617 547.197 631.093 547.197C628.569 547.197 626.415 545.042 626.415 542.519C626.415 539.933 628.569 537.84 631.093 537.84C633.617 537.84 635.772 539.933 635.772 542.519ZM633.371 565.48C633.371 570.036 632.325 572.99 631.093 572.99C629.862 572.99 628.877 570.097 628.877 565.48C628.877 561.602 629.677 558.462 631.093 555.508C632.571 558.462 633.371 561.602 633.371 565.48ZM665.923 545.535C665.923 539.564 661.122 534.762 655.151 534.762C649.179 534.762 644.378 539.564 644.378 545.535C644.378 551.506 649.179 556.308 655.151 556.308C661.122 556.308 665.923 551.506 665.923 545.535ZM662.845 545.535C662.845 549.783 659.398 553.23 655.151 553.23C650.903 553.23 647.456 549.783 647.456 545.535C647.456 541.287 650.903 537.84 655.151 537.84C659.398 537.84 662.845 541.287 662.845 545.535ZM693.036 556V515.863H689.958V537.963C687.988 535.993 685.279 534.762 682.263 534.762C676.292 534.762 671.49 539.564 671.49 545.535C671.49 551.506 676.292 556.308 682.263 556.308C685.279 556.308 687.988 555.077 689.958 553.107V556H693.036ZM689.958 545.535C689.958 549.783 686.511 553.23 682.263 553.23C678.015 553.23 674.568 549.783 674.568 545.535C674.568 541.287 678.015 537.84 682.263 537.84C686.511 537.84 689.958 541.287 689.958 545.535ZM581.724 597.164C582.709 595.995 586.218 593.409 589.419 593.409C590.527 593.409 592.128 593.717 592.128 595.133C592.128 598.088 586.957 601.904 582.894 601.904C582.463 601.904 582.032 601.843 581.724 601.72V597.164ZM581.724 604.674C583.017 604.859 584.494 604.736 586.033 604.244C587.757 607.383 590.096 610.153 593.605 612.246C593.851 612.431 594.159 612.492 594.405 612.492C595.267 612.492 595.944 611.815 595.944 610.953C595.944 610.523 595.76 609.969 595.206 609.661C592.312 607.876 590.343 605.598 588.927 603.012C593.605 600.365 595.329 596.549 595.329 594.456C595.329 592.67 594.036 590.7 589.973 590.7C585.664 590.7 582.648 592.794 581.724 593.471V571.863H578.646V612H581.724V604.674ZM601.731 590.454V612H604.809V598.519C604.809 595.933 606.964 593.84 609.487 593.84C612.011 593.84 614.166 595.933 614.166 598.519V610.769C614.166 611.631 614.843 612.308 615.705 612.308C616.567 612.308 617.244 611.631 617.244 610.769V598.519C617.244 594.271 613.797 590.762 609.487 590.762C607.764 590.762 605.671 591.378 604.193 592.917L601.731 590.454ZM645.544 601.535C645.544 595.564 640.742 590.762 634.771 590.762C628.8 590.762 623.998 595.564 623.998 601.535C623.998 607.506 628.8 612.308 634.771 612.308C640.742 612.308 645.544 607.506 645.544 601.535ZM642.466 601.535C642.466 605.783 639.019 609.23 634.771 609.23C630.523 609.23 627.076 605.783 627.076 601.535C627.076 597.287 630.523 593.84 634.771 593.84C639.019 593.84 642.466 597.287 642.466 601.535ZM664.962 608.183C663.669 608.183 662.684 604.49 662.684 598.765V592.301C662.684 591.439 662.007 590.762 661.145 590.762C660.283 590.762 659.606 591.439 659.606 592.301V598.765C659.606 604.49 658.559 608.183 657.328 608.183C656.097 608.183 655.112 604.551 655.112 598.765C655.112 595.933 655.42 593.409 655.912 591.07H652.711C652.28 593.409 652.034 595.933 652.034 598.765C652.034 607.383 654.866 612.308 657.328 612.308C658.621 612.308 660.16 610.769 661.145 608.245C662.13 610.769 663.607 612.308 664.962 612.308C667.424 612.308 670.256 607.383 670.256 598.765C670.256 595.933 670.009 593.409 669.578 591.07H666.377C666.87 593.409 667.178 595.933 667.178 598.765C667.178 604.551 666.193 608.183 664.962 608.183ZM689.525 609.23C687.739 609.23 687.924 607.752 686.508 607.752C685.646 607.752 684.969 608.43 684.969 609.291C684.969 610.646 687.247 612.308 689.525 612.308C692.541 612.308 695.003 609.845 695.003 606.829C695.003 602.335 689.525 599.38 689.525 596.241C689.525 594.702 691.002 592.855 691.248 592.424C691.433 592.178 691.495 591.809 691.495 591.501C691.495 590.639 690.817 589.962 689.956 589.962C689.463 589.962 689.094 590.085 688.724 590.577L675.304 609.661C675.058 609.969 674.997 610.338 674.997 610.646C674.997 611.508 675.674 612.185 676.536 612.185C676.967 612.185 677.582 611.938 677.828 611.569L686.816 598.642C688.478 602.889 691.925 604.12 691.925 606.829C691.925 608.122 690.817 609.23 689.525 609.23Z" fill="#AEB8C7"/>
</g>
<defs>
<filter id="filter0_d" x="775.475" y="240" width="294" height="594" filterUnits="userSpaceOnUse" color-interpolation-filters="sRGB">
<feFlood flood-opacity="0" result="BackgroundImageFix"/>
<feColorMatrix in="SourceAlpha" type="matrix" values="0 0 0 0 0 0 0 0 0 0 0 0 0 0 0 0 0 0 127 0"/>
<feOffset dy="4"/>
<feGaussianBlur stdDeviation="2"/>
<feColorMatrix type="matrix" values="0 0 0 0 0 0 0 0 0 0 0 0 0 0 0 0 0 0 0.25 0"/>
<feBlend mode="normal" in2="BackgroundImageFix" result="effect1_dropShadow"/>
<feBlend mode="normal" in="SourceGraphic" in2="effect1_dropShadow" result="shape"/>
</filter>
<filter id="filter1_d" x="585.618" y="845.272" width="270.634" height="295.453" filterUnits="userSpaceOnUse" color-interpolation-filters="sRGB">
<feFlood flood-opacity="0" result="BackgroundImageFix"/>
<feColorMatrix in="SourceAlpha" type="matrix" values="0 0 0 0 0 0 0 0 0 0 0 0 0 0 0 0 0 0 127 0"/>
<feOffset dy="4"/>
<feGaussianBlur stdDeviation="2"/>
<feColorMatrix type="matrix" values="0 0 0 0 0 0 0 0 0 0 0 0 0 0 0 0 0 0 0.25 0"/>
<feBlend mode="normal" in2="BackgroundImageFix" result="effect1_dropShadow"/>
<feBlend mode="normal" in="SourceGraphic" in2="effect1_dropShadow" result="shape"/>
</filter>
<filter id="filter2_d" x="819.215" y="935.414" width="230.785" height="241.586" filterUnits="userSpaceOnUse" color-interpolation-filters="sRGB">
<feFlood flood-opacity="0" result="BackgroundImageFix"/>
<feColorMatrix in="SourceAlpha" type="matrix" values="0 0 0 0 0 0 0 0 0 0 0 0 0 0 0 0 0 0 127 0"/>
<feOffset dy="4"/>
<feGaussianBlur stdDeviation="2"/>
<feColorMatrix type="matrix" values="0 0 0 0 0 0 0 0 0 0 0 0 0 0 0 0 0 0 0.25 0"/>
<feBlend mode="normal" in2="BackgroundImageFix" result="effect1_dropShadow"/>
<feBlend mode="normal" in="SourceGraphic" in2="effect1_dropShadow" result="shape"/>
</filter>
<filter id="filter3_d" x="447.253" y="562.284" width="349.627" height="433.589" filterUnits="userSpaceOnUse" color-interpolation-filters="sRGB">
<feFlood flood-opacity="0" result="BackgroundImageFix"/>
<feColorMatrix in="SourceAlpha" type="matrix" values="0 0 0 0 0 0 0 0 0 0 0 0 0 0 0 0 0 0 127 0"/>
<feOffset dy="4"/>
<feGaussianBlur stdDeviation="2"/>
<feColorMatrix type="matrix" values="0 0 0 0 0 0 0 0 0 0 0 0 0 0 0 0 0 0 0.25 0"/>
<feBlend mode="normal" in2="BackgroundImageFix" result="effect1_dropShadow"/>
<feBlend mode="normal" in="SourceGraphic" in2="effect1_dropShadow" result="shape"/>
</filter>
<filter id="filter4_f" x="706.975" y="111" width="425" height="676" filterUnits="userSpaceOnUse" color-interpolation-filters="sRGB">
<feFlood flood-opacity="0" result="BackgroundImageFix"/>
<feBlend mode="normal" in="SourceGraphic" in2="BackgroundImageFix" result="shape"/>
<feGaussianBlur stdDeviation="2" result="effect1_foregroundBlur"/>
</filter>
<filter id="filter5_f" x="574.646" y="399.556" width="124.625" height="216.937" filterUnits="userSpaceOnUse" color-interpolation-filters="sRGB">
<feFlood flood-opacity="0" result="BackgroundImageFix"/>
<feBlend mode="normal" in="SourceGraphic" in2="BackgroundImageFix" result="shape"/>
<feGaussianBlur stdDeviation="2" result="effect1_foregroundBlur"/>
</filter>
<linearGradient id="paint0_linear" x1="987.975" y1="230" x2="797.976" y2="826" gradientUnits="userSpaceOnUse">
<stop offset="0.0364583" stop-color="#31009A"/>
<stop offset="0.352529" stop-color="#31009A" stop-opacity="0.05"/>
<stop offset="0.5625" stop-color="#31009A" stop-opacity="0.72"/>
<stop offset="0.76975" stop-color="#31009A" stop-opacity="0.13"/>
<stop offset="1" stop-color="#31009A"/>
</linearGradient>
</defs>
</svg>
