<svg width="1456" height="865" viewBox="0 0 1456 865" fill="none" xmlns="http://www.w3.org/2000/svg">
<g clip-path="url(#clip0)">
<rect x="-173" y="-194" width="1917" height="1369" fill="white"/>
<g filter="url(#filter0_d)">
<path d="M311.881 325.423V291.92H377.525V325.423H311.881ZM377.525 258.281V288.924H311.881V258.281H377.525ZM312.017 254.604C309.157 253.105 306.706 251.88 304.254 250.926V339.178H311.881V328.555H377.525V337.408H385.152V260.596L388.693 258.553C389.237 258.145 389.646 257.6 389.646 257.191C389.646 255.829 386.922 252.969 381.475 248.747L376.163 255.148H333.535C337.894 249.292 341.434 243.572 344.295 237.852C347.699 237.171 349.334 236.354 349.334 235.401C349.334 233.766 345.248 232.132 337.076 230.498C334.625 240.984 332.037 249.156 329.314 255.148H313.243L312.017 254.604Z" fill="#62648E"/>
</g>
<g filter="url(#filter1_d)">
<path d="M461.409 386.188L462.771 389.32H566.549L568.047 387.005C565.323 383.6 562.191 380.604 558.922 377.744L552.521 386.188H461.409ZM493.687 368.619V351.595H534.816V368.619H493.687ZM534.816 332.937V348.599H493.687V332.937H534.816ZM484.153 311.691C484.153 310.602 484.29 308.559 484.29 305.426V295.212H546.256V311.691H484.153ZM529.641 314.687C531.412 319.046 533.863 323.54 536.451 328.17L534.953 329.805H494.912C492.189 328.579 489.601 327.353 486.741 326.536V378.425H493.687V371.751H534.816V377.608H541.626V335.388C546.937 341.926 554.564 348.327 564.234 354.319C565.596 351.459 567.502 349.008 569.817 346.965C554.292 339.747 542.307 329.396 534.135 315.913C533.999 315.641 533.863 315.232 533.454 314.687H546.256V320.544H553.338V297.527L556.198 295.348C556.879 294.94 557.152 294.395 557.152 293.85C557.152 292.897 554.7 290.445 549.797 286.632L545.167 292.216H484.698C482.111 290.99 479.659 289.901 477.071 288.811V305.426C477.071 329.532 470.67 348.19 457.869 361.265L460.184 363.444C474.348 352.004 482.383 335.797 483.881 314.687H529.641Z" fill="#62648E"/>
</g>
<g filter="url(#filter2_d)">
<path d="M695.669 284.235H702.342V275.655H736.39L737.752 273.34C735.709 270.48 733.803 268.301 732.168 266.803L729.853 264.76L724.269 272.523H702.342V267.075C705.202 265.986 706.701 265.032 706.701 263.943C706.701 262.308 703.023 261.491 695.669 261.355V272.523H670.474V267.348C673.879 265.986 675.649 264.896 675.649 263.943C675.649 262.172 671.7 261.355 663.8 261.355V272.523H630.161L631.387 275.655H663.8V284.235H670.474V275.655H695.669V284.235ZM668.295 290.636V305.345H651.135V290.636H668.295ZM717.323 290.636V305.345H698.938V290.636H717.323ZM692.264 305.345H674.832V290.636H692.264V305.345ZM717.323 312.018H723.997V292.951L726.857 291.045C727.674 290.5 728.083 289.955 728.083 289.41C728.083 288.457 725.631 286.142 720.592 282.329L716.098 287.504H652.224L650.454 286.687C647.866 285.461 645.823 284.644 644.461 284.099V312.29H651.135V308.341H717.323V312.018ZM702.479 335.852C692.809 346.202 681.778 354.101 669.384 359.413C659.579 363.498 647.458 366.767 633.021 368.946L634.656 371.942C667.069 368.81 691.992 357.778 709.424 338.984L713.238 337.622C714.327 337.213 714.872 336.805 714.872 336.26C714.872 335.034 712.284 332.174 706.701 327.68L702.479 332.719H673.334C674.968 331.357 676.602 329.451 678.1 327.544C682.05 327.271 684.093 326.591 684.093 325.501C684.093 324.139 680.552 322.641 673.879 320.734C664.618 333.945 651.816 344.023 635.473 350.969L636.971 353.556C646.096 350.696 654.131 347.155 660.94 342.525C665.707 345.657 668.976 349.062 670.882 352.875C671.972 354.918 673.334 356.008 674.696 356.008C677.147 356.008 678.373 354.782 678.373 352.331C678.373 348.381 673.47 344.704 663.8 340.754C666.116 339.12 668.295 337.486 670.065 335.852H702.479ZM641.601 317.193C641.329 315.423 641.193 313.789 640.784 312.154L637.924 311.882C637.788 319.1 635.473 325.229 630.842 330.131C629.889 331.221 629.344 332.311 629.344 333.264C629.344 334.49 630.025 335.579 631.115 336.396C631.932 337.213 632.885 337.486 633.975 337.486C635.881 337.486 637.788 336.26 639.286 333.536C641.057 330.404 642.01 326.999 642.01 323.186C642.01 322.777 642.01 322.232 641.874 321.688C641.874 321.007 641.874 320.462 641.738 320.326H726.176C724.95 323.594 723.043 327.271 720.32 331.221L722.499 333.128C727.538 329.451 731.351 326.454 733.803 323.867L737.48 323.05C738.569 322.913 739.25 322.369 739.25 321.688C739.25 320.326 736.39 316.921 730.806 311.473L725.903 317.193H641.601Z" fill="#62648E"/>
</g>
<g filter="url(#filter3_d)">
<path d="M894.922 342.704C893.832 343.249 894.377 345.428 896.147 347.471C897.782 349.377 901.595 352.782 905.408 354.553C909.358 356.323 914.805 357.821 919.844 358.23C925.02 358.638 930.876 358.366 935.779 357.276C940.545 356.051 944.223 353.872 943.133 351.284C942.18 348.56 939.047 348.152 936.051 348.015C933.191 348.015 927.744 349.922 921.751 350.331C915.895 350.739 910.039 350.467 907.042 349.241C903.91 348.015 901.459 346.79 899.416 345.155C897.918 344.066 896.42 341.751 894.922 342.704ZM912.49 295.446C917.393 295.99 923.522 295.446 927.471 294.084C931.421 292.722 933.055 289.998 931.965 288.091C931.012 286.321 927.744 286.185 924.611 287.274C920.389 288.636 916.576 289.726 912.763 289.862C908.949 289.998 904.727 289.998 901.731 289.045C898.735 288.091 896.964 287.819 896.42 289.045C895.875 290.27 897.509 291.36 899.416 292.177C904.182 294.084 907.587 294.901 912.49 295.446ZM856.652 348.288C857.741 356.051 859.376 359.728 861.282 362.315C863.189 365.039 866.049 366.946 868.228 365.993C870.407 365.175 870.543 360.409 869.454 356.868C867.82 352.237 866.73 347.607 866.73 341.614C866.73 335.622 868.773 329.902 869.726 328.268C870.407 327.178 870.68 326.089 869.862 325.544C869.045 325.135 868.228 325.816 867.275 327.042C866.321 328.268 864.279 331.536 862.917 334.396C862.372 335.622 861.963 336.984 861.282 336.984C860.738 336.984 860.601 335.35 860.738 333.034C860.874 330.174 861.146 327.314 861.827 323.365C862.508 319.688 863.325 315.33 864.551 311.789C865.64 308.111 867.683 302.8 868.637 300.212C869.59 297.761 870.952 293.403 870.68 289.998C870.271 286.457 868.773 283.461 867.002 281.418C865.096 279.511 862.372 278.013 860.874 279.103C859.784 280.056 860.738 282.235 861.963 283.869C863.189 285.776 863.734 289.998 863.053 294.492C862.236 298.85 861.01 302.119 859.512 309.337C858.014 316.283 856.924 321.322 856.243 327.723C855.562 333.988 855.562 340.525 856.652 348.288Z" fill="#62648E"/>
</g>
<g filter="url(#filter4_d)">
<path d="M1191.3 532.143C1194.78 525.181 1196.42 520.574 1196.22 518.322C1195.91 516.07 1193.76 514.022 1189.77 512.179L1190.23 510.797C1193.3 510.49 1195.19 510.337 1195.91 510.337C1201.85 510.337 1204.97 511.872 1205.28 514.944C1205.48 516.889 1203.38 522.417 1198.98 531.529C1202.56 531.119 1205.07 530.351 1206.5 529.225C1208.96 527.997 1210.65 527.434 1211.57 527.536C1213.21 527.638 1214.69 528.15 1216.03 529.072C1217.25 529.788 1217.87 530.607 1217.87 531.529C1217.87 532.962 1216.59 534.19 1214.03 535.214C1208.6 536.955 1202.46 537.927 1195.6 538.132C1191.81 544.274 1187.87 550.571 1183.78 557.02C1186.85 554.666 1190.23 553.488 1193.91 553.488C1200.36 553.488 1203.89 558.095 1204.51 567.309C1215.77 560.45 1225.75 554.87 1234.45 550.571C1236.3 549.444 1237.22 548.318 1237.22 547.192C1237.22 545.964 1235.89 544.684 1233.22 543.353L1234.76 542.432C1243.36 544.274 1247.61 547.192 1247.51 551.185C1247.51 552.516 1245.71 553.898 1242.13 555.331C1229.33 561.064 1216.95 567.053 1204.97 573.298C1205.17 576.984 1205.28 580.567 1205.28 584.048C1205.28 586.3 1204.76 588.194 1203.74 589.729C1202.41 591.368 1201.08 592.187 1199.75 592.187C1197.29 592.187 1196.22 590.037 1196.52 585.737C1196.83 582.563 1196.93 580.106 1196.83 578.366C1189.97 583.894 1186.54 589.269 1186.54 594.49C1186.54 599.711 1192.94 601.759 1205.74 600.633C1212.49 600.223 1218.43 599.148 1223.55 597.408C1224.98 596.896 1226.16 596.64 1227.08 596.64C1228.62 596.64 1229.9 596.998 1230.92 597.715C1232.87 599.25 1233.84 600.735 1233.84 602.168C1233.84 605.547 1226.01 607.441 1210.34 607.85C1190.58 608.26 1180.71 603.909 1180.71 594.797C1180.71 587.426 1186.18 579.697 1197.14 571.609C1197.14 562.6 1195.6 558.044 1192.53 557.942C1188.43 557.532 1183.52 561.781 1177.79 570.688C1176.66 572.633 1175.64 573.605 1174.72 573.605C1173.69 573.605 1172.87 573.196 1172.26 572.377C1170.72 571.148 1169.85 569.408 1169.65 567.156C1169.44 565.722 1171.18 562.958 1174.87 558.863C1180.81 551.799 1185.36 544.786 1188.54 537.825C1187.82 537.825 1187 537.774 1186.08 537.671C1177.38 536.852 1170.98 531.989 1166.88 523.083L1168.88 522.008C1172.26 527.741 1177.89 531.017 1185.77 531.836C1187.92 532.04 1189.77 532.143 1191.3 532.143Z" fill="#62648E"/>
</g>
<path d="M513.627 508.87C514.541 508.924 515.303 509.273 515.914 509.916C516.631 510.438 517.019 511.152 517.078 512.059C517.152 513.192 516.872 514.121 516.236 514.845C515.593 515.456 514.649 515.802 513.402 515.883C512.382 515.95 511.359 515.96 510.332 515.913C509.297 515.753 508.27 515.706 507.25 515.773C494.106 516.631 479.558 519.516 463.606 524.427L465.358 527.726C467.8 532.005 469.378 535.259 470.092 537.488C470.642 538.931 470.987 540.729 471.127 542.882C471.438 547.641 470.31 552.153 467.744 556.417C465.178 560.681 461.567 563.762 456.911 565.659C458.33 566.477 460.799 567.681 464.316 569.272C466.536 570.151 469.673 571.141 473.727 572.242C477.895 573.335 481.127 574.035 483.423 574.34C489.389 575.088 493.845 575.366 496.791 575.174C497.585 575.122 498.343 575.414 499.068 576.049C499.792 576.685 500.184 577.456 500.243 578.362C500.309 579.382 499.968 580.258 499.22 580.989C498.584 581.713 497.7 582.113 496.567 582.187C494.074 582.349 491.329 582.13 488.331 581.53C485.439 580.808 483.475 580.367 482.441 580.207C476.8 579.21 470.718 577.559 464.195 575.254C457.785 572.942 453.419 570.553 451.096 568.087C450.243 567.232 449.773 566.125 449.684 564.766C449.588 563.293 450.152 562.345 451.376 561.924C452.721 561.609 454.433 560.814 456.512 559.54C458.591 558.267 460.213 556.966 461.378 555.638C462.966 553.827 464.102 552.046 464.784 550.295C465.572 548.423 465.881 546.184 465.711 543.577C465.577 541.538 464.984 539.415 463.929 537.208C462.867 534.887 461.643 532.691 460.256 530.62C458.982 528.541 458.149 527.116 457.758 526.345C449.619 528.925 442.72 531.31 437.059 533.5C431.512 535.683 426.546 538.056 422.162 540.618C419.199 542.291 417.339 543.436 416.583 544.055C416.039 544.432 415.483 544.639 414.917 544.676C413.557 544.764 412.557 544.261 411.916 543.165C411.539 542.62 411.336 542.122 411.306 541.668C411.247 540.762 411.853 539.584 413.124 538.136C413.971 537.17 414.947 536.424 416.05 535.896C417.267 535.362 418.93 534.684 421.038 533.864C423.041 533.164 424.374 532.679 425.04 532.408C427.586 531.331 432.246 529.49 439.017 526.886C445.788 524.282 451.014 522.404 454.694 521.254C453.142 518.396 452.148 516.242 451.712 514.791L451.486 513.953C451.434 513.16 451.617 512.465 452.033 511.869C452.555 511.152 453.205 510.654 453.984 510.376L454.822 510.15C455.729 510.091 456.541 510.323 457.257 510.845C457.967 511.254 458.347 511.855 458.399 512.648C458.495 514.121 459.199 516.18 460.51 518.826L460.713 519.324C476.438 514.428 489.555 511.41 500.063 510.268C500.97 510.209 503.115 509.955 506.5 509.507C509.997 509.05 512.373 508.838 513.627 508.87Z" fill="url(#paint0_linear)"/>
<path d="M683.724 498.103C684.865 498.142 685.801 498.536 686.533 499.285C687.257 499.921 687.649 500.692 687.708 501.598C687.752 502.278 687.464 503.093 686.843 504.044C686.208 504.769 685.494 505.157 684.7 505.208C684.247 505.238 683.673 505.162 682.979 504.979C681 504.312 678.368 504.086 675.082 504.3C672.25 504.485 668.982 504.983 665.28 505.794C661.691 506.597 658.287 507.616 655.067 508.851C654.25 510.269 653.666 511.787 653.316 513.403C652.982 515.245 652.743 518.561 652.6 523.35C652.485 525.064 652.538 527.621 652.76 531.02L653.674 542.397L653.685 542.567C660.601 538.701 668.495 535.853 677.365 534.022C678.936 533.692 680.345 533.486 681.592 533.405C684.991 533.183 686.776 534.375 686.946 536.981C687.013 538.001 686.615 538.88 685.753 539.619C684.997 540.238 684.052 540.584 682.919 540.658C682.126 540.709 681.159 540.716 680.018 540.676C678.991 540.63 677.968 540.64 676.948 540.706C674.342 540.876 670.874 541.786 666.543 543.434C662.206 544.969 658.117 546.829 654.277 549.014L654.41 551.054L655.168 560.051C655.434 564.13 655.313 567.495 654.803 570.146C654.148 574.057 652.887 576.53 651.02 577.562C649.705 578.33 648.424 578.755 647.178 578.837C645.251 578.963 643.398 578.458 641.617 577.322C639.941 576.066 638.527 574.452 637.374 572.479C635.822 569.622 634.954 566.777 634.769 563.944C634.554 560.658 635.294 558.049 636.989 556.118C639.622 552.873 641.804 550.569 643.535 549.204C645.486 547.711 647.119 546.58 648.435 545.812L647.957 538.503C647.269 527.965 647.383 519.252 648.299 512.365L648.435 511.844C647.77 512.115 646.893 512.628 645.805 513.381C645.154 513.879 644.406 514.611 643.558 515.576C642.711 516.542 641.906 517.277 641.142 517.782C640.484 518.167 639.872 518.377 639.306 518.414C638.513 518.466 637.757 518.231 637.041 517.709C636.43 517.066 636.098 516.348 636.046 515.555C636.002 514.875 636.234 514.063 636.741 513.12C639.435 509.075 644.622 505.721 652.299 503.057C660.083 500.273 667.884 498.626 675.703 498.115C678.649 497.923 681.323 497.919 683.724 498.103ZM649.471 566.909C649.49 563.722 649.293 558.956 648.879 552.61C648.553 552.859 647.521 553.609 645.782 554.861C644.043 556.112 642.659 557.568 641.63 559.228C640.706 560.768 640.315 562.614 640.455 564.767C640.566 566.467 641.013 568.088 641.797 569.63C642.573 571.058 643.667 572.125 645.078 572.829C646.014 573.223 646.596 573.413 646.822 573.398C648.522 573.287 649.405 571.124 649.471 566.909Z" fill="url(#paint1_linear)"/>
<path d="M833.412 472.796C836.698 472.581 839.223 473.782 840.987 476.397C842.374 478.469 843.134 480.524 843.267 482.564C843.4 484.604 842.563 486.593 840.755 488.532C838.947 490.47 836.766 491.921 834.212 492.885C831.219 494.104 828.045 495.165 824.69 496.067C819.969 507.413 816.336 518.859 813.79 530.405C812.825 534.792 812.431 538.345 812.608 541.065C812.941 546.164 814.921 548.595 818.547 548.358C819.567 548.292 820.439 548.576 821.163 549.211C822 549.839 822.456 550.72 822.53 551.853C822.589 552.76 822.245 553.579 821.496 554.31C820.747 555.042 819.693 555.452 818.333 555.541C817.087 555.622 815.644 555.318 814.006 554.629C812.368 553.939 811.055 553.001 810.067 551.814C808.461 549.87 807.377 547.21 806.815 543.833C806.657 543.16 806.534 542.144 806.445 540.785C806.12 535.799 806.837 530.233 808.598 524.087C810.351 517.828 812.842 510.667 816.071 502.604C816.26 502.023 816.499 501.324 816.787 500.509C817.189 499.686 817.636 498.69 818.128 497.52C812.175 498.705 805.232 499.557 797.3 500.075C796.394 500.134 795.582 499.902 794.865 499.38C794.141 498.745 793.746 497.917 793.679 496.897C793.605 495.764 793.889 494.892 794.532 494.281C795.281 493.55 796.226 493.203 797.366 493.243C801.46 493.203 804.867 493.094 807.586 492.917C812.799 492.576 817.203 492.061 820.799 491.371C823.952 483.882 825.834 479.606 826.448 478.542C828.371 474.889 830.693 472.973 833.412 472.796ZM832.009 487.908C833.778 487.11 835.146 486.281 836.114 485.421C837.188 484.44 837.681 483.27 837.592 481.911C837.525 480.891 837.126 480.006 836.394 479.258C835.655 478.396 834.893 478.047 834.107 478.212C832.755 478.414 830.802 481.614 828.248 487.812L827.509 489.567C828.514 489.274 830.014 488.721 832.009 487.908ZM891.716 489.983C892.78 490.596 893.345 491.413 893.412 492.432C893.442 492.886 893.309 493.463 893.013 494.165C892.415 495.456 891.549 496.139 890.416 496.213C889.963 496.242 889.268 496.06 888.332 495.666C884.565 493.75 879.793 492.98 874.014 493.358C869.821 493.632 866.459 494.42 863.927 495.724L860.797 497.464C860.14 497.848 859.528 498.059 858.961 498.096C857.715 498.178 856.718 497.731 855.972 496.755C855.587 496.097 855.38 495.542 855.351 495.089C855.269 493.842 855.724 492.959 856.714 492.439C858.68 491.173 861.283 490.093 864.525 489.198C867.88 488.296 871.087 487.746 874.146 487.546C877.659 487.316 881.024 487.438 884.241 487.911C887.451 488.27 889.942 488.961 891.716 489.983ZM890.5 526.249C891.406 526.189 892.218 526.421 892.935 526.943C893.652 527.465 894.1 528.232 894.28 529.245L894.302 529.585C894.361 530.491 894.017 531.31 893.268 532.042C892.625 532.653 891.85 532.988 890.944 533.047L888.553 533.033C885.72 533.218 882.298 533.953 878.285 535.239C874.265 536.412 870.494 537.91 866.972 539.734C867.42 543.118 867.689 545.49 867.778 546.85C868.022 550.589 867.644 553.516 866.644 555.629C865.947 557.154 864.779 558.425 863.138 559.443C861.49 560.347 859.76 560.858 857.947 560.976C856.587 561.065 855.439 560.913 854.503 560.519C851.348 559.245 849.662 556.966 849.448 553.68C849.307 551.527 849.737 549.394 850.737 547.28C851.737 545.166 853.091 543.257 854.801 541.553C855.966 540.225 857.969 538.671 860.812 536.893C860.334 533.055 860.028 530.116 859.895 528.077C859.606 523.658 859.755 519.836 860.341 516.611C861.04 513.379 862.411 510.843 864.453 509.003C865.096 508.392 865.87 508.057 866.777 507.998C867.796 507.931 868.672 508.272 869.404 509.021C870.022 509.777 870.361 510.609 870.42 511.515C870.479 512.422 870.191 513.237 869.556 513.961C869.238 514.323 868.807 514.693 868.263 515.07C867.824 515.326 867.45 515.692 867.14 516.167C866.943 516.635 866.704 517.334 866.423 518.262C865.679 520.814 865.47 524.583 865.796 529.569L866.254 533.977C870.442 531.883 874.765 530.121 879.223 528.692C883.681 527.263 887.44 526.448 890.5 526.249ZM861.242 553.934C862.195 552.847 862.583 550.944 862.406 548.225C862.346 547.318 862.115 545.513 861.71 542.808C858.883 544.814 856.965 546.816 855.958 548.817C855.155 550.462 854.794 551.908 854.876 553.155C854.92 553.834 855.123 554.333 855.485 554.651C856.21 555.286 857.082 555.571 858.102 555.504C859.348 555.423 860.395 554.899 861.242 553.934Z" fill="url(#paint2_linear)"/>
<path d="M1047.7 456.411C1047.18 455.534 1046.57 454.891 1045.86 454.483C1045.15 453.96 1044.45 453.721 1043.77 453.766C1043.09 453.81 1042.37 454.142 1041.61 454.76C1040.75 455.499 1040.36 456.435 1040.43 457.568C1040.49 458.475 1040.88 459.246 1041.61 459.881C1042.69 460.834 1043.97 463.027 1045.45 466.458C1048.66 473.759 1050.46 480.412 1050.85 486.417C1050.93 487.664 1050.94 488.631 1050.87 489.318L1050.89 489.658C1050.95 490.564 1051.34 491.335 1052.07 491.971C1052.79 492.606 1053.55 492.898 1054.34 492.846C1055.36 492.78 1056.19 492.441 1056.84 491.83C1057.59 491.098 1057.93 490.279 1057.87 489.373C1057.64 485.86 1056.31 480.314 1053.88 472.735C1051.57 465.148 1049.5 459.707 1047.7 456.411ZM1025.37 475.279C1026.55 474.178 1027.09 472.834 1026.99 471.248C1026.94 470.455 1026.67 469.847 1026.19 469.423C1025.45 468.674 1024.63 468.329 1023.73 468.389C1022.82 468.448 1021.99 468.843 1021.25 469.575C1020.71 470.065 1019.87 471.201 1018.74 472.982C1017.59 474.65 1016.72 476.072 1016.11 477.25C1013.02 483.938 1011.76 491.644 1012.33 500.369C1012.47 502.409 1012.77 504.437 1013.24 506.455C1013.71 508.472 1014.15 509.866 1014.54 510.637C1015.71 512.95 1017.71 514.754 1020.53 516.05C1021.7 516.542 1022.85 516.752 1023.98 516.678C1025.11 516.604 1027.24 516.01 1030.35 514.896C1030.68 514.76 1031.68 514.411 1033.35 513.846C1035.02 513.282 1036.71 512.945 1038.41 512.834C1040.67 512.686 1042.8 513.058 1044.8 513.952C1046.8 514.96 1048.2 516.461 1049.02 518.456C1049.42 519.454 1049.66 520.519 1049.74 521.652C1050.09 527.091 1046.84 534.814 1039.99 544.82C1038.43 547.084 1035.1 551.113 1030.02 556.907C1029.39 557.632 1029.1 558.447 1029.16 559.353C1029.22 560.26 1029.61 561.031 1030.33 561.666C1031.06 562.302 1031.93 562.586 1032.95 562.52C1033.97 562.453 1034.68 562.065 1035.09 561.356L1037.61 558.119C1040.26 555.101 1043.13 551.158 1046.23 546.29C1049.43 541.302 1051.66 537.173 1052.93 533.904C1053.99 530.99 1054.69 528.725 1055.04 527.109C1055.51 525.486 1055.69 523.881 1055.58 522.295C1055.21 516.629 1052.59 512.248 1047.73 509.153C1045.36 507.714 1042.81 507.084 1040.09 507.261C1038.39 507.372 1035.87 507.992 1032.53 509.121C1028.97 510.264 1026.16 510.902 1024.12 511.035C1022.54 511.139 1021.37 510.76 1020.64 509.898C1019.9 509.036 1019.17 507.433 1018.44 505.091C1018.13 503.746 1017.93 502.45 1017.85 501.204C1017.63 497.918 1017.85 494.206 1018.49 490.067C1019.23 485.808 1020.32 482.437 1021.75 479.954C1022.77 478.18 1023.98 476.622 1025.37 475.279Z" fill="url(#paint3_linear)"/>
<path d="M398 659.201C441.922 609.753 1038.17 631.333 1104.56 561.484" stroke="url(#paint4_linear)" stroke-width="6.44381"/>
<g filter="url(#filter5_bf)">
<ellipse cx="416" cy="422.5" rx="86" ry="87.5" fill="url(#paint5_linear)" fill-opacity="0.3"/>
</g>
<g filter="url(#filter6_f)">
<circle cx="709.5" cy="321.5" r="95.5" fill="url(#paint6_linear)" fill-opacity="0.3"/>
</g>
<g filter="url(#filter7_f)">
<circle cx="456.5" cy="289.5" r="95.5" fill="#F7DE01" fill-opacity="0.1"/>
</g>
<g filter="url(#filter8_bf)">
<circle cx="256.5" cy="321.5" r="95.5" fill="url(#paint7_linear)" fill-opacity="0.3"/>
</g>
<g filter="url(#filter9_bf)">
<ellipse cx="591" cy="237" rx="70" ry="65" fill="#E0FD6B" fill-opacity="0.3"/>
</g>
<g filter="url(#filter10_bf)">
<ellipse cx="751" cy="383" rx="76" ry="70" fill="#FBF21E" fill-opacity="0.23"/>
</g>
<path d="M680.519 663.769C680.8 663.841 680.958 664.05 680.993 664.395C681.01 664.568 680.964 664.735 680.855 664.895C680.771 665.053 680.632 665.154 680.437 665.198L680.326 665.21C680.178 665.224 680.016 665.228 679.841 665.22C679.663 665.188 679.5 665.18 679.352 665.194C678.192 665.31 677.066 665.522 675.975 665.83C674.906 666.111 673.626 666.526 672.135 667.073C672.014 667.11 671.825 667.216 671.569 667.391C671.309 667.542 671.119 667.636 670.998 667.672C671.21 669.297 671.496 670.789 671.856 672.149C672.24 673.507 672.681 674.548 673.177 675.271C673.206 675.318 673.279 675.423 673.395 675.586C673.508 675.724 673.574 675.879 673.591 676.052C673.608 676.225 673.574 676.378 673.487 676.511C673.359 676.724 673.184 676.841 672.961 676.863C672.69 676.89 672.469 676.8 672.299 676.592C671.961 676.202 671.678 675.744 671.451 675.219C671.247 674.666 671.046 674.025 670.848 673.297C670.225 671.04 669.785 668.629 669.529 666.061C669.295 663.716 669.272 661.737 669.46 660.122C669.478 660.046 669.49 659.92 669.498 659.745C669.527 659.542 669.573 659.376 669.635 659.245C668.519 659.556 667.696 659.8 667.165 659.977C667.019 660.017 666.803 660.101 666.517 660.229C666.255 660.355 666.025 660.427 665.828 660.447C665.606 660.469 665.428 660.437 665.295 660.351C665.058 660.225 664.927 660.038 664.903 659.791C664.885 659.619 664.919 659.453 665.003 659.295C665.111 659.135 665.263 659.033 665.458 658.988C669.754 657.812 674.172 656.998 678.714 656.545C679.134 656.503 679.472 656.519 679.729 656.593C680.01 656.665 680.167 656.861 680.199 657.182C680.221 657.404 680.153 657.598 679.995 657.764C679.862 657.926 679.684 658.019 679.462 658.041C679.412 658.046 679.136 658.024 678.632 657.974C677.852 657.902 676.944 657.918 675.907 658.021C674.327 658.179 672.625 658.486 670.801 658.942C670.964 659.075 671.055 659.24 671.075 659.438C671.082 659.512 671.069 659.626 671.034 659.779C670.814 660.324 670.686 660.91 670.648 661.537C670.609 662.139 670.611 662.912 670.655 663.855C670.677 664.326 670.741 665.093 670.847 666.154C672.311 665.585 673.635 665.116 674.82 664.749C676.03 664.379 677.309 664.077 678.656 663.843L679.504 663.721C679.949 663.677 680.287 663.693 680.519 663.769ZM697.106 664.659C697.392 664.78 697.549 664.976 697.576 665.248C697.591 665.396 697.545 665.562 697.439 665.747C697.285 665.962 697.011 666.089 696.617 666.129L695.946 666.158C695.576 666.195 695.023 666.275 694.287 666.398C694.376 666.788 694.485 667.376 694.613 668.161C694.859 669.632 694.998 670.528 695.03 670.849C695.048 671.022 695.06 671.27 695.067 671.593C695.097 671.889 695.145 672.371 695.211 673.037C695.273 673.654 695.239 674.069 695.111 674.281C694.982 674.493 694.795 674.612 694.548 674.636C694.4 674.651 694.26 674.628 694.129 674.566C693.895 674.465 693.764 674.278 693.737 674.007C693.725 673.883 693.733 673.72 693.763 673.518C693.805 672.691 693.792 671.932 693.723 671.241C693.593 669.933 693.353 668.398 693.003 666.638C692.124 666.826 690.993 667.113 689.611 667.5C688.786 667.732 688.004 668.009 687.263 668.332C687.216 668.362 687.156 668.38 687.082 668.388C686.72 670.767 686.566 672.839 686.617 674.604C686.631 675.251 686.653 675.723 686.683 676.019L686.779 676.607C686.799 676.805 686.765 676.97 686.679 677.104C686.501 677.321 686.301 677.44 686.079 677.463C685.906 677.48 685.74 677.434 685.579 677.325C685.443 677.214 685.353 677.061 685.309 676.866C685.201 676.279 685.19 675.42 685.277 674.289L685.31 673.501C685.412 671.022 685.887 667.535 686.735 663.037L686.932 662.008C687.179 660.737 687.388 659.707 687.559 658.917C687.729 658.127 687.963 657.343 688.259 656.566C688.649 655.48 689.091 654.912 689.585 654.863C689.857 654.836 690.129 654.946 690.403 655.193C690.843 655.598 691.26 656.279 691.654 657.237C692.046 658.17 692.504 659.508 693.027 661.251C693.357 662.315 693.681 663.567 693.999 665.006C694.806 664.851 695.593 664.735 696.358 664.659L696.654 664.629C696.851 664.609 697.002 664.619 697.106 664.659ZM687.338 666.829C689.461 666.119 691.254 665.604 692.718 665.283L692.082 662.654C691.801 661.585 691.431 660.376 690.972 659.025C690.659 658.134 690.409 657.498 690.221 657.118C690.059 656.735 689.915 656.55 689.792 656.563C689.57 656.585 689.273 657.362 688.903 658.895C688.566 660.275 688.202 661.994 687.809 664.052C687.581 665.272 687.424 666.197 687.338 666.829ZM713.296 665.55C713.72 665.807 713.948 666.096 713.98 666.417C713.998 666.59 713.94 666.758 713.806 666.921C713.695 667.056 713.553 667.133 713.38 667.15C713.208 667.167 712.989 667.102 712.725 666.954C712.192 666.608 711.796 666.386 711.537 666.287C710.705 665.946 709.815 665.773 708.867 665.768C707.92 665.762 706.767 665.827 705.409 665.963C705.286 665.975 705.041 666.024 704.676 666.111C704.333 666.17 704.001 666.215 703.68 666.247C703.408 666.274 703.197 666.283 703.047 666.273L703.697 669.424C703.964 670.594 704.197 671.556 704.396 672.309C704.621 673.059 704.906 673.791 705.251 674.504C705.31 674.598 705.441 674.785 705.643 675.064C705.868 675.316 705.989 675.528 706.006 675.701C706.028 675.923 705.971 676.103 705.835 676.241C705.724 676.377 705.582 676.453 705.409 676.471C705.163 676.495 704.944 676.43 704.754 676.274C704.372 675.938 704.047 675.435 703.781 674.763C703.512 674.067 703.214 673.075 702.886 671.786C702.191 669.063 701.549 665.5 700.96 661.096C700.783 659.817 700.652 658.758 700.569 657.919C700.433 656.561 700.356 655.161 700.337 653.717C700.332 653.667 700.329 653.518 700.33 653.269C700.33 653.019 700.383 652.802 700.489 652.617C700.62 652.429 700.784 652.326 700.981 652.306C701.204 652.284 701.411 652.363 701.603 652.543C701.793 652.699 701.876 652.902 701.851 653.154L701.781 653.573C702.657 653.111 703.688 652.822 704.873 652.704C706.354 652.556 707.679 652.723 708.849 653.205C710.017 653.662 710.658 654.47 710.774 655.63C710.793 655.828 710.797 655.99 710.785 656.115C710.75 657.266 710.4 658.385 709.736 659.473C709.094 660.535 708.257 661.64 707.224 662.79C706.55 663.53 705.77 664.207 704.884 664.818C705.696 664.713 706.586 664.636 707.553 664.59C708.797 664.565 709.874 664.608 710.782 664.717C711.715 664.823 712.553 665.101 713.296 665.55ZM703.447 664.288C703.805 664.128 704.124 663.947 704.403 663.744C704.679 663.517 705.069 663.179 705.573 662.73C706.808 661.61 707.805 660.364 708.566 658.992C709.285 657.698 709.606 656.669 709.53 655.904C709.458 655.188 709.007 654.66 708.175 654.319C707.343 653.978 706.384 653.862 705.298 653.97C704.533 654.046 703.828 654.229 703.184 654.517C703.065 654.579 702.901 654.683 702.691 654.828C702.479 654.949 702.3 655.029 702.154 655.069C701.957 655.088 701.819 655.077 701.74 655.035C701.739 655.534 701.787 656.264 701.883 657.227C701.883 657.476 701.907 657.836 701.953 658.305C702.108 660.109 702.379 662.201 702.766 664.581C702.86 664.522 702.979 664.472 703.125 664.433C703.268 664.369 703.376 664.321 703.447 664.288ZM733.059 650.492C733.131 650.46 733.336 650.39 733.674 650.281C734.037 650.17 734.391 650.098 734.737 650.063C735.477 649.989 735.872 650.199 735.921 650.693C735.956 651.039 735.879 651.271 735.691 651.389C735.526 651.48 735.332 651.537 735.11 651.559C734.885 651.557 734.736 651.559 734.662 651.567C734.144 651.618 733.62 651.745 733.092 651.947C732.588 652.147 732.288 652.264 732.192 652.299C730.2 653.071 727.947 654.23 725.434 655.777C722.943 657.297 720.419 658.994 717.864 660.869C717.679 661.013 717.506 661.154 717.346 661.295C717.185 661.436 717.012 661.578 716.827 661.721C716.758 661.778 716.632 661.89 716.449 662.058C716.289 662.198 716.122 662.277 715.949 662.294C715.727 662.317 715.535 662.261 715.372 662.128C715.234 661.992 715.155 661.825 715.135 661.628C715.108 661.356 715.198 661.135 715.406 660.965C717.573 659.203 720.516 657.215 724.234 654.999C727.975 652.757 730.916 651.254 733.059 650.492ZM733.911 659.793C734.203 659.715 734.422 659.668 734.571 659.653C734.867 659.623 735.086 659.701 735.23 659.886C735.341 660 735.406 660.156 735.426 660.353C735.453 660.625 735.35 660.847 735.118 661.019C735.002 661.106 734.821 661.161 734.574 661.186C734.352 661.208 734.179 661.225 734.055 661.238C733.811 661.287 733.593 661.346 733.4 661.415C733.207 661.484 733.038 661.538 732.893 661.578C731.004 662.14 729.149 662.911 727.327 663.89C727.208 663.952 726.937 664.104 726.512 664.345C726.085 664.562 725.697 664.8 725.349 665.06C725.211 665.173 725.106 665.246 725.035 665.278C725.503 666.727 726.152 667.859 726.981 668.674C727.832 669.461 728.851 669.796 730.035 669.678C731.097 669.572 732.281 669.068 733.587 668.165C733.959 667.903 734.232 667.764 734.405 667.747C734.553 667.732 734.694 667.768 734.827 667.854C735.017 668.01 735.122 668.186 735.142 668.384C735.166 668.631 735.111 668.823 734.975 668.961C734.837 669.075 734.614 669.222 734.308 669.402C733.459 669.885 732.723 670.258 732.101 670.519C731.479 670.781 730.835 670.945 730.168 671.011C728.86 671.142 727.709 670.845 726.714 670.121C725.719 669.398 724.921 668.393 724.319 667.107C723.74 665.793 723.371 664.347 723.214 662.767C723.081 661.434 723.097 660.223 723.263 659.135C723.295 658.957 723.327 658.655 723.36 658.228C723.389 657.776 723.476 657.393 723.619 657.08C723.743 656.818 723.94 656.674 724.212 656.647C724.409 656.627 724.589 656.684 724.752 656.817C724.937 656.924 725.041 657.088 725.063 657.31L725.019 657.613C724.524 659.159 724.368 660.844 724.55 662.671C724.602 663.189 724.653 663.571 724.702 663.815C728.047 661.861 731.117 660.521 733.911 659.793ZM741.606 652.295C741.658 652.066 741.6 651.86 741.432 651.677C741.262 651.47 741.053 651.378 740.806 651.403C740.461 651.437 740.251 651.583 740.177 651.84C740.1 652.072 740.059 652.412 740.054 652.861C740.007 653.888 740.085 655.426 740.29 657.475C740.509 659.672 740.804 661.761 741.176 663.744C741.546 665.701 741.961 667.243 742.423 668.369C742.948 669.638 743.494 670.244 744.062 670.187C744.284 670.165 744.508 670.031 744.732 669.784C745.024 669.456 745.258 669.058 745.436 668.592C745.614 668.125 745.767 667.661 745.896 667.2C746.024 666.738 746.116 666.405 746.17 666.2L747.253 662.054C747.554 660.827 747.885 659.522 748.246 658.14C748.377 657.703 748.528 657.215 748.698 656.674C748.866 656.109 749.009 655.658 749.125 655.323C749.199 655.066 749.31 654.93 749.458 654.916C749.581 654.903 749.69 654.992 749.784 655.182C749.996 655.56 750.225 656.111 750.472 656.834C750.741 657.53 750.968 658.181 751.153 658.785C751.601 660.286 751.975 661.408 752.273 662.151C752.515 662.825 752.77 663.386 753.039 663.833C753.333 664.277 753.69 664.478 754.109 664.436C754.504 664.397 754.798 664.218 754.991 663.9C755.205 663.554 755.422 663.097 755.639 662.526C755.913 661.776 756.175 660.902 756.425 659.905L756.666 658.946C757.125 657.056 757.474 655.55 757.711 654.43C757.946 653.284 758.118 652.133 758.227 650.975C758.242 650.874 758.263 650.71 758.29 650.483C758.34 650.229 758.357 650.027 758.342 649.879C758.32 649.657 758.228 649.479 758.065 649.346C757.902 649.213 757.722 649.156 757.524 649.175C757.302 649.198 757.125 649.302 756.995 649.49C756.888 649.675 756.828 649.943 756.813 650.293C756.795 650.619 756.779 650.833 756.765 650.934C756.651 652.292 756.351 654.166 755.867 656.558C755.404 658.923 754.969 660.686 754.562 661.849C754.525 661.977 754.478 662.131 754.421 662.311C754.362 662.467 754.301 662.61 754.239 662.741C754.2 662.844 754.155 662.899 754.106 662.904C754.032 662.911 753.934 662.809 753.814 662.596C753.715 662.357 753.648 662.189 753.614 662.093C753.456 661.759 753.071 660.651 752.46 658.767C752.42 658.622 752.277 658.187 752.031 657.464C751.809 656.738 751.571 656.101 751.317 655.553C751.087 655.003 750.87 654.575 750.665 654.272C750.261 653.714 749.811 653.459 749.318 653.509C749.022 653.538 748.762 653.689 748.54 653.96C748.293 654.234 748.088 654.554 747.925 654.919C747.787 655.282 747.661 655.643 747.547 656.004C747.456 656.337 747.391 656.568 747.354 656.696C747.001 657.903 746.623 659.362 746.22 661.072L745.653 663.26C745.24 664.872 744.785 666.438 744.289 667.958C744.155 668.37 744.052 668.58 743.978 668.588C743.903 668.595 743.804 668.468 743.678 668.206C743.574 667.917 743.451 667.556 743.308 667.121C743.162 666.662 742.945 665.736 742.657 664.344C742.391 662.925 742.19 661.785 742.055 660.926C741.853 659.401 741.716 658.28 741.645 657.564L741.519 656.305C741.396 654.572 741.425 653.236 741.606 652.295ZM778.547 645.958C778.619 645.926 778.824 645.856 779.162 645.747C779.525 645.636 779.879 645.564 780.225 645.529C780.965 645.455 781.36 645.665 781.41 646.159C781.444 646.505 781.367 646.737 781.18 646.855C781.014 646.946 780.821 647.003 780.598 647.025C780.374 647.023 780.224 647.025 780.15 647.032C779.632 647.084 779.109 647.211 778.58 647.413C778.077 647.613 777.777 647.73 777.681 647.765C775.688 648.537 773.435 649.696 770.922 651.243C768.431 652.763 765.908 654.46 763.352 656.335C763.167 656.478 762.994 656.62 762.834 656.761C762.673 656.902 762.501 657.043 762.315 657.187C762.246 657.243 762.12 657.356 761.938 657.523C761.777 657.664 761.611 657.743 761.438 657.76C761.216 657.782 761.023 657.727 760.86 657.593C760.722 657.458 760.643 657.291 760.623 657.093C760.596 656.822 760.686 656.601 760.894 656.431C763.062 654.669 766.005 652.68 769.723 650.465C773.463 648.222 776.405 646.72 778.547 645.958ZM779.4 655.259C779.691 655.18 779.911 655.134 780.059 655.119C780.355 655.089 780.575 655.167 780.718 655.352C780.829 655.466 780.894 655.621 780.914 655.819C780.941 656.09 780.839 656.313 780.606 656.485C780.49 656.572 780.309 656.627 780.062 656.652C779.84 656.674 779.667 656.691 779.544 656.703C779.299 656.753 779.081 656.812 778.888 656.881C778.696 656.95 778.527 657.004 778.381 657.044C776.493 657.606 774.637 658.377 772.815 659.356C772.697 659.418 772.425 659.569 772.001 659.811C771.573 660.028 771.186 660.266 770.838 660.525C770.699 660.639 770.595 660.712 770.523 660.744C770.991 662.193 771.64 663.325 772.469 664.14C773.321 664.927 774.339 665.262 775.524 665.144C776.585 665.038 777.769 664.534 779.075 663.631C779.448 663.369 779.721 663.23 779.893 663.213C780.042 663.198 780.182 663.234 780.315 663.32C780.506 663.476 780.61 663.652 780.63 663.85C780.655 664.097 780.599 664.289 780.463 664.427C780.325 664.541 780.103 664.688 779.797 664.868C778.947 665.351 778.212 665.724 777.59 665.985C776.967 666.247 776.323 666.41 775.657 666.477C774.348 666.607 773.197 666.311 772.202 665.587C771.208 664.864 770.41 663.859 769.808 662.573C769.228 661.259 768.86 659.813 768.702 658.233C768.569 656.9 768.586 655.689 768.751 654.601C768.784 654.423 768.816 654.12 768.848 653.693C768.878 653.242 768.964 652.859 769.107 652.546C769.231 652.284 769.428 652.14 769.7 652.113C769.898 652.093 770.078 652.15 770.241 652.283C770.426 652.389 770.529 652.554 770.551 652.776L770.507 653.079C770.013 654.624 769.857 656.31 770.039 658.137C770.09 658.655 770.141 659.037 770.19 659.281C773.535 657.327 776.605 655.987 779.4 655.259ZM801.341 660.14C801.482 660.051 801.614 660 801.738 659.988C801.96 659.966 802.14 660.023 802.278 660.159C802.441 660.292 802.532 660.457 802.552 660.655C802.577 660.902 802.463 661.137 802.211 661.362C801.819 661.675 801.373 661.957 800.874 662.206C800.398 662.428 799.765 662.703 798.975 663.031C797.681 663.559 796.108 664.039 794.257 664.473C792.406 664.907 790.715 665.2 789.184 665.353C788.715 665.4 788.133 665.433 787.436 665.452C786.938 665.452 786.658 665.268 786.596 664.9L786.585 664.789C786.57 664.641 786.595 664.514 786.659 664.408C786.721 664.277 786.799 664.182 786.893 664.123C786.964 664.091 787.012 664.074 787.037 664.071C787.086 664.066 787.122 664.05 787.144 664.023C787.544 663.534 787.815 662.248 787.957 660.165C788.095 658.057 788.149 655.846 788.118 653.53C788.074 651.091 787.991 649.255 787.868 648.021C787.814 647.478 787.762 647.084 787.713 646.839L787.639 646.473C787.617 646.251 787.672 646.058 787.806 645.895C787.939 645.732 788.104 645.641 788.302 645.622C788.524 645.599 788.716 645.655 788.879 645.788C789.04 645.897 789.119 646.064 789.116 646.288L789.238 648.632C789.26 649.103 789.305 650.183 789.374 651.872C789.464 653.533 789.495 655.088 789.465 656.537C789.449 658.383 789.378 659.924 789.252 661.158C789.126 662.392 788.911 663.361 788.607 664.064L789.87 663.976C791.918 663.772 793.79 663.411 795.483 662.893C796.668 662.525 797.584 662.21 798.231 661.946C798.781 661.716 799.596 661.261 800.675 660.58C800.769 660.521 800.862 660.462 800.956 660.403C801.072 660.316 801.201 660.229 801.341 660.14ZM820.108 658.269C820.249 658.18 820.381 658.13 820.504 658.118C820.726 658.095 820.907 658.152 821.045 658.288C821.208 658.421 821.299 658.587 821.319 658.784C821.343 659.031 821.23 659.267 820.978 659.491C820.585 659.805 820.14 660.086 819.641 660.335C819.164 660.557 818.531 660.832 817.741 661.16C816.448 661.688 814.875 662.169 813.024 662.603C811.172 663.037 809.481 663.33 807.951 663.482C807.482 663.529 806.899 663.562 806.203 663.582C805.705 663.582 805.424 663.398 805.363 663.03L805.352 662.919C805.337 662.771 805.362 662.643 805.426 662.537C805.488 662.407 805.565 662.312 805.659 662.252C805.731 662.22 805.779 662.203 805.804 662.201C805.853 662.196 805.889 662.18 805.911 662.152C806.311 661.664 806.582 660.378 806.723 658.295C806.862 656.187 806.916 653.975 806.885 651.66C806.841 649.221 806.758 647.384 806.634 646.15C806.58 645.607 806.529 645.213 806.479 644.969L806.405 644.602C806.383 644.38 806.439 644.188 806.572 644.025C806.706 643.862 806.871 643.771 807.068 643.751C807.291 643.729 807.483 643.784 807.646 643.918C807.806 644.026 807.885 644.193 807.883 644.418L808.004 646.761C808.026 647.233 808.072 648.313 808.14 650.001C808.231 651.662 808.261 653.218 808.231 654.667C808.216 656.513 808.145 658.053 808.019 659.287C807.892 660.521 807.677 661.49 807.374 662.194L808.636 662.105C810.685 661.901 812.556 661.54 814.25 661.022C815.435 660.655 816.351 660.339 816.997 660.075C817.548 659.846 818.363 659.391 819.441 658.71C819.535 658.65 819.629 658.591 819.723 658.532C819.839 658.446 819.967 658.358 820.108 658.269ZM828.011 658.828C828.144 658.665 828.202 658.497 828.185 658.324C828.165 658.127 828.074 657.961 827.911 657.828C827.746 657.67 827.564 657.601 827.367 657.62C827.145 657.643 826.945 657.762 826.767 657.979C826.614 658.194 826.474 658.42 826.348 658.657C826.247 658.891 826.175 659.048 826.133 659.127C825.432 660.593 824.934 661.976 824.64 663.277C824.625 663.378 824.58 663.557 824.506 663.814C824.454 664.044 824.438 664.257 824.458 664.455C824.478 664.652 824.557 664.819 824.695 664.954C824.86 665.112 825.029 665.183 825.202 665.166C825.35 665.151 825.469 665.089 825.557 664.981C825.693 664.842 825.762 664.661 825.765 664.436C825.792 664.209 825.816 664.07 825.835 664.018C825.976 663.181 826.246 662.257 826.644 661.245C827.066 660.231 827.522 659.425 828.011 658.828ZM864.094 655.268C864.151 655.338 864.262 655.451 864.427 655.609C864.617 655.765 864.722 655.941 864.742 656.139C864.764 656.361 864.71 656.566 864.579 656.753C864.47 656.914 864.305 657.005 864.083 657.027C863.786 657.057 863.479 656.85 863.161 656.408C862.546 655.497 862.106 654.582 861.84 653.661C861.495 652.449 861.263 651.25 861.145 650.065C861.047 649.078 861.006 647.549 861.024 645.478C860.765 645.878 860.362 646.341 859.817 646.87C858.629 647.96 857.147 648.594 855.369 648.771C854.283 648.88 853.213 648.774 852.159 648.456C851.128 648.11 850.25 647.561 849.527 646.811C849.083 646.356 848.756 645.953 848.546 645.6L848.502 645.529C848.309 647.094 848.148 648.731 848.019 650.439C847.9 652.495 847.906 654.177 848.036 655.485C848.149 656.621 848.348 657.611 848.631 658.455C848.668 658.576 848.751 658.78 848.879 659.066C849.03 659.325 849.113 659.541 849.131 659.714C849.143 659.838 849.118 659.965 849.056 660.095C848.955 660.33 848.769 660.461 848.497 660.488C848.176 660.52 847.914 660.384 847.709 660.08C847.499 659.727 847.335 659.332 847.217 658.895C847.123 658.456 847.032 657.916 846.943 657.277C846.638 655.213 846.588 652.588 846.794 649.402C847.024 646.213 847.417 643.518 847.97 641.319C848.054 640.912 848.147 640.591 848.248 640.357C848.374 640.12 848.573 639.988 848.844 639.961C849.067 639.939 849.259 639.994 849.422 640.128C849.585 640.261 849.676 640.426 849.696 640.624C849.708 640.747 849.683 640.874 849.622 641.005C849.375 641.528 849.115 642.427 848.843 643.7C849.169 643.718 849.385 643.883 849.491 644.197C849.883 645.379 850.618 646.253 851.697 646.819C852.798 647.357 854.002 647.561 855.311 647.431C856.125 647.35 856.89 647.149 857.606 646.828C858.347 646.505 858.964 646.07 859.458 645.522C859.999 644.944 860.375 644.346 860.588 643.726C860.798 643.082 860.944 642.295 861.026 641.364C861.07 640.811 861.117 640.408 861.167 640.153C861.221 639.949 861.304 639.778 861.415 639.643C861.551 639.504 861.694 639.44 861.844 639.45C862.173 639.492 862.36 639.748 862.407 640.217C862.412 640.266 862.411 640.628 862.403 641.302C862.324 642.506 862.276 643.408 862.261 644.008C862.197 646.109 862.231 647.826 862.363 649.159C862.4 649.529 862.483 650.106 862.611 650.891C862.796 651.995 862.985 652.898 863.18 653.602C863.397 654.278 863.702 654.834 864.094 655.268ZM880.381 638.65C880.637 638.724 880.838 638.866 880.984 639.076C881.13 639.285 881.216 639.526 881.243 639.798C881.268 640.045 881.233 640.322 881.139 640.631C880.983 641.07 880.415 641.875 879.435 643.044C878.477 644.187 877.689 645.038 877.072 645.598C876.064 647.743 874.904 650.364 873.593 653.462C872.988 654.893 872.534 656.097 872.233 657.075C871.949 657.976 871.781 658.541 871.729 658.77C871.692 658.899 871.658 659.064 871.629 659.267C871.596 659.444 871.549 659.599 871.488 659.729C871.423 659.835 871.306 659.909 871.136 659.951L870.988 659.966C870.79 659.986 870.611 659.941 870.451 659.833C870.315 659.722 870.237 659.567 870.218 659.37C870.193 659.123 870.265 658.717 870.433 658.152C870.559 657.665 870.862 656.825 871.341 655.631C871.543 655.162 871.683 654.811 871.76 654.579C872.511 652.61 873.585 650.134 874.983 647.153L875.013 647.075C874.583 647.267 874.146 647.386 873.702 647.43C872.813 647.519 871.921 647.321 871.025 646.837C870.127 646.328 869.316 645.574 868.593 644.574C867.986 643.737 867.396 642.686 866.821 641.422C866.244 640.134 865.875 638.687 865.715 637.082C865.686 636.786 865.712 636.547 865.793 636.364C865.872 636.157 866.072 636.037 866.393 636.005C866.591 635.986 866.761 636.068 866.904 636.253C867.069 636.411 867.152 636.615 867.152 636.864C867.179 637.884 867.445 639.054 867.95 640.375C868.478 641.668 869.116 642.814 869.864 643.811C870.952 645.224 871.95 645.984 872.858 646.093C873.061 646.123 873.335 646.12 873.68 646.086C874.396 646.015 875.103 645.732 875.802 645.239L875.906 645.154C876.99 642.777 877.867 641.069 878.536 640.03C879.206 638.991 879.82 638.531 880.381 638.65ZM910.766 640.108C910.911 641.565 910.61 643.178 909.864 644.947C909.141 646.69 908.117 648.425 906.793 650.152C906.42 650.663 905.906 651.25 905.249 651.914C904.617 652.575 904.081 653.078 903.641 653.421C903.594 653.45 903.467 653.55 903.26 653.72C903.053 653.891 902.827 654 902.582 654.05L902.508 654.057C902.646 654.442 902.759 654.693 902.845 654.809C902.934 654.949 902.984 655.082 902.997 655.205C903.019 655.427 902.963 655.62 902.83 655.783C902.721 655.943 902.556 656.034 902.334 656.056C902.087 656.081 901.881 656.014 901.715 655.856C901.572 655.671 901.464 655.457 901.39 655.216C900.874 653.547 900.49 651.815 900.236 650.02C899.977 648.176 899.756 646.329 899.571 644.477C899.352 642.281 899.23 640.423 899.203 638.905C899.191 638.782 899.182 638.57 899.177 638.272C899.17 637.948 899.179 637.661 899.203 637.409C899.216 637.283 899.21 637.097 899.185 636.85C899.183 636.576 899.236 636.359 899.344 636.198C899.475 636.011 899.652 635.906 899.874 635.884C900.121 635.859 900.328 635.938 900.496 636.121C900.686 636.277 900.756 636.481 900.707 636.736C900.529 637.701 900.475 639.04 900.546 640.753C900.583 641.871 900.667 643.084 900.797 644.393C901.018 646.614 901.332 648.764 901.739 650.843C901.803 651.235 901.926 651.846 902.109 652.676L902.179 652.631C902.996 652.076 903.757 651.452 904.46 650.759C905.915 649.342 907.169 647.547 908.224 645.373C909.197 643.381 909.615 641.694 909.477 640.312C909.366 639.201 908.884 638.239 908.03 637.427C907.201 636.612 906.228 636.098 905.109 635.886C904.576 635.789 904.063 635.765 903.569 635.815C902.927 635.879 902.284 636.055 901.64 636.344C901.378 636.469 901.128 636.457 900.888 636.306C900.674 636.153 900.554 635.953 900.529 635.706C900.497 635.385 900.637 635.16 900.948 635.029C901.59 634.716 902.293 634.521 903.059 634.445C904.244 634.326 905.407 634.497 906.55 634.957C907.69 635.391 908.643 636.069 909.408 636.99C910.195 637.884 910.648 638.923 910.766 640.108ZM930.887 630.773C930.958 630.741 931.163 630.671 931.501 630.562C931.864 630.451 932.218 630.379 932.564 630.344C933.304 630.27 933.699 630.48 933.749 630.974C933.783 631.32 933.706 631.552 933.519 631.67C933.353 631.761 933.16 631.818 932.937 631.84C932.713 631.838 932.563 631.84 932.489 631.848C931.971 631.899 931.448 632.026 930.919 632.228C930.416 632.428 930.116 632.545 930.02 632.58C928.027 633.352 925.775 634.511 923.261 636.058C920.77 637.578 918.247 639.275 915.691 641.15C915.506 641.294 915.333 641.435 915.173 641.576C915.013 641.717 914.84 641.859 914.654 642.002C914.585 642.059 914.459 642.171 914.277 642.339C914.116 642.479 913.95 642.558 913.777 642.575C913.555 642.598 913.362 642.542 913.199 642.409C913.061 642.273 912.982 642.106 912.962 641.909C912.935 641.637 913.026 641.416 913.233 641.246C915.401 639.484 918.344 637.496 922.062 635.28C925.802 633.038 928.744 631.535 930.887 630.773ZM931.739 640.074C932.03 639.996 932.25 639.949 932.398 639.934C932.694 639.904 932.914 639.982 933.057 640.167C933.168 640.281 933.233 640.437 933.253 640.634C933.28 640.906 933.178 641.128 932.946 641.3C932.829 641.387 932.648 641.442 932.401 641.467C932.179 641.489 932.006 641.506 931.883 641.519C931.638 641.568 931.42 641.627 931.227 641.696C931.035 641.765 930.866 641.819 930.72 641.859C928.832 642.421 926.976 643.192 925.154 644.171C925.036 644.233 924.764 644.385 924.34 644.626C923.913 644.843 923.525 645.081 923.177 645.341C923.039 645.454 922.934 645.527 922.862 645.559C923.331 647.008 923.979 648.14 924.808 648.955C925.66 649.742 926.678 650.077 927.863 649.959C928.924 649.853 930.108 649.349 931.414 648.446C931.787 648.184 932.06 648.045 932.232 648.028C932.381 648.013 932.521 648.049 932.655 648.135C932.845 648.291 932.949 648.467 932.969 648.665C932.994 648.912 932.938 649.104 932.802 649.242C932.664 649.356 932.442 649.503 932.136 649.683C931.286 650.166 930.551 650.539 929.929 650.8C929.306 651.062 928.662 651.226 927.996 651.292C926.687 651.423 925.536 651.126 924.541 650.402C923.547 649.679 922.749 648.674 922.147 647.388C921.567 646.074 921.199 644.628 921.041 643.048C920.908 641.715 920.925 640.504 921.09 639.416C921.123 639.238 921.155 638.936 921.187 638.509C921.217 638.057 921.303 637.674 921.447 637.361C921.57 637.099 921.768 636.955 922.039 636.928C922.237 636.908 922.417 636.965 922.58 637.098C922.765 637.205 922.868 637.369 922.89 637.591L922.846 637.894C922.352 639.44 922.196 641.125 922.378 642.952C922.429 643.47 922.48 643.852 922.529 644.096C925.875 642.142 928.944 640.802 931.739 640.074ZM950.546 639.396C950.832 639.517 950.989 639.714 951.016 639.985C951.031 640.133 950.985 640.3 950.879 640.485C950.726 640.7 950.452 640.827 950.057 640.866L949.387 640.896C949.016 640.933 948.464 641.013 947.728 641.136C947.817 641.526 947.925 642.113 948.053 642.898C948.3 644.37 948.439 645.266 948.471 645.586C948.488 645.759 948.5 646.007 948.507 646.331C948.537 646.627 948.585 647.108 948.651 647.775C948.713 648.392 948.679 648.807 948.551 649.019C948.423 649.231 948.235 649.349 947.988 649.374C947.84 649.389 947.701 649.365 947.57 649.304C947.335 649.202 947.205 649.016 947.177 648.744C947.165 648.621 947.174 648.458 947.204 648.256C947.246 647.429 947.232 646.67 947.164 645.979C947.033 644.67 946.793 643.136 946.443 641.376C945.564 641.563 944.434 641.851 943.051 642.238C942.227 642.469 941.444 642.747 940.703 643.07C940.657 643.1 940.596 643.118 940.522 643.125C940.161 645.505 940.006 647.577 940.057 649.342C940.072 649.989 940.094 650.46 940.123 650.756L940.219 651.345C940.239 651.543 940.206 651.708 940.119 651.841C939.942 652.058 939.742 652.178 939.519 652.2C939.347 652.217 939.18 652.172 939.02 652.063C938.884 651.952 938.794 651.799 938.749 651.604C938.641 651.016 938.63 650.157 938.717 649.027L938.751 648.238C938.853 645.76 939.328 642.272 940.176 637.775L940.372 636.746C940.619 635.475 940.828 634.444 940.999 633.654C941.17 632.865 941.403 632.081 941.7 631.303C942.09 630.217 942.532 629.65 943.026 629.601C943.297 629.574 943.57 629.684 943.844 629.93C944.283 630.335 944.7 631.017 945.095 631.975C945.487 632.908 945.944 634.246 946.467 635.989C946.797 637.053 947.122 638.304 947.44 639.743C948.247 639.588 949.033 639.472 949.798 639.396L950.094 639.367C950.292 639.347 950.442 639.357 950.546 639.396ZM940.778 641.567C942.901 640.857 944.694 640.341 946.158 640.021L945.522 637.392C945.241 636.323 944.871 635.113 944.413 633.763C944.1 632.872 943.849 632.236 943.662 631.856C943.499 631.473 943.356 631.288 943.232 631.3C943.01 631.322 942.714 632.1 942.343 633.633C942.007 635.012 941.642 636.731 941.249 638.79C941.022 640.009 940.865 640.935 940.778 641.567ZM966.736 640.288C967.161 640.545 967.389 640.834 967.421 641.155C967.438 641.328 967.38 641.495 967.247 641.658C967.136 641.794 966.994 641.87 966.821 641.888C966.648 641.905 966.43 641.839 966.166 641.691C965.632 641.345 965.236 641.123 964.977 641.024C964.145 640.683 963.256 640.51 962.308 640.505C961.36 640.5 960.207 640.565 958.85 640.7C958.726 640.713 958.482 640.762 958.116 640.848C957.773 640.907 957.441 640.953 957.12 640.985C956.849 641.012 956.638 641.02 956.487 641.011L957.138 644.162C957.404 645.332 957.637 646.293 957.837 647.046C958.061 647.797 958.346 648.529 958.691 649.242C958.75 649.336 958.881 649.522 959.084 649.801C959.308 650.053 959.429 650.265 959.446 650.438C959.468 650.66 959.412 650.841 959.276 650.979C959.165 651.115 959.023 651.191 958.85 651.208C958.603 651.233 958.385 651.167 958.195 651.012C957.812 650.676 957.488 650.172 957.221 649.501C956.952 648.805 956.654 647.812 956.326 646.524C955.631 643.801 954.989 640.237 954.401 635.834C954.223 634.555 954.093 633.496 954.009 632.657C953.874 631.299 953.796 629.898 953.777 628.454C953.772 628.405 953.77 628.255 953.77 628.006C953.77 627.757 953.823 627.54 953.929 627.355C954.06 627.167 954.224 627.063 954.422 627.044C954.644 627.022 954.851 627.101 955.044 627.281C955.234 627.436 955.316 627.64 955.292 627.892L955.221 628.31C956.098 627.849 957.128 627.559 958.313 627.441C959.794 627.293 961.12 627.461 962.29 627.942C963.457 628.399 964.099 629.208 964.214 630.368C964.234 630.566 964.238 630.727 964.225 630.853C964.19 632.003 963.841 633.123 963.176 634.211C962.534 635.272 961.697 636.378 960.665 637.528C959.991 638.268 959.21 638.944 958.324 639.556C959.136 639.45 960.026 639.374 960.994 639.327C962.238 639.303 963.314 639.345 964.222 639.454C965.155 639.561 965.993 639.839 966.736 640.288ZM956.888 639.026C957.246 638.866 957.564 638.684 957.843 638.482C958.12 638.255 958.51 637.917 959.013 637.468C960.248 636.348 961.246 635.101 962.006 633.729C962.725 632.436 963.046 631.407 962.97 630.642C962.899 629.926 962.447 629.397 961.615 629.056C960.784 628.716 959.825 628.599 958.739 628.708C957.973 628.784 957.269 628.966 956.624 629.255C956.506 629.317 956.342 629.42 956.132 629.566C955.919 629.687 955.74 629.767 955.595 629.806C955.397 629.826 955.259 629.815 955.18 629.773C955.18 630.271 955.228 631.002 955.324 631.965C955.324 632.214 955.347 632.573 955.394 633.042C955.549 634.847 955.82 636.939 956.206 639.318C956.3 639.259 956.42 639.21 956.566 639.17C956.709 639.106 956.816 639.058 956.888 639.026ZM1001.82 633.799C1002.05 633.876 1002.18 634.05 1002.21 634.321C1002.23 634.544 1002.15 634.763 1001.98 634.98C1001.8 635.173 1001.54 635.261 1001.22 635.243C1001.09 635.231 1000.97 635.218 1000.84 635.206C1000.71 635.169 1000.34 635.181 999.721 635.243C999.4 635.275 998.922 635.347 998.285 635.461L998.296 635.572C998.303 635.646 998.292 635.784 998.262 635.986C998.102 636.376 998.012 636.722 997.992 637.023C997.873 638.331 997.879 639.639 998.009 640.948C998.068 641.54 998.155 642.043 998.271 642.455C998.311 642.6 998.392 642.792 998.516 643.029C998.639 643.266 998.708 643.458 998.723 643.606C998.747 643.853 998.618 644.053 998.334 644.206L998.045 644.31C997.452 644.369 997.045 643.537 996.824 641.814C995.16 643.376 993.39 644.25 991.513 644.437C991.069 644.482 990.646 644.486 990.243 644.452C989.039 644.372 987.929 643.997 986.915 643.325C985.923 642.626 985.173 641.729 984.665 640.633C984.312 639.845 984.099 639.081 984.025 638.34C983.863 636.711 984.237 635.091 985.149 633.479C985.781 632.319 986.611 631.264 987.638 630.314C988.689 629.362 989.842 628.549 991.097 627.875C992.279 627.234 993.588 626.73 995.022 626.362C995.264 626.288 995.446 626.245 995.57 626.233C995.94 626.196 996.202 626.32 996.355 626.603L996.458 626.892C996.478 627.09 996.421 627.27 996.288 627.433C996.179 627.593 996.015 627.697 995.795 627.744C994.154 628.032 992.568 628.626 991.037 629.527C989.504 630.403 988.216 631.491 987.174 632.791C986.13 634.067 985.516 635.412 985.333 636.826C985.263 637.382 985.248 637.857 985.288 638.252C985.391 639.289 985.744 640.201 986.346 640.989C986.948 641.776 987.704 642.361 988.615 642.744C989.526 643.127 990.475 643.269 991.462 643.171C992.672 643.05 993.796 642.577 994.836 641.75C995.319 641.353 995.706 640.978 995.995 640.625C996.061 640.544 996.162 640.421 996.295 640.259C996.426 640.071 996.56 639.92 996.699 639.807C996.699 638.56 996.721 637.661 996.766 637.108C996.776 636.957 996.78 636.745 996.777 636.471C996.797 636.17 996.823 635.93 996.855 635.753C996.246 635.888 995.333 636.116 994.119 636.437C993.803 636.518 993.535 636.582 993.315 636.629C993.093 636.651 992.908 636.67 992.76 636.684C992.37 636.773 992.076 636.827 991.879 636.847C991.681 636.867 991.544 636.868 991.468 636.851C991.137 636.784 990.954 636.578 990.92 636.232C990.9 636.035 990.956 635.842 991.087 635.655C991.218 635.467 991.395 635.375 991.62 635.377C992.489 635.34 993.412 635.223 994.39 635.026C995.392 634.827 995.978 634.706 996.149 634.664C996.465 634.583 996.892 634.49 997.43 634.387C998.383 634.192 999.139 634.029 999.7 633.899C1000.09 633.81 1000.45 633.749 1000.77 633.718C1001.21 633.673 1001.56 633.7 1001.82 633.799ZM1020.34 630.42C1020.63 630.541 1020.79 630.749 1020.82 631.046C1020.84 631.268 1020.8 631.447 1020.69 631.582C1020.55 631.745 1020.39 631.837 1020.19 631.856C1020.02 631.873 1019.75 631.838 1019.39 631.749C1019.06 631.657 1018.83 631.618 1018.71 631.63L1018.11 631.615C1018.19 632.903 1018.25 633.832 1018.31 634.399C1018.44 635.658 1018.59 636.665 1018.76 637.421C1018.94 638.25 1019.1 638.845 1019.24 639.206C1019.3 639.349 1019.37 639.492 1019.43 639.635C1019.52 639.751 1019.58 639.87 1019.62 639.991C1019.65 640.038 1019.66 640.098 1019.67 640.172C1019.69 640.37 1019.62 640.551 1019.46 640.716C1019.31 640.882 1019.13 640.974 1018.93 640.994C1018.59 641.028 1018.3 640.758 1018.06 640.183C1017.76 639.341 1017.5 638.157 1017.3 636.632L1017.07 634.747C1017.01 634.081 1016.93 633.054 1016.84 631.666L1015.73 631.74C1014.44 631.868 1013.1 632.102 1011.68 632.442C1010.2 632.765 1009.01 633.12 1008.13 633.507C1008.01 633.569 1007.84 633.66 1007.63 633.781C1007.44 633.875 1007.27 633.942 1007.13 633.981C1007.46 636.59 1007.85 638.645 1008.3 640.146C1008.34 640.267 1008.42 640.546 1008.53 640.983C1008.65 641.395 1008.79 641.768 1008.94 642.101C1009.13 642.432 1009.33 642.711 1009.55 642.938C1009.64 643.03 1009.77 643.153 1009.96 643.309C1010.15 643.44 1010.25 643.604 1010.27 643.801C1010.3 644.024 1010.24 644.216 1010.11 644.379C1009.97 644.517 1009.8 644.596 1009.61 644.616C1009.41 644.635 1009.24 644.602 1009.11 644.516C1008.69 644.259 1008.35 643.881 1008.1 643.382C1007.85 642.859 1007.6 642.223 1007.35 641.475C1006.55 638.962 1005.95 635.731 1005.56 631.781C1005.4 630.127 1005.27 628.22 1005.18 626.061C1005.16 625.937 1005.14 625.727 1005.11 625.431C1005.11 625.108 1005.12 624.82 1005.14 624.568C1005.19 624.314 1005.28 624.118 1005.42 623.98C1005.53 623.869 1005.67 623.805 1005.85 623.787C1006.09 623.763 1006.3 623.842 1006.47 624.025C1006.66 624.18 1006.73 624.385 1006.68 624.639C1006.57 625.274 1006.51 625.915 1006.5 626.565C1006.51 627.211 1006.56 628.017 1006.63 628.982L1006.68 629.912L1006.77 631.137L1006.94 632.504C1008.99 631.801 1011.47 631.192 1014.39 630.677C1015.42 630.524 1016.21 630.421 1016.75 630.367C1016.64 628.034 1016.66 626.3 1016.79 625.165C1016.81 625.113 1016.83 624.949 1016.86 624.672C1016.88 624.396 1016.94 624.165 1017.05 623.98C1017.18 623.792 1017.37 623.686 1017.61 623.662C1017.86 623.637 1018.07 623.728 1018.24 623.936C1018.41 624.143 1018.46 624.375 1018.38 624.632C1018.12 625.53 1018.01 626.851 1018.03 628.594L1018.09 630.271C1018.73 630.256 1019.22 630.258 1019.55 630.275C1019.87 630.292 1020.14 630.341 1020.34 630.42ZM1033.65 623.821C1035.33 623.903 1036.71 624.376 1037.79 625.24C1038.9 626.102 1039.53 627.261 1039.67 628.718C1039.7 629.039 1039.71 629.274 1039.7 629.425C1039.67 631.123 1039.16 632.845 1038.16 634.59C1037.16 636.31 1035.79 637.817 1034.05 639.113L1033.46 639.583C1033.47 639.706 1033.47 639.806 1033.45 639.883C1033.39 640.263 1033.11 640.478 1032.62 640.527C1032.32 640.556 1031.8 640.497 1031.03 640.348C1029.18 640.034 1027.64 639.191 1026.41 637.818C1025.2 636.443 1024.5 634.817 1024.31 632.941L1024.28 632.271C1024.24 630.829 1024.59 629.498 1025.34 628.276C1026.12 627.052 1027.14 626.053 1028.41 625.278C1029.68 624.479 1031.02 624.008 1032.46 623.865C1032.97 623.813 1033.37 623.799 1033.65 623.821ZM1032.41 638.416C1033.53 637.906 1034.56 637.105 1035.5 636.014C1036.46 634.921 1037.2 633.738 1037.73 632.464C1038.27 631.163 1038.49 629.97 1038.38 628.884C1038.34 628.514 1038.27 628.172 1038.16 627.858C1037.81 626.797 1037.04 626.051 1035.85 625.621C1034.68 625.164 1033.47 624.998 1032.21 625.124C1030.9 625.254 1029.71 625.697 1028.64 626.452C1027.59 627.204 1026.79 628.169 1026.23 629.347C1025.7 630.497 1025.5 631.701 1025.62 632.96C1025.71 633.849 1025.98 634.719 1026.44 635.571C1026.97 636.566 1027.68 637.367 1028.59 637.974C1029.5 638.582 1030.49 638.919 1031.57 638.986C1031.65 639.003 1031.78 639.002 1031.98 638.983C1032.01 638.755 1032.15 638.567 1032.41 638.416ZM1060.52 618.824C1060.59 618.967 1060.62 619.075 1060.63 619.149C1060.65 619.347 1060.59 619.539 1060.46 619.727C1060.33 619.89 1060.15 619.97 1059.93 619.968L1059.22 620.001C1057.76 620.146 1056.03 620.667 1054.03 621.565C1051.98 622.493 1050.13 623.487 1048.49 624.548C1047.51 625.194 1046.58 625.885 1045.71 626.62C1044.86 627.353 1044.25 628.012 1043.88 628.597C1043.76 628.834 1043.7 629.026 1043.72 629.174C1043.73 629.347 1043.87 629.558 1044.12 629.808C1044.67 630.351 1045.5 630.841 1046.62 631.278C1048.02 631.861 1049.33 632.293 1050.53 632.572C1051.73 632.851 1053.22 633.113 1055.02 633.358C1055.29 633.381 1055.54 633.481 1055.76 633.658C1055.97 633.812 1056.09 634.011 1056.12 634.258C1056.12 634.332 1056.11 634.446 1056.08 634.599C1055.84 635.47 1054.29 636.535 1051.42 637.793C1050.34 638.249 1049.41 638.617 1048.61 638.895L1047.2 639.335C1046.69 639.461 1046.39 639.528 1046.32 639.535C1046.17 639.55 1046.06 639.549 1045.98 639.531C1045.61 639.494 1045.4 639.303 1045.37 638.957C1045.34 638.735 1045.4 638.543 1045.53 638.38C1045.69 638.19 1045.88 638.071 1046.1 638.024C1047.18 637.867 1048.22 637.613 1049.24 637.263C1050.08 636.954 1051.05 636.546 1052.14 636.038C1053.24 635.505 1054.01 635.041 1054.47 634.647L1051.7 634.175C1050.45 633.901 1049.07 633.514 1047.58 633.015C1046.08 632.491 1044.93 631.97 1044.13 631.452C1043.01 630.74 1042.42 630.027 1042.35 629.311C1042.27 628.57 1042.7 627.718 1043.63 626.753C1044.55 625.788 1045.75 624.808 1047.22 623.814C1048.97 622.642 1050.94 621.562 1053.11 620.573C1055.27 619.559 1057.19 618.906 1058.86 618.616L1059.56 618.509C1060.03 618.462 1060.35 618.567 1060.52 618.824ZM1081.1 618.754C1081.7 618.695 1082.18 618.709 1082.57 618.795C1082.97 618.855 1083.19 619.069 1083.23 619.44C1083.28 619.909 1083.05 620.168 1082.56 620.217C1082.49 620.224 1082.32 620.216 1082.07 620.191C1081.69 620.104 1081.26 620.085 1080.79 620.131C1080.6 620.151 1080.2 620.215 1079.62 620.323C1078.53 620.456 1077.39 620.708 1076.18 621.078C1076.19 621.201 1076.18 621.289 1076.16 621.341C1076.06 621.8 1076.04 622.387 1076.12 623.103C1076.16 623.547 1076.25 624.187 1076.38 625.021C1076.63 626.791 1076.97 628.677 1077.39 630.679C1077.84 632.678 1078.34 634.424 1078.89 635.915C1078.99 636.204 1078.96 636.469 1078.78 636.711C1078.63 636.926 1078.43 637.045 1078.18 637.07C1077.93 637.094 1077.72 636.991 1077.55 636.759C1077.35 636.504 1077.19 635.997 1077.06 635.237C1076.88 634.183 1076.7 633.241 1076.52 632.411C1076.36 631.58 1076.23 630.882 1076.12 630.319C1075.4 626.826 1074.97 624.389 1074.84 623.006C1074.79 622.513 1074.76 622.166 1074.77 621.966C1074.75 621.768 1074.75 621.607 1074.76 621.481C1073.53 621.878 1071.9 622.464 1069.88 623.238C1068.51 623.749 1066.9 624.408 1065.03 625.217C1064.87 625.284 1064.58 625.425 1064.18 625.639C1063.77 625.829 1063.44 625.938 1063.16 625.965C1062.94 625.987 1062.76 625.93 1062.62 625.794C1062.48 625.658 1062.4 625.479 1062.38 625.257C1062.37 625.109 1062.4 624.968 1062.49 624.835C1062.57 624.677 1062.7 624.565 1062.87 624.498C1063.95 624.091 1065.22 623.603 1066.69 623.033C1069.45 621.985 1071.61 621.196 1073.18 620.666C1074.77 620.133 1076.43 619.668 1078.16 619.271C1079.43 618.995 1080.41 618.823 1081.1 618.754ZM1088.69 634.302C1088.56 634.016 1088.34 633.889 1088.02 633.92C1087.84 633.938 1087.69 634.015 1087.55 634.154C1087.44 634.289 1087.4 634.468 1087.42 634.69C1087.46 635.085 1087.68 635.537 1088.08 636.046C1088.48 636.554 1088.89 636.888 1089.3 637.046C1089.51 637.15 1089.71 637.192 1089.91 637.172C1090.06 637.157 1090.2 637.068 1090.33 636.906C1090.45 636.77 1090.49 636.64 1090.48 636.517C1090.46 636.27 1090.25 636.054 1089.86 635.869C1089.6 635.745 1089.39 635.603 1089.25 635.443C1089.14 635.28 1089.03 635.091 1088.94 634.876C1088.84 634.637 1088.76 634.445 1088.69 634.302Z" fill="#858585"/>
</g>
<defs>
<filter id="filter0_d" x="298.254" y="224.498" width="101.392" height="124.68" filterUnits="userSpaceOnUse" color-interpolation-filters="sRGB">
<feFlood flood-opacity="0" result="BackgroundImageFix"/>
<feColorMatrix in="SourceAlpha" type="matrix" values="0 0 0 0 0 0 0 0 0 0 0 0 0 0 0 0 0 0 127 0"/>
<feOffset dx="2" dy="2"/>
<feGaussianBlur stdDeviation="4"/>
<feColorMatrix type="matrix" values="0 0 0 0 0.637281 0 0 0 0 0.61601 0 0 0 0 0.881901 0 0 0 0.5 0"/>
<feBlend mode="normal" in2="BackgroundImageFix" result="effect1_dropShadow"/>
<feBlend mode="normal" in="SourceGraphic" in2="effect1_dropShadow" result="shape"/>
</filter>
<filter id="filter1_d" x="451.869" y="280.632" width="127.949" height="118.688" filterUnits="userSpaceOnUse" color-interpolation-filters="sRGB">
<feFlood flood-opacity="0" result="BackgroundImageFix"/>
<feColorMatrix in="SourceAlpha" type="matrix" values="0 0 0 0 0 0 0 0 0 0 0 0 0 0 0 0 0 0 127 0"/>
<feOffset dx="2" dy="2"/>
<feGaussianBlur stdDeviation="4"/>
<feColorMatrix type="matrix" values="0 0 0 0 0.637281 0 0 0 0 0.61601 0 0 0 0 0.881901 0 0 0 0.5 0"/>
<feBlend mode="normal" in2="BackgroundImageFix" result="effect1_dropShadow"/>
<feBlend mode="normal" in="SourceGraphic" in2="effect1_dropShadow" result="shape"/>
</filter>
<filter id="filter2_d" x="623.344" y="255.355" width="125.906" height="126.587" filterUnits="userSpaceOnUse" color-interpolation-filters="sRGB">
<feFlood flood-opacity="0" result="BackgroundImageFix"/>
<feColorMatrix in="SourceAlpha" type="matrix" values="0 0 0 0 0 0 0 0 0 0 0 0 0 0 0 0 0 0 127 0"/>
<feOffset dx="2" dy="2"/>
<feGaussianBlur stdDeviation="4"/>
<feColorMatrix type="matrix" values="0 0 0 0 0.637281 0 0 0 0 0.61601 0 0 0 0 0.881901 0 0 0 0.5 0"/>
<feBlend mode="normal" in2="BackgroundImageFix" result="effect1_dropShadow"/>
<feBlend mode="normal" in="SourceGraphic" in2="effect1_dropShadow" result="shape"/>
</filter>
<filter id="filter3_d" x="849.775" y="272.735" width="103.551" height="103.506" filterUnits="userSpaceOnUse" color-interpolation-filters="sRGB">
<feFlood flood-opacity="0" result="BackgroundImageFix"/>
<feColorMatrix in="SourceAlpha" type="matrix" values="0 0 0 0 0 0 0 0 0 0 0 0 0 0 0 0 0 0 127 0"/>
<feOffset dx="2" dy="2"/>
<feGaussianBlur stdDeviation="4"/>
<feColorMatrix type="matrix" values="0 0 0 0 0.637281 0 0 0 0 0.61601 0 0 0 0 0.881901 0 0 0 0.5 0"/>
<feBlend mode="normal" in2="BackgroundImageFix" result="effect1_dropShadow"/>
<feBlend mode="normal" in="SourceGraphic" in2="effect1_dropShadow" result="shape"/>
</filter>
<filter id="filter4_d" x="1160.41" y="503.867" width="97.8759" height="114.793" filterUnits="userSpaceOnUse" color-interpolation-filters="sRGB">
<feFlood flood-opacity="0" result="BackgroundImageFix"/>
<feColorMatrix in="SourceAlpha" type="matrix" values="0 0 0 0 0 0 0 0 0 0 0 0 0 0 0 0 0 0 127 0"/>
<feOffset dx="2.1566" dy="2.1566"/>
<feGaussianBlur stdDeviation="4.3132"/>
<feColorMatrix type="matrix" values="0 0 0 0 0.637281 0 0 0 0 0.61601 0 0 0 0 0.881901 0 0 0 0.5 0"/>
<feBlend mode="normal" in2="BackgroundImageFix" result="effect1_dropShadow"/>
<feBlend mode="normal" in="SourceGraphic" in2="effect1_dropShadow" result="shape"/>
</filter>
<filter id="filter5_bf" x="206.01" y="211.01" width="419.98" height="422.98" filterUnits="userSpaceOnUse" color-interpolation-filters="sRGB">
<feFlood flood-opacity="0" result="BackgroundImageFix"/>
<feGaussianBlur in="BackgroundImage" stdDeviation="6.44381"/>
<feComposite in2="SourceAlpha" operator="in" result="effect1_backgroundBlur"/>
<feBlend mode="normal" in="SourceGraphic" in2="effect1_backgroundBlur" result="shape"/>
<feGaussianBlur stdDeviation="61.995" result="effect2_foregroundBlur"/>
</filter>
<filter id="filter6_f" x="490.01" y="102.01" width="438.98" height="438.98" filterUnits="userSpaceOnUse" color-interpolation-filters="sRGB">
<feFlood flood-opacity="0" result="BackgroundImageFix"/>
<feBlend mode="normal" in="SourceGraphic" in2="BackgroundImageFix" result="shape"/>
<feGaussianBlur stdDeviation="61.995" result="effect1_foregroundBlur"/>
</filter>
<filter id="filter7_f" x="237.01" y="70.01" width="438.98" height="438.98" filterUnits="userSpaceOnUse" color-interpolation-filters="sRGB">
<feFlood flood-opacity="0" result="BackgroundImageFix"/>
<feBlend mode="normal" in="SourceGraphic" in2="BackgroundImageFix" result="shape"/>
<feGaussianBlur stdDeviation="61.995" result="effect1_foregroundBlur"/>
</filter>
<filter id="filter8_bf" x="37.01" y="102.01" width="438.98" height="438.98" filterUnits="userSpaceOnUse" color-interpolation-filters="sRGB">
<feFlood flood-opacity="0" result="BackgroundImageFix"/>
<feGaussianBlur in="BackgroundImage" stdDeviation="6.44381"/>
<feComposite in2="SourceAlpha" operator="in" result="effect1_backgroundBlur"/>
<feBlend mode="normal" in="SourceGraphic" in2="effect1_backgroundBlur" result="shape"/>
<feGaussianBlur stdDeviation="61.995" result="effect2_foregroundBlur"/>
</filter>
<filter id="filter9_bf" x="388.11" y="39.11" width="405.78" height="395.78" filterUnits="userSpaceOnUse" color-interpolation-filters="sRGB">
<feFlood flood-opacity="0" result="BackgroundImageFix"/>
<feGaussianBlur in="BackgroundImage" stdDeviation="66.445"/>
<feComposite in2="SourceAlpha" operator="in" result="effect1_backgroundBlur"/>
<feBlend mode="normal" in="SourceGraphic" in2="effect1_backgroundBlur" result="shape"/>
<feGaussianBlur stdDeviation="43.4957" result="effect2_foregroundBlur"/>
</filter>
<filter id="filter10_bf" x="587.01" y="225.01" width="327.98" height="315.98" filterUnits="userSpaceOnUse" color-interpolation-filters="sRGB">
<feFlood flood-opacity="0" result="BackgroundImageFix"/>
<feGaussianBlur in="BackgroundImage" stdDeviation="5"/>
<feComposite in2="SourceAlpha" operator="in" result="effect1_backgroundBlur"/>
<feBlend mode="normal" in="SourceGraphic" in2="effect1_backgroundBlur" result="shape"/>
<feGaussianBlur stdDeviation="43.995" result="effect2_foregroundBlur"/>
</filter>
<linearGradient id="paint0_linear" x1="455.228" y1="511.992" x2="501.01" y2="579.235" gradientUnits="userSpaceOnUse">
<stop stop-color="#737373"/>
<stop offset="0.84375" stop-color="#1D1D1D" stop-opacity="0.255208"/>
<stop offset="1" stop-opacity="0"/>
</linearGradient>
<linearGradient id="paint1_linear" x1="644.079" y1="514.853" x2="685.569" y2="534.883" gradientUnits="userSpaceOnUse">
<stop stop-color="#737373"/>
<stop offset="0.546875" stop-color="#1D1D1D" stop-opacity="0.255208"/>
<stop offset="1" stop-opacity="0"/>
</linearGradient>
<linearGradient id="paint2_linear" x1="798.593" y1="497.685" x2="898.741" y2="527.73" gradientUnits="userSpaceOnUse">
<stop stop-color="#737373"/>
<stop offset="0.651042" stop-color="#1D1D1D" stop-opacity="0.255208"/>
<stop offset="1" stop-opacity="0"/>
</linearGradient>
<linearGradient id="paint3_linear" x1="1046.1" y1="453.334" x2="1036.09" y2="559.205" gradientUnits="userSpaceOnUse">
<stop stop-color="#737373"/>
<stop offset="0.6875" stop-color="#1D1D1D" stop-opacity="0.255208"/>
<stop offset="1" stop-opacity="0"/>
</linearGradient>
<linearGradient id="paint4_linear" x1="398" y1="657.923" x2="1104.76" y2="586.388" gradientUnits="userSpaceOnUse">
<stop stop-color="#72684F"/>
<stop offset="1" stop-opacity="0"/>
</linearGradient>
<linearGradient id="paint5_linear" x1="416" y1="335" x2="416" y2="510" gradientUnits="userSpaceOnUse">
<stop stop-color="#68FFED"/>
<stop offset="1" stop-color="#F1FDFB" stop-opacity="0"/>
</linearGradient>
<linearGradient id="paint6_linear" x1="709.5" y1="226" x2="709.5" y2="417" gradientUnits="userSpaceOnUse">
<stop stop-color="#68FFED"/>
<stop offset="1" stop-color="#F1FDFB" stop-opacity="0"/>
</linearGradient>
<linearGradient id="paint7_linear" x1="256.5" y1="226" x2="317" y2="429.5" gradientUnits="userSpaceOnUse">
<stop stop-color="#FF68B1"/>
<stop offset="1" stop-color="#F1FDFB" stop-opacity="0"/>
</linearGradient>
<clipPath id="clip0">
<rect width="1456" height="865" fill="white"/>
</clipPath>
</defs>
</svg>
